<svg width="61" height="54" viewBox="0 0 61 54" fill="none" xmlns="http://www.w3.org/2000/svg">
<path d="M0.32 27.072C0.32 42.336 4.352 53.856 19.04 53.856C33.728 53.856 37.76 42.336 37.76 27.072C37.76 12.096 33.728 0.575997 19.04 0.575997C4.352 0.575997 0.32 12.096 0.32 27.072ZM29.696 27.072C29.696 37.368 28.616 46.368 19.04 46.368C9.464 46.368 8.384 37.368 8.384 27.072C8.384 17.28 9.464 8.064 19.04 8.064C28.616 8.064 29.696 17.28 29.696 27.072ZM52.421 54H60.701V1.512H45.725V9H52.421V54Z" fill="#F68410" fill-opacity="0.3"/>
</svg>
