<svg width="82" height="54" viewBox="0 0 82 54" fill="none" xmlns="http://www.w3.org/2000/svg">
<path d="M0.32 27.072C0.32 42.336 4.352 53.856 19.04 53.856C33.728 53.856 37.76 42.336 37.76 27.072C37.76 12.096 33.728 0.575997 19.04 0.575997C4.352 0.575997 0.32 12.096 0.32 27.072ZM29.696 27.072C29.696 37.368 28.616 46.368 19.04 46.368C9.464 46.368 8.384 37.368 8.384 27.072C8.384 17.28 9.464 8.064 19.04 8.064C28.616 8.064 29.696 17.28 29.696 27.072ZM46.157 53.28H81.149V46.44H58.325C66.749 38.736 79.709 29.016 79.709 16.272C79.709 6.84 73.661 0.431999 63.005 0.431999C53.717 0.431999 46.373 5.976 46.085 17.352H54.005C54.221 11.448 57.317 7.416 63.077 7.416C69.197 7.416 71.573 11.16 71.573 16.632C71.573 26.928 58.541 36.432 46.157 47.304V53.28Z" fill="#F68410" fill-opacity="0.3"/>
</svg>
