<svg width="81" height="55" viewBox="0 0 81 55" fill="none" xmlns="http://www.w3.org/2000/svg">
<path d="M0.32 27.072C0.32 42.336 4.352 53.856 19.04 53.856C33.728 53.856 37.76 42.336 37.76 27.072C37.76 12.096 33.728 0.575997 19.04 0.575997C4.352 0.575997 0.32 12.096 0.32 27.072ZM29.696 27.072C29.696 37.368 28.616 46.368 19.04 46.368C9.464 46.368 8.384 37.368 8.384 27.072C8.384 17.28 9.464 8.064 19.04 8.064C28.616 8.064 29.696 17.28 29.696 27.072ZM46.661 14.472H54.653C55.157 10.8 57.821 7.344 63.581 7.344C69.197 7.344 72.149 10.368 72.149 14.904C72.149 20.52 67.613 22.68 60.197 22.752H58.253V29.52H60.125C68.693 29.52 73.157 31.896 73.157 38.808C73.157 43.704 70.133 47.448 64.013 47.448C57.821 47.448 54.221 43.704 53.861 38.808H45.941C46.445 49.104 54.149 54.288 64.085 54.288C75.029 54.288 80.933 47.952 80.933 39.6C80.933 32.328 77.405 27.792 71.933 26.136V25.848C76.037 24.48 79.997 20.232 79.997 13.968C79.997 6.336 74.309 0.287996 63.869 0.287996C54.293 0.287996 47.237 5.4 46.661 14.472Z" fill="#F68410" fill-opacity="0.3"/>
</svg>
