<svg width="28" height="36" viewBox="0 0 28 36" fill="none" xmlns="http://www.w3.org/2000/svg">
<path d="M26.7853 19.2H21.4283V3.6C21.4273 2.64551 21.0507 1.73039 20.3812 1.05547C19.7116 0.380544 18.8038 0.000953058 17.8569 0H5.35706C4.56803 0.000952715 3.81158 0.317329 3.25365 0.879732C2.69572 1.44213 2.38186 2.20464 2.38092 3V7.26C1.70915 7.39926 1.10555 7.76771 0.671846 8.30325C0.238145 8.83879 0.000865775 9.50868 0 10.2V33C0.000945139 33.7954 0.314806 34.5579 0.872737 35.1203C1.43067 35.6827 2.18711 35.9991 2.97615 36H14.8807C15.6698 35.9991 16.4262 35.6827 16.9841 35.1203C17.5421 34.5579 17.8559 33.7954 17.8569 33V25.2H23.8092C24.7561 25.199 25.6639 24.8195 26.3335 24.1445C27.003 23.4696 27.3796 22.5545 27.3805 21.6V19.8C27.3805 19.6409 27.3178 19.4883 27.2062 19.3757C27.0946 19.2632 26.9432 19.2 26.7853 19.2ZM3.57138 3C3.57138 2.52261 3.75951 2.06477 4.09439 1.72721C4.42927 1.38964 4.88347 1.2 5.35706 1.2H15.1974C14.6097 1.85894 14.2848 2.7139 14.2855 3.6V12H3.57138V3ZM16.6664 33C16.6664 33.4774 16.4783 33.9352 16.1434 34.2728C15.8085 34.6104 15.3543 34.8 14.8807 34.8H2.97615C2.50255 34.8 2.04836 34.6104 1.71347 34.2728C1.37859 33.9352 1.19046 33.4774 1.19046 33V10.2C1.19198 9.82904 1.30717 9.46762 1.52027 9.16518C1.73336 8.86274 2.03395 8.63405 2.38092 8.5104V12.6C2.38092 12.7591 2.44363 12.9117 2.55526 13.0243C2.66688 13.1368 2.81828 13.2 2.97615 13.2H14.8807C15.0386 13.2 15.19 13.1368 15.3016 13.0243C15.4132 12.9117 15.476 12.7591 15.476 12.6V8.5104C15.8229 8.63405 16.1235 8.86274 16.3366 9.16518C16.5497 9.46762 16.6649 9.82904 16.6664 10.2V33ZM15.476 7.26V3.6C15.476 2.96348 15.7268 2.35303 16.1733 1.90294C16.6198 1.45286 17.2254 1.2 17.8569 1.2C18.4883 1.2 19.0939 1.45286 19.5404 1.90294C19.9869 2.35303 20.2378 2.96348 20.2378 3.6V21.6C20.238 22.4868 20.5647 23.342 21.1544 24H17.8569V10.2C17.856 9.50868 17.6187 8.83879 17.185 8.30325C16.7513 7.76771 16.1477 7.39926 15.476 7.26ZM26.1901 21.6C26.1901 22.2365 25.9392 22.847 25.4927 23.2971C25.0462 23.7471 24.4406 24 23.8092 24C23.1777 24 22.5721 23.7471 22.1256 23.2971C21.6791 22.847 21.4283 22.2365 21.4283 21.6V20.4H26.1901V21.6Z" fill="#F68410"/>
<path d="M5.35707 20.4004H2.97615C2.81829 20.4004 2.66689 20.4636 2.55526 20.5761C2.44363 20.6886 2.38092 20.8413 2.38092 21.0004V23.4004C2.38092 23.5595 2.44363 23.7121 2.55526 23.8247C2.66689 23.9372 2.81829 24.0004 2.97615 24.0004H5.35707C5.51493 24.0004 5.66633 23.9372 5.77796 23.8247C5.88958 23.7121 5.9523 23.5595 5.9523 23.4004V21.0004C5.9523 20.8413 5.88958 20.6886 5.77796 20.5761C5.66633 20.4636 5.51493 20.4004 5.35707 20.4004ZM4.76184 22.8004H3.57138V21.6004H4.76184V22.8004Z" fill="#F68410"/>
<path d="M10.119 20.4004H7.73805C7.58019 20.4004 7.42879 20.4636 7.31716 20.5761C7.20553 20.6886 7.14282 20.8413 7.14282 21.0004V23.4004C7.14282 23.5595 7.20553 23.7121 7.31716 23.8247C7.42879 23.9372 7.58019 24.0004 7.73805 24.0004H10.119C10.2768 24.0004 10.4282 23.9372 10.5399 23.8247C10.6515 23.7121 10.7142 23.5595 10.7142 23.4004V21.0004C10.7142 20.8413 10.6515 20.6886 10.5399 20.5761C10.4282 20.4636 10.2768 20.4004 10.119 20.4004ZM9.52374 22.8004H8.33328V21.6004H9.52374V22.8004Z" fill="#F68410"/>
<path d="M14.8807 20.4004H12.4998C12.342 20.4004 12.1906 20.4636 12.0789 20.5761C11.9673 20.6886 11.9046 20.8413 11.9046 21.0004V23.4004C11.9046 23.5595 11.9673 23.7121 12.0789 23.8247C12.1906 23.9372 12.342 24.0004 12.4998 24.0004H14.8807C15.0386 24.0004 15.19 23.9372 15.3016 23.8247C15.4133 23.7121 15.476 23.5595 15.476 23.4004V21.0004C15.476 20.8413 15.4133 20.6886 15.3016 20.5761C15.19 20.4636 15.0386 20.4004 14.8807 20.4004ZM14.2855 22.8004H13.0951V21.6004H14.2855V22.8004Z" fill="#F68410"/>
<path d="M5.35707 25.1992H2.97615C2.81829 25.1992 2.66689 25.2624 2.55526 25.375C2.44363 25.4875 2.38092 25.6401 2.38092 25.7992V28.1992C2.38092 28.3583 2.44363 28.511 2.55526 28.6235C2.66689 28.736 2.81829 28.7992 2.97615 28.7992H5.35707C5.51493 28.7992 5.66633 28.736 5.77796 28.6235C5.88958 28.511 5.9523 28.3583 5.9523 28.1992V25.7992C5.9523 25.6401 5.88958 25.4875 5.77796 25.375C5.66633 25.2624 5.51493 25.1992 5.35707 25.1992ZM4.76184 27.5992H3.57138V26.3992H4.76184V27.5992Z" fill="#F68410"/>
<path d="M10.119 25.1992H7.73805C7.58019 25.1992 7.42879 25.2624 7.31716 25.375C7.20553 25.4875 7.14282 25.6401 7.14282 25.7992V28.1992C7.14282 28.3583 7.20553 28.511 7.31716 28.6235C7.42879 28.736 7.58019 28.7992 7.73805 28.7992H10.119C10.2768 28.7992 10.4282 28.736 10.5399 28.6235C10.6515 28.511 10.7142 28.3583 10.7142 28.1992V25.7992C10.7142 25.6401 10.6515 25.4875 10.5399 25.375C10.4282 25.2624 10.2768 25.1992 10.119 25.1992ZM9.52374 27.5992H8.33328V26.3992H9.52374V27.5992Z" fill="#F68410"/>
<path d="M14.8807 25.1992H12.4998C12.342 25.1992 12.1906 25.2624 12.0789 25.375C11.9673 25.4875 11.9046 25.6401 11.9046 25.7992V28.1992C11.9046 28.3583 11.9673 28.511 12.0789 28.6235C12.1906 28.736 12.342 28.7992 12.4998 28.7992H14.8807C15.0386 28.7992 15.19 28.736 15.3016 28.6235C15.4133 28.511 15.476 28.3583 15.476 28.1992V25.7992C15.476 25.6401 15.4133 25.4875 15.3016 25.375C15.19 25.2624 15.0386 25.1992 14.8807 25.1992ZM14.2855 27.5992H13.0951V26.3992H14.2855V27.5992Z" fill="#F68410"/>
<path d="M5.35707 30H2.97615C2.81829 30 2.66689 30.0632 2.55526 30.1757C2.44363 30.2883 2.38092 30.4409 2.38092 30.6V33C2.38092 33.1591 2.44363 33.3117 2.55526 33.4243C2.66689 33.5368 2.81829 33.6 2.97615 33.6H5.35707C5.51493 33.6 5.66633 33.5368 5.77796 33.4243C5.88958 33.3117 5.9523 33.1591 5.9523 33V30.6C5.9523 30.4409 5.88958 30.2883 5.77796 30.1757C5.66633 30.0632 5.51493 30 5.35707 30ZM4.76184 32.4H3.57138V31.2H4.76184V32.4Z" fill="#F68410"/>
<path d="M10.119 30H7.73805C7.58019 30 7.42879 30.0632 7.31716 30.1757C7.20553 30.2883 7.14282 30.4409 7.14282 30.6V33C7.14282 33.1591 7.20553 33.3117 7.31716 33.4243C7.42879 33.5368 7.58019 33.6 7.73805 33.6H10.119C10.2768 33.6 10.4282 33.5368 10.5399 33.4243C10.6515 33.3117 10.7142 33.1591 10.7142 33V30.6C10.7142 30.4409 10.6515 30.2883 10.5399 30.1757C10.4282 30.0632 10.2768 30 10.119 30ZM9.52374 32.4H8.33328V31.2H9.52374V32.4Z" fill="#F68410"/>
<path d="M14.8807 30H12.4998C12.342 30 12.1906 30.0632 12.0789 30.1757C11.9673 30.2883 11.9046 30.4409 11.9046 30.6V33C11.9046 33.1591 11.9673 33.3117 12.0789 33.4243C12.1906 33.5368 12.342 33.6 12.4998 33.6H14.8807C15.0386 33.6 15.19 33.5368 15.3016 33.4243C15.4133 33.3117 15.476 33.1591 15.476 33V30.6C15.476 30.4409 15.4133 30.2883 15.3016 30.1757C15.19 30.0632 15.0386 30 14.8807 30ZM14.2855 32.4H13.0951V31.2H14.2855V32.4Z" fill="#F68410"/>
<path d="M14.8807 15.5996H2.97615C2.81829 15.5996 2.66689 15.6628 2.55526 15.7753C2.44363 15.8879 2.38092 16.0405 2.38092 16.1996V18.5996C2.38092 18.7587 2.44363 18.9114 2.55526 19.0239C2.66689 19.1364 2.81829 19.1996 2.97615 19.1996H14.8807C15.0386 19.1996 15.19 19.1364 15.3016 19.0239C15.4133 18.9114 15.476 18.7587 15.476 18.5996V16.1996C15.476 16.0405 15.4133 15.8879 15.3016 15.7753C15.19 15.6628 15.0386 15.5996 14.8807 15.5996ZM14.2855 17.9996H3.57138V16.7996H14.2855V17.9996Z" fill="#F68410"/>
<path d="M4.7619 2.39844H8.33328V3.59844H4.7619V2.39844Z" fill="#F68410"/>
<path d="M9.52362 2.39844H13.095V3.59844H9.52362V2.39844Z" fill="#F68410"/>
<path d="M4.7619 4.79883H8.33328V5.99883H4.7619V4.79883Z" fill="#F68410"/>
<path d="M9.52362 4.79883H13.095V5.99883H9.52362V4.79883Z" fill="#F68410"/>
<path d="M4.7619 7.20117H8.33328V8.40117H4.7619V7.20117Z" fill="#F68410"/>
<path d="M9.52362 7.20117H13.095V8.40117H9.52362V7.20117Z" fill="#F68410"/>
<path d="M4.7619 9.60156H8.33328V10.8016H4.7619V9.60156Z" fill="#F68410"/>
<path d="M9.52362 9.60156H13.095V10.8016H9.52362V9.60156Z" fill="#F68410"/>
</svg>
