<svg width="27" height="36" viewBox="0 0 27 36" fill="none" xmlns="http://www.w3.org/2000/svg">
<path d="M8.43734 14.5234C8.12627 14.5234 7.87483 14.2737 7.87483 13.9648C7.87483 12.4248 6.61314 11.1719 5.06232 11.1719C4.75126 11.1719 4.49982 10.9222 4.49982 10.6133C4.49982 10.3044 4.75126 10.0547 5.06232 10.0547C7.23302 10.0547 8.99984 11.8092 8.99984 13.9648C8.99984 14.2737 8.7484 14.5234 8.43734 14.5234Z" fill="#F68410"/>
<path d="M5.06232 29.435C4.75126 29.435 4.49982 29.1853 4.49982 28.8764V10.6133C4.49982 10.3044 4.75126 10.0547 5.06232 10.0547C5.37338 10.0547 5.62482 10.3044 5.62482 10.6133V28.8764C5.62482 29.1853 5.37338 29.435 5.06232 29.435Z" fill="#F68410"/>
<path d="M23.0626 25.6952H9.56251C8.63213 25.6952 7.875 24.9433 7.875 24.0194V1.67577C7.875 0.751864 8.63213 0 9.56251 0H23.0626C23.993 0 24.7501 0.751864 24.7501 1.67577C24.7501 1.98468 24.4986 2.23437 24.1876 2.23437C23.8765 2.23437 23.6251 1.98468 23.6251 1.67577C23.6251 1.36743 23.3731 1.11718 23.0626 1.11718H9.56251C9.25201 1.11718 9.00001 1.36743 9.00001 1.67577V24.0194C9.00001 24.3278 9.25201 24.578 9.56251 24.578H23.0626C23.3731 24.578 23.6251 24.3278 23.6251 24.0194C23.6251 23.7105 23.8765 23.4608 24.1876 23.4608C24.4986 23.4608 24.7501 23.7105 24.7501 24.0194C24.7501 24.9433 23.993 25.6952 23.0626 25.6952Z" fill="#F68410"/>
<path d="M24.1876 10.7093C23.8765 10.7093 23.6251 10.4596 23.6251 10.1507V1.67578C23.6251 1.36688 23.8765 1.11719 24.1876 1.11719C24.4986 1.11719 24.7501 1.36688 24.7501 1.67578V10.1507C24.7501 10.4596 24.4986 10.7093 24.1876 10.7093Z" fill="#F68410"/>
<path d="M24.7506 20.668C23.5097 20.668 22.5005 19.6658 22.5005 18.4336C22.5005 17.2013 23.5097 16.1992 24.7506 16.1992C25.0616 16.1992 25.3131 16.4489 25.3131 16.7578C25.3131 17.0667 25.0616 17.3164 24.7506 17.3164C24.1301 17.3164 23.6256 17.8175 23.6256 18.4336C23.6256 19.0497 24.1301 19.5508 24.7506 19.5508C25.0616 19.5508 25.3131 19.8005 25.3131 20.1094C25.3131 20.4183 25.0616 20.668 24.7506 20.668Z" fill="#F68410"/>
<path d="M24.7506 24.0195C23.5097 24.0195 22.5005 23.0174 22.5005 21.7851C22.5005 20.5529 23.5097 19.5508 24.7506 19.5508C25.0616 19.5508 25.3131 19.8005 25.3131 20.1094C25.3131 20.4183 25.0616 20.668 24.7506 20.668C24.1301 20.668 23.6256 21.169 23.6256 21.7851C23.6256 22.4013 24.1301 22.9023 24.7506 22.9023C25.0616 22.9023 25.3131 23.152 25.3131 23.4609C25.3131 23.7698 25.0616 24.0195 24.7506 24.0195Z" fill="#F68410"/>
<path d="M24.75 20.668C24.4389 20.668 24.1875 20.4183 24.1875 20.1094C24.1875 19.8005 24.4389 19.5508 24.75 19.5508C25.3704 19.5508 25.875 19.0497 25.875 18.4336C25.875 17.8175 25.3704 17.3164 24.75 17.3164C24.4389 17.3164 24.1875 17.0667 24.1875 16.7578C24.1875 16.4489 24.4389 16.1992 24.75 16.1992C25.9909 16.1992 27 17.2013 27 18.4336C27 19.6658 25.9909 20.668 24.75 20.668Z" fill="#F68410"/>
<path d="M24.75 24.0195C24.4389 24.0195 24.1875 23.7698 24.1875 23.4609C24.1875 23.152 24.4389 22.9023 24.75 22.9023C25.3704 22.9023 25.875 22.4013 25.875 21.7851C25.875 21.169 25.3704 20.668 24.75 20.668C24.4389 20.668 24.1875 20.4183 24.1875 20.1094C24.1875 19.8005 24.4389 19.5508 24.75 19.5508C25.9909 19.5508 27 20.5529 27 21.7851C27 23.0174 25.9909 24.0195 24.75 24.0195Z" fill="#F68410"/>
<path d="M24.7506 17.3164C23.5097 17.3164 22.5005 16.3143 22.5005 15.082C22.5005 13.8498 23.5097 12.8477 24.7506 12.8477C25.0616 12.8477 25.3131 13.0973 25.3131 13.4062C25.3131 13.7151 25.0616 13.9648 24.7506 13.9648C24.1301 13.9648 23.6256 14.4659 23.6256 15.082C23.6256 15.6981 24.1301 16.1992 24.7506 16.1992C25.0616 16.1992 25.3131 16.4489 25.3131 16.7578C25.3131 17.0667 25.0616 17.3164 24.7506 17.3164Z" fill="#F68410"/>
<path d="M24.7506 13.9648C23.5097 13.9648 22.5005 12.9627 22.5005 11.7305C22.5005 10.4982 23.5097 9.49609 24.7506 9.49609C25.0616 9.49609 25.3131 9.74578 25.3131 10.0547C25.3131 10.3636 25.0616 10.6133 24.7506 10.6133C24.1301 10.6133 23.6256 11.1143 23.6256 11.7305C23.6256 12.3466 24.1301 12.8476 24.7506 12.8476C25.0616 12.8476 25.3131 13.0973 25.3131 13.4062C25.3131 13.7151 25.0616 13.9648 24.7506 13.9648Z" fill="#F68410"/>
<path d="M24.75 17.3164C24.4389 17.3164 24.1875 17.0667 24.1875 16.7578C24.1875 16.4489 24.4389 16.1992 24.75 16.1992C25.3704 16.1992 25.875 15.6981 25.875 15.082C25.875 14.4659 25.3704 13.9648 24.75 13.9648C24.4389 13.9648 24.1875 13.7151 24.1875 13.4062C24.1875 13.0973 24.4389 12.8477 24.75 12.8477C25.9909 12.8477 27 13.8498 27 15.082C27 16.3143 25.9909 17.3164 24.75 17.3164Z" fill="#F68410"/>
<path d="M24.75 13.9648C24.4389 13.9648 24.1875 13.7151 24.1875 13.4062C24.1875 13.0973 24.4389 12.8476 24.75 12.8476C25.3704 12.8476 25.875 12.3466 25.875 11.7305C25.875 11.1143 25.3704 10.6133 24.75 10.6133C24.4389 10.6133 24.1875 10.3636 24.1875 10.0547C24.1875 9.74578 24.4389 9.49609 24.75 9.49609C25.9909 9.49609 27 10.4982 27 11.7305C27 12.9627 25.9909 13.9648 24.75 13.9648Z" fill="#F68410"/>
<path d="M24.7501 13.9648H24.1876C23.8765 13.9648 23.6251 13.7151 23.6251 13.4062C23.6251 13.0973 23.8765 12.8477 24.1876 12.8477H24.7501C25.0611 12.8477 25.3126 13.0973 25.3126 13.4062C25.3126 13.7151 25.0611 13.9648 24.7501 13.9648Z" fill="#F68410"/>
<path d="M15.75 33.1275C15.6155 33.1275 15.4805 33.08 15.3731 32.9833C15.1424 32.7772 15.1244 32.4236 15.3326 32.1946L22.0826 24.7625C22.2907 24.533 22.6468 24.5156 22.8769 24.7223C23.1075 24.9284 23.1255 25.282 22.9174 25.5111L16.1673 32.9431C16.0565 33.0649 15.903 33.1275 15.75 33.1275Z" fill="#F68410"/>
<path d="M16.875 33.5156C16.8137 33.5156 16.7512 33.5056 16.6905 33.4843L3.7529 29.0156C3.45927 28.9139 3.30402 28.5961 3.4064 28.3051C3.50877 28.0135 3.83052 27.8593 4.1219 27.961L17.0595 32.4297C17.3531 32.5314 17.5083 32.8492 17.406 33.1402C17.3255 33.3709 17.1078 33.5156 16.875 33.5156Z" fill="#F68410"/>
<path d="M0.561852 35.7496C0.477477 35.7496 0.391414 35.7306 0.310977 35.691C0.0331002 35.553 -0.0794006 35.2173 0.0595375 34.9414L3.43455 28.2383C3.57349 27.9623 3.91156 27.8512 4.18943 27.9886C4.46731 28.1265 4.57981 28.4623 4.44087 28.7382L1.06586 35.4413C0.966855 35.6368 0.768291 35.7496 0.561852 35.7496Z" fill="#F68410"/>
<path d="M15.7494 35.7494C15.665 35.7494 15.579 35.7304 15.4985 35.6908C15.2207 35.5528 15.1082 35.2171 15.2471 34.9411L16.3721 32.7068C16.5116 32.4308 16.8497 32.3202 17.127 32.4571C17.4049 32.595 17.5174 32.9308 17.3784 33.2067L16.2534 35.4411C16.1544 35.6366 15.9559 35.7494 15.7494 35.7494Z" fill="#F68410"/>
<path d="M24.1876 24.5785C23.8765 24.5785 23.6251 24.3288 23.6251 24.0199V23.3652C23.6251 23.0563 23.8765 22.8066 24.1876 22.8066C24.4986 22.8066 24.7501 23.0563 24.7501 23.3652V24.0199C24.7501 24.3288 24.4986 24.5785 24.1876 24.5785Z" fill="#F68410"/>
<path d="M5.1554 32.9551C4.84434 32.9551 4.59009 32.7054 4.59009 32.3965C4.59009 32.0876 4.83871 31.8379 5.14922 31.8379H5.1554C5.46591 31.8379 5.71791 32.0876 5.71791 32.3965C5.71791 32.7054 5.46591 32.9551 5.1554 32.9551Z" fill="#F68410"/>
<path d="M16.3124 24.0195C15.3821 24.0195 14.6249 23.2677 14.6249 22.3437C14.6249 21.4198 15.3821 20.668 16.3124 20.668C17.2428 20.668 18 21.4198 18 22.3437C18 23.2677 17.2428 24.0195 16.3124 24.0195ZM16.3124 21.7852C16.0019 21.7852 15.7499 22.0354 15.7499 22.3437C15.7499 22.6521 16.0019 22.9023 16.3124 22.9023C16.6229 22.9023 16.875 22.6521 16.875 22.3437C16.875 22.0354 16.6229 21.7852 16.3124 21.7852Z" fill="#F68410"/>
<path d="M14.6418 3.35156C14.3307 3.35156 14.0765 3.10187 14.0765 2.79297C14.0765 2.48407 14.3251 2.23438 14.6356 2.23438H14.6418C14.9523 2.23438 15.2043 2.48407 15.2043 2.79297C15.2043 3.10187 14.9523 3.35156 14.6418 3.35156Z" fill="#F68410"/>
<path d="M18 3.35156H16.3124C16.0014 3.35156 15.7499 3.10187 15.7499 2.79297C15.7499 2.48407 16.0014 2.23438 16.3124 2.23438H18C18.311 2.23438 18.5625 2.48407 18.5625 2.79297C18.5625 3.10187 18.311 3.35156 18 3.35156Z" fill="#F68410"/>
<path d="M16.3125 18.4335C13.2108 18.4335 10.6874 15.9277 10.6874 12.8476C10.6874 9.76756 13.2108 7.26172 16.3125 7.26172C19.4141 7.26172 21.9375 9.76756 21.9375 12.8476C21.9375 15.9277 19.4141 18.4335 16.3125 18.4335ZM16.3125 8.3789C13.8313 8.3789 11.8124 10.3837 11.8124 12.8476C11.8124 15.3116 13.8313 17.3164 16.3125 17.3164C18.7937 17.3164 20.8125 15.3116 20.8125 12.8476C20.8125 10.3837 18.7937 8.3789 16.3125 8.3789Z" fill="#F68410"/>
<path d="M15.4698 15.0859H13.7823C13.4712 15.0859 13.2198 14.8362 13.2198 14.5273V12.8516C13.2198 12.5427 13.4712 12.293 13.7823 12.293H15.4698C15.7809 12.293 16.0323 12.5427 16.0323 12.8516V14.5273C16.0323 14.8362 15.7809 15.0859 15.4698 15.0859ZM14.3448 13.9687H14.9073V13.4102H14.3448V13.9687Z" fill="#F68410"/>
<path d="M18.8455 15.0859H17.158C16.8469 15.0859 16.5955 14.8362 16.5955 14.5273V12.8516C16.5955 12.5427 16.8469 12.293 17.158 12.293H18.8455C19.1565 12.293 19.408 12.5427 19.408 12.8516V14.5273C19.408 14.8362 19.1565 15.0859 18.8455 15.0859ZM17.7205 13.9687H18.283V13.4102H17.7205V13.9687Z" fill="#F68410"/>
<path d="M17.1573 13.4101H15.4698C15.1587 13.4101 14.9073 13.1605 14.9073 12.8516V11.1758C14.9073 10.8669 15.1587 10.6172 15.4698 10.6172H17.1573C17.4684 10.6172 17.7198 10.8669 17.7198 11.1758V12.8516C17.7198 13.1605 17.4684 13.4101 17.1573 13.4101ZM16.0323 12.293H16.5948V11.7344H16.0323V12.293Z" fill="#F68410"/>
</svg>
