<svg width="200" height="200" viewBox="0 0 200 200" fill="none" xmlns="http://www.w3.org/2000/svg">
<path d="M72.132 73.362C72.836 78.1287 72.11 82.9972 70.046 87.3512C67.982 91.7052 64.6727 95.349 60.5369 97.8215C56.4012 100.294 51.6249 101.484 46.8126 101.241C42.0002 100.998 37.3682 99.3323 33.5027 96.4556C29.6372 93.5789 26.712 89.6201 25.0973 85.0802C23.4827 80.5404 23.2511 75.6235 24.4319 70.952C25.6127 66.2805 28.1529 62.0642 31.7309 58.8369C35.3089 55.6096 39.7639 53.5163 44.532 52.822C50.9158 51.8859 57.4099 53.524 62.5859 57.376C67.7618 61.228 71.1957 66.9783 72.132 73.362Z" fill="#F5F5F5"/>
<path d="M66.4001 74.1956C66.9357 77.8279 66.3817 81.5375 64.8082 84.8548C63.2346 88.1721 60.7124 90.9481 57.5606 92.8314C54.4088 94.7147 50.7691 95.6206 47.1023 95.4346C43.4354 95.2485 39.9061 93.9788 36.9611 91.7862C34.0162 89.5936 31.7878 86.5766 30.5582 83.117C29.3285 79.6574 29.1528 75.9108 30.0533 72.3514C30.9538 68.7919 32.89 65.5796 35.6169 63.121C38.3438 60.6624 41.7387 59.068 45.3721 58.5396C47.7808 58.1866 50.2355 58.3116 52.5959 58.9074C54.9563 59.5032 57.1763 60.5582 59.129 62.012C61.0816 63.4658 62.7288 65.2901 63.9764 67.3806C65.224 69.471 66.0476 71.7868 66.4001 74.1956Z" fill="#EBEBEB"/>
<path d="M66.3081 73.6209C66.2001 73.6209 66.0041 72.8449 65.5081 71.4849C64.8092 69.5697 63.8189 67.7739 62.5721 66.1609C61.7114 65.0632 60.7336 64.0627 59.6561 63.1769C58.4172 62.1715 57.054 61.3299 55.6001 60.6729C54.817 60.3141 54.008 60.0146 53.1801 59.7769C52.3202 59.5222 51.4414 59.3362 50.5521 59.2209C49.6338 59.0935 48.707 59.0386 47.7801 59.0569C46.824 59.08 45.8709 59.1722 44.9281 59.3329C43.9883 59.5072 43.0619 59.7478 42.1561 60.0529C41.2771 60.3566 40.4226 60.727 39.6001 61.1609C38.8058 61.5791 38.0449 62.0579 37.3241 62.5929C36.6293 63.0997 35.9741 63.6587 35.3641 64.2649C34.2255 65.3779 33.236 66.6336 32.4201 68.0009C31.7121 69.2025 31.138 70.4781 30.7081 71.8049C30.0931 73.7454 29.7814 75.7692 29.7841 77.8049C29.7841 79.2569 29.8761 80.0689 29.7841 80.0889C29.6921 80.1089 29.4241 79.3209 29.2521 77.8329C29.0281 75.714 29.2017 73.572 29.7641 71.5169C30.1502 70.0882 30.7047 68.7106 31.4161 67.4129C32.2403 65.918 33.2629 64.5415 34.4561 63.3209C35.0982 62.6559 35.7924 62.0433 36.5321 61.4889C37.2974 60.8998 38.1094 60.3741 38.9601 59.9169C39.8432 59.4454 40.762 59.0442 41.7081 58.7169C42.6823 58.3748 43.6812 58.1073 44.6961 57.9169C45.7127 57.7429 46.7409 57.6453 47.7721 57.6249C48.773 57.611 49.7735 57.6765 50.7641 57.8209C51.7208 57.9595 52.6651 58.1735 53.5881 58.4609C54.4733 58.7267 55.336 59.0624 56.1681 59.4649C57.7094 60.2013 59.1437 61.1432 60.4321 62.2649C61.5466 63.2383 62.5416 64.3407 63.3961 65.5489C64.6314 67.2858 65.5321 69.2378 66.0521 71.3049C66.4001 72.7769 66.4001 73.6009 66.3081 73.6209Z" fill="#E0E0E0"/>
<path d="M51.7 87.5157L52.212 90.7157L49.364 91.1717L48.864 88.0677C46.016 88.3477 43.168 87.8957 41.404 86.9237L42.4 83.1997C44.2198 84.0775 46.236 84.4689 48.252 84.3357L47.488 79.5757C44.204 79.3157 40.5 78.8237 39.848 74.7477C39.364 71.7277 41.144 68.7837 45.564 67.5477L45.056 64.3837L47.908 63.9277L48.404 67.0317C50.4601 66.8175 52.5378 67.0916 54.468 67.8317L53.604 71.5677C52.1407 70.9972 50.578 70.7252 49.008 70.7677L49.784 75.6117C53.064 75.8477 56.712 76.3437 57.356 80.3637C57.844 83.3477 56.088 86.2597 51.7 87.5157ZM46.836 75.3757L46.188 71.3277C44.732 71.9117 44.264 72.8357 44.416 73.7757C44.568 74.7157 45.516 75.1997 46.836 75.3757ZM52.836 81.4597C52.676 80.4597 51.764 80.0517 50.468 79.8197L51.1 83.7557C52.476 83.1997 52.984 82.3717 52.836 81.4597Z" fill="#E0E0E0"/>
<path d="M160.556 51.4687C162.378 54.4589 163.273 57.9225 163.125 61.4212C162.978 64.9198 161.796 68.2962 159.729 71.1228C157.663 73.9495 154.803 76.0993 151.514 77.3003C148.225 78.5013 144.653 78.6994 141.251 77.8695C137.849 77.0396 134.77 75.219 132.403 72.6382C130.036 70.0575 128.488 66.8325 127.955 63.3716C127.422 59.9107 127.928 56.3694 129.408 53.196C130.889 50.0227 133.278 47.3599 136.272 45.5447C138.255 44.3388 140.457 43.5354 142.751 43.1805C145.045 42.8255 147.386 42.926 149.641 43.4761C151.896 44.0262 154.021 45.0152 155.894 46.3866C157.767 47.758 159.351 49.4849 160.556 51.4687Z" fill="#F5F5F5"/>
<path d="M156.956 53.6501C158.346 55.929 159.028 58.5689 158.916 61.2358C158.805 63.9026 157.905 66.4764 156.33 68.6313C154.754 70.7863 152.575 72.4254 150.068 73.3413C147.561 74.2572 144.839 74.4086 142.246 73.7764C139.652 73.1442 137.305 71.7568 135.501 69.7899C133.696 67.8229 132.516 65.3649 132.11 62.7268C131.703 60.0888 132.088 57.3895 133.217 54.9705C134.345 52.5515 136.166 50.5217 138.448 49.1381C141.501 47.2836 145.165 46.7171 148.636 47.5632C152.106 48.4092 155.099 50.5986 156.956 53.6501Z" fill="#EBEBEB"/>
<path d="M156.736 53.2897C156.668 53.3377 156.312 52.8617 155.588 52.0897C154.579 51.0055 153.408 50.0851 152.116 49.3617C151.229 48.8692 150.29 48.4761 149.316 48.1897C148.202 47.8684 147.051 47.691 145.892 47.6617C145.267 47.6455 144.641 47.675 144.02 47.7497C143.373 47.8237 142.732 47.9481 142.104 48.1217C141.452 48.2962 140.816 48.5222 140.2 48.7977C138.929 49.3667 137.755 50.1305 136.72 51.0617C136.219 51.5127 135.753 52.0022 135.328 52.5257C134.518 53.515 133.858 54.619 133.372 55.8017C132.925 56.8721 132.62 57.9963 132.464 59.1457C132.331 60.1495 132.308 61.1649 132.396 62.1737C132.534 63.6478 132.9 65.0916 133.48 66.4537C133.88 67.4257 134.184 67.9457 134.116 67.9897C134.048 68.0337 133.656 67.5897 133.12 66.6337C132.37 65.2788 131.879 63.7962 131.672 62.2617C131.525 61.2011 131.505 60.127 131.612 59.0617C131.812 57.155 132.406 55.3106 133.356 53.6457C133.71 53.0352 134.111 52.4534 134.556 51.9057C135.008 51.3321 135.507 50.797 136.048 50.3057C137.155 49.2907 138.423 48.4662 139.8 47.8657C140.466 47.5714 141.155 47.3319 141.86 47.1497C142.538 46.9695 143.23 46.8437 143.928 46.7737C144.592 46.7023 145.261 46.6836 145.928 46.7177C148.249 46.8073 150.508 47.4963 152.484 48.7177C153.803 49.5288 154.958 50.5787 155.892 51.8137C156.544 52.7057 156.8 53.2577 156.736 53.2897Z" fill="#E0E0E0"/>
<path d="M150.9 66.7281L152.144 68.7281L150.368 69.8401L149.168 67.9041C147.34 68.8961 145.308 69.4041 143.848 69.2521L143.468 66.4521C144.936 66.5256 146.397 66.2154 147.708 65.5521L145.848 62.5841C143.576 63.3401 140.96 64.0641 139.368 61.5201C138.188 59.6361 138.544 57.1601 141.152 55.0841L139.916 53.1081L141.696 51.9961L142.896 53.9361C144.218 53.2109 145.693 52.8118 147.2 52.7721L147.68 55.5161C146.54 55.554 145.418 55.8177 144.38 56.2921L146.272 59.3161C148.536 58.5401 151.116 57.8441 152.672 60.3481C153.828 62.1961 153.48 64.6441 150.9 66.7281ZM144.2 60.0001L142.62 57.4761C141.82 58.2761 141.76 59.0281 142.128 59.6161C142.496 60.2041 143.264 60.2241 144.2 60.0001ZM149.94 62.3681C149.54 61.7481 148.824 61.7321 147.892 61.9441L149.428 64.3961C150.196 63.6281 150.296 62.9241 149.94 62.3521V62.3681Z" fill="#E0E0E0"/>
<path d="M136.728 35.0848C135.205 36.0504 133.43 36.5424 131.628 36.4987C129.825 36.4549 128.076 35.8773 126.602 34.839C125.128 33.8007 123.995 32.3484 123.346 30.6659C122.698 28.9833 122.563 27.1463 122.959 25.3872C123.356 23.6281 124.265 22.0262 125.572 20.7841C126.879 19.542 128.525 18.7156 130.302 18.4096C132.079 18.1035 133.907 18.3316 135.554 19.0648C137.202 19.7981 138.594 21.0036 139.556 22.5288C140.195 23.5389 140.629 24.665 140.832 25.8427C141.036 27.0203 141.005 28.2266 140.743 29.3926C140.48 30.5586 139.991 31.6614 139.302 32.638C138.613 33.6147 137.738 34.4461 136.728 35.0848Z" fill="#F5F5F5"/>
<path d="M135.572 33.2532C134.411 33.9885 133.059 34.363 131.685 34.3293C130.312 34.2956 128.979 33.8552 127.856 33.0638C126.733 32.2725 125.87 31.1657 125.376 29.8837C124.882 28.6016 124.78 27.2019 125.081 25.8615C125.383 24.5212 126.076 23.3005 127.072 22.354C128.068 21.4075 129.322 20.7777 130.676 20.5443C132.03 20.3109 133.423 20.4844 134.678 21.0427C135.933 21.6011 136.995 22.5194 137.728 23.6812C138.215 24.4512 138.546 25.3097 138.701 26.2075C138.857 27.1054 138.833 28.025 138.633 28.9139C138.433 29.8029 138.06 30.6436 137.534 31.3882C137.009 32.1327 136.342 32.7665 135.572 33.2532Z" fill="#EBEBEB"/>
<path d="M135.752 33.1377C135.732 33.1017 135.972 32.9137 136.364 32.5337C136.912 32.0043 137.375 31.393 137.736 30.7217C137.981 30.2604 138.174 29.7734 138.312 29.2697C138.468 28.6946 138.549 28.1016 138.552 27.5057C138.558 27.1833 138.538 26.8609 138.492 26.5417C138.448 26.2089 138.378 25.8799 138.284 25.5577C138.186 25.2248 138.063 24.8998 137.916 24.5857C137.762 24.2618 137.585 23.9491 137.388 23.6497C137.186 23.3514 136.963 23.068 136.72 22.8017C136.483 22.5484 136.228 22.3131 135.956 22.0977C135.692 21.8896 135.413 21.7024 135.12 21.5377C134.841 21.3821 134.551 21.2484 134.252 21.1377C133.695 20.9214 133.113 20.7749 132.52 20.7017C132.002 20.6437 131.478 20.6437 130.96 20.7017C130.201 20.7848 129.461 20.9859 128.764 21.2977C128.51 21.4394 128.242 21.5534 127.964 21.6377C128.155 21.4161 128.391 21.2375 128.656 21.1137C129.346 20.7114 130.104 20.4401 130.892 20.3137C131.44 20.2294 131.996 20.2106 132.548 20.2577C133.183 20.3067 133.809 20.4413 134.408 20.6577C134.733 20.7768 135.049 20.9212 135.352 21.0897C135.669 21.2625 135.971 21.4605 136.256 21.6817C136.553 21.9107 136.833 22.1621 137.092 22.4337C137.352 22.7181 137.593 23.0202 137.812 23.3377C138.034 23.6633 138.231 24.0057 138.4 24.3617C138.562 24.7023 138.695 25.0555 138.8 25.4177C138.899 25.7646 138.97 26.1192 139.012 26.4777C139.054 26.8213 139.07 27.1676 139.06 27.5137C139.029 28.7108 138.691 29.8799 138.08 30.9097C137.674 31.5952 137.144 32.1989 136.516 32.6897C136.297 32.8924 136.036 33.0453 135.752 33.1377Z" fill="#E0E0E0"/>
<path d="M128.8 30.2518L127.784 30.9118L127.2 29.9998L128.184 29.3598C127.686 28.5396 127.43 27.5954 127.444 26.6358L128.872 26.4118C128.849 27.1681 129.021 27.9176 129.372 28.5878L130.864 27.5998C130.464 26.4358 130.064 25.0958 131.352 24.2518C132.312 23.6278 133.588 23.7878 134.684 25.1118L135.688 24.4598L136.276 25.3638L135.292 25.9998C135.676 26.6712 135.897 27.4235 135.936 28.1958L134.528 28.4678C134.494 27.8891 134.347 27.3226 134.096 26.7998L132.556 27.8038C132.976 28.9598 133.356 30.2838 132.084 31.1118C131.14 31.7158 129.88 31.5598 128.8 30.2518ZM132.208 26.7398L133.496 25.9038C133.076 25.5038 132.696 25.4758 132.388 25.6718C132.08 25.8678 132.06 26.2598 132.192 26.7398H132.208ZM131.04 29.7198C131.36 29.5118 131.36 29.1398 131.244 28.6598L129.992 29.4598C130.372 29.8598 130.736 29.9078 131.024 29.7198H131.04Z" fill="#E0E0E0"/>
<path d="M188.88 180.176C188.88 180.236 149.084 180.28 100.004 180.28C50.924 180.28 11.12 180.236 11.12 180.176C11.12 180.116 50.908 180.072 100.004 180.072C149.1 180.072 188.88 180.12 188.88 180.176Z" fill="#263238"/>
<path d="M34.904 167.897C35.356 166.149 34.208 164.389 32.904 163.121C31.6 161.853 30.08 160.721 29.412 159.037C28.328 156.317 29.784 152.797 27.936 150.529C26.848 149.193 24.896 148.745 23.936 147.329C23.428 146.581 23.264 145.661 23.064 144.781C22.0427 140.26 19.8238 136.097 16.64 132.729C16.4276 136.752 17.3007 140.758 19.168 144.329C19.916 145.753 20.836 147.129 21.084 148.729C21.484 151.313 20.044 153.977 20.684 156.513C21.408 159.417 24.684 161.361 24.824 164.349C24.956 166.877 22.752 169.093 22.916 171.617C23.0502 172.69 23.4352 173.716 24.04 174.613C26 177.877 28.86 180.113 33.2 180.041L38.528 180.225L34.904 167.897Z" fill="#F68410"/>
<g opacity="0.3">
<path opacity="0.3" d="M34.904 167.897C35.356 166.149 34.208 164.389 32.904 163.121C31.6 161.853 30.08 160.721 29.412 159.037C28.328 156.317 29.784 152.797 27.936 150.529C26.848 149.193 24.896 148.745 23.936 147.329C23.428 146.581 23.264 145.661 23.064 144.781C22.0427 140.26 19.8238 136.097 16.64 132.729C16.4276 136.752 17.3007 140.758 19.168 144.329C19.916 145.753 20.836 147.129 21.084 148.729C21.484 151.313 20.044 153.977 20.684 156.513C21.408 159.417 24.684 161.361 24.824 164.349C24.956 166.877 22.752 169.093 22.916 171.617C23.0502 172.69 23.4352 173.716 24.04 174.613C26 177.877 28.86 180.113 33.2 180.041L38.528 180.225L34.904 167.897Z" fill="#FFDF35"/>
</g>
<path d="M39.6001 180.19C40.0874 180.266 40.5841 180.257 41.0681 180.162C41.6567 180.072 42.2354 179.926 42.7961 179.726C43.5695 179.457 44.2927 179.061 44.9361 178.554C45.3222 178.243 45.6246 177.84 45.8161 177.382C45.9782 176.864 46.0618 176.325 46.0641 175.782C46.0761 175.206 46.1188 174.63 46.1921 174.058C46.2944 173.451 46.5146 172.869 46.8401 172.346C47.4681 171.242 48.5121 170.198 48.8401 168.698C49.1681 167.198 48.9441 165.63 48.6961 164.03C48.4481 162.43 48.2081 160.69 48.8201 159.026C49.4321 157.362 50.5601 155.854 51.1441 153.978C51.7281 152.102 51.4561 150.038 51.5761 148.026C51.6156 147.005 51.8519 146.001 52.2721 145.07C52.7041 144.126 53.3001 143.238 53.7681 142.242C54.7121 140.242 54.8801 137.962 55.1401 135.734C55.2654 134.609 55.3988 133.474 55.5401 132.33C55.6206 131.177 55.819 130.035 56.1321 128.922C56.4917 127.799 56.9178 126.699 57.4081 125.626C57.6599 125.069 57.8659 124.493 58.0241 123.902C58.1145 123.295 58.172 122.683 58.1961 122.07C58.2552 120.839 58.2084 119.605 58.0561 118.382C57.9121 117.154 57.6881 115.934 57.5561 114.702L57.5321 114.49L57.5041 114.246L57.2881 114.354C56.1588 114.93 55.1774 115.758 54.4201 116.774C53.6813 117.768 53.0874 118.861 52.6561 120.022C51.7681 122.31 51.4561 124.71 51.0001 126.998C50.5441 129.286 50.0001 131.546 48.8001 133.45C48.2201 134.398 47.5121 135.262 46.8921 136.19C46.2331 137.092 45.7823 138.129 45.5721 139.226C45.2561 141.478 46.4961 143.458 46.2401 145.454C46.1175 146.434 45.786 147.377 45.2681 148.218C44.7841 149.07 44.2161 149.858 43.6681 150.654C43.1173 151.428 42.638 152.25 42.2361 153.11C41.8611 153.955 41.6403 154.86 41.5841 155.782C41.4521 157.578 41.7081 159.282 41.5841 160.89C41.437 162.422 40.9913 163.91 40.2721 165.27C39.6241 166.578 38.9081 167.766 38.3081 168.914C38.0081 169.49 37.7281 170.05 37.5081 170.61C37.2951 171.155 37.1383 171.721 37.0401 172.298C36.883 173.304 36.8709 174.328 37.0041 175.338C37.1461 176.743 37.675 178.08 38.5321 179.202C38.6618 179.369 38.805 179.526 38.9601 179.67C39.0673 179.78 39.1852 179.879 39.3121 179.966C39.5081 180.114 39.6161 180.178 39.6161 180.178C39.234 179.879 38.8878 179.537 38.5841 179.158C37.7618 178.03 37.2613 176.7 37.1361 175.31C37.0185 174.312 37.0414 173.302 37.2041 172.31C37.3067 171.748 37.4648 171.197 37.6761 170.666C37.9041 170.118 38.1841 169.558 38.4761 168.99C39.0841 167.854 39.8081 166.674 40.4761 165.354C41.2197 163.973 41.6819 162.459 41.8361 160.898C41.9761 159.254 41.7321 157.546 41.8681 155.79C41.9253 154.899 42.142 154.025 42.5081 153.21C42.9051 152.368 43.3791 151.565 43.9241 150.81C44.4601 150.01 45.0361 149.23 45.5241 148.358C46.0657 147.483 46.4135 146.503 46.5441 145.482C46.8001 143.354 45.5681 141.362 45.8881 139.27C46.0923 138.219 46.5282 137.227 47.1641 136.366C47.7721 135.454 48.4841 134.59 49.0841 133.618C50.2841 131.658 50.8801 129.366 51.3241 127.066C51.7681 124.766 52.0961 122.39 52.9721 120.146C53.3911 119.017 53.9689 117.953 54.6881 116.986C55.4125 116.011 56.3531 115.217 57.4361 114.666L57.1881 114.53L57.2121 114.746C57.3481 115.99 57.5681 117.214 57.7121 118.426C57.8623 119.631 57.9091 120.846 57.8521 122.058C57.8307 122.654 57.7759 123.248 57.6881 123.838C57.536 124.407 57.3366 124.962 57.0921 125.498C56.5996 126.583 56.1709 127.695 55.8081 128.83C55.4879 129.961 55.2868 131.122 55.2081 132.294C55.0801 133.443 54.9548 134.579 54.8321 135.702C54.5761 137.938 54.4081 140.178 53.5001 142.102C53.0481 143.066 52.4521 143.958 52.0081 144.934C51.5744 145.9 51.3312 146.94 51.2921 147.998C51.1761 150.054 51.4441 152.066 50.8921 153.886C50.3401 155.706 49.1801 157.21 48.5921 158.93C48.0041 160.65 48.2241 162.466 48.4761 164.058C48.7281 165.65 48.9921 167.222 48.6481 168.642C48.3041 170.062 47.3281 171.106 46.6881 172.242C46.3533 172.786 46.1291 173.391 46.0281 174.022C45.9567 174.601 45.9193 175.183 45.9161 175.766C45.9154 176.29 45.8386 176.812 45.6881 177.314C45.5099 177.751 45.2253 178.136 44.8601 178.434C44.2339 178.938 43.5301 179.336 42.7761 179.614C42.2225 179.821 41.6507 179.975 41.0681 180.074C40.7103 180.139 40.3478 180.175 39.9841 180.182C39.7441 180.186 39.6001 180.19 39.6001 180.19Z" fill="#263238"/>
<path d="M56.448 117.428C56.4248 117.48 56.4074 117.535 56.396 117.592C56.364 117.72 56.328 117.876 56.28 118.072C56.176 118.492 56.048 119.124 55.848 119.916C55.648 120.708 55.156 121.596 54.744 122.696C54.2575 123.933 53.8343 125.195 53.476 126.476C53.076 127.896 52.708 129.476 52.332 131.164C51.956 132.852 51.556 134.66 50.628 136.364C50.192 137.228 49.7 138.104 49.308 139.064C48.9244 140.046 48.6677 141.073 48.544 142.12C48.2751 144.287 47.8905 146.438 47.392 148.564C46.324 152.932 45.308 157.088 44.38 160.876L41.856 170.916C41.156 173.756 40.584 176.064 40.184 177.688C40 178.488 39.852 179.088 39.744 179.536C39.704 179.732 39.668 179.892 39.64 180.02C39.624 180.073 39.616 180.128 39.616 180.184C39.6414 180.134 39.6615 180.082 39.676 180.028L39.812 179.552C39.936 179.108 40.1 178.496 40.312 177.724C40.74 176.1 41.348 173.804 42.092 170.972L44.688 160.952C45.624 157.164 46.648 153.008 47.728 148.64C48.225 146.504 48.6082 144.344 48.876 142.168C48.9935 141.152 49.2367 140.155 49.6 139.2C49.976 138.268 50.46 137.396 50.896 136.52C51.836 134.784 52.224 132.92 52.6 131.24C52.976 129.56 53.308 127.972 53.696 126.552C54.084 125.132 54.496 123.872 54.896 122.78C55.296 121.688 55.756 120.78 55.952 119.96C56.148 119.14 56.24 118.524 56.324 118.096C56.356 117.9 56.384 117.74 56.408 117.612C56.4285 117.552 56.4419 117.49 56.448 117.428Z" fill="#263238"/>
<path d="M40.5561 180.225C44.0361 178.157 45.0361 172.037 43.5841 168.257C42.1321 164.477 39.5841 161.025 39.1841 156.997C38.8801 153.901 39.8961 150.721 39.1841 147.693C38.2161 143.601 34.2281 140.445 34.2761 136.245C34.3001 133.889 35.6401 131.673 35.5361 129.317C35.4041 126.433 33.1881 124.141 31.8161 121.597C29.7121 117.705 29.5761 113.101 28.8561 108.737C28.1361 104.373 26.4561 99.6971 22.6081 97.5371C22.0361 101.241 21.0601 103.781 21.3681 108.801C21.4761 110.605 23.5721 114.053 23.8561 118.001C24.0281 120.365 24.1441 122.729 24.2881 125.093C24.4281 127.393 24.5761 129.733 25.4041 131.893C26.0361 133.545 27.0481 135.041 27.5201 136.745C28.4001 139.945 27.2401 143.417 27.9521 146.661C28.5561 149.409 30.4601 151.777 30.8481 154.565C31.3961 158.481 28.8481 162.565 30.1561 166.285C30.8001 168.141 32.3281 169.629 32.7601 171.541C33.0961 173.029 32.7281 174.601 33.0321 176.093C33.5241 178.493 38.1081 180.365 40.5561 180.213" fill="#009B73"/>
<path d="M23.564 101.229C23.5578 101.299 23.5578 101.37 23.564 101.441C23.564 101.597 23.612 101.797 23.644 102.049C23.724 102.585 23.812 103.369 23.992 104.385C24.172 105.401 24.716 106.557 25.136 107.945C25.556 109.333 26.02 110.925 26.412 112.709C26.804 114.493 27.14 116.473 27.488 118.597C27.836 120.721 28.22 123.041 29.272 125.257C29.76 126.369 30.308 127.481 30.72 128.669C31.1216 129.886 31.3675 131.149 31.452 132.429C31.6475 135.146 31.9893 137.852 32.476 140.533C33.54 146.025 34.556 151.253 35.48 156.017C36.404 160.781 37.332 165.029 38.068 168.625C38.804 172.221 39.42 175.093 39.844 177.121C40.056 178.105 40.224 178.877 40.344 179.429C40.4 179.677 40.448 179.873 40.484 180.025C40.4956 180.093 40.5143 180.16 40.54 180.225C40.5426 180.154 40.5345 180.084 40.516 180.017C40.488 179.865 40.456 179.665 40.412 179.413C40.308 178.861 40.16 178.085 39.976 177.093C39.576 175.061 39.008 172.157 38.308 168.577C37.608 164.997 36.736 160.701 35.788 155.953L32.812 140.477C32.3323 137.804 31.9958 135.109 31.804 132.401C31.7136 131.095 31.4583 129.806 31.044 128.565C30.62 127.365 30.068 126.237 29.576 125.133C28.528 122.953 28.16 120.673 27.784 118.553C27.408 116.433 27.076 114.449 26.664 112.661C26.252 110.873 25.796 109.273 25.332 107.889C24.868 106.505 24.348 105.357 24.132 104.361C23.916 103.365 23.82 102.569 23.732 102.041C23.684 101.793 23.648 101.593 23.62 101.437C23.6108 101.365 23.592 101.295 23.564 101.229Z" fill="#263238"/>
<path d="M175.2 156.401C175.741 156.659 176.224 157.023 176.62 157.472C177.017 157.921 177.319 158.445 177.508 159.013C177.878 160.154 177.984 161.365 177.816 162.553C177.556 164.853 176.248 167.169 174.844 169.005C172.908 167.317 172.444 164.373 172.332 162.865C172.124 160.465 173.192 156.045 175.2 156.401Z" fill="#FFDF35"/>
<path d="M177.088 172.801C176.959 172.146 177.004 171.469 177.22 170.837C177.435 170.205 177.813 169.641 178.316 169.201C178.828 168.771 179.42 168.446 180.059 168.246C180.698 168.046 181.37 167.975 182.036 168.037C182.345 168.034 182.651 168.098 182.932 168.224C183.214 168.35 183.465 168.537 183.668 168.77C183.82 169.017 183.902 169.3 183.907 169.59C183.912 169.88 183.839 170.165 183.696 170.417C183.402 170.918 182.982 171.332 182.476 171.617C180.8 172.669 178.984 173.381 177.088 172.817" fill="#FFDF35"/>
<path d="M174.608 179.832C174.617 179.673 174.64 179.515 174.676 179.36C174.736 179.028 174.816 178.6 174.912 178.084C175.126 176.661 175.57 175.281 176.228 174C176.909 172.722 177.918 171.65 179.152 170.892C179.529 170.668 179.932 170.49 180.352 170.364C180.465 170.328 180.58 170.299 180.696 170.276C180.776 170.276 180.82 170.252 180.82 170.276C179.863 170.585 178.977 171.082 178.215 171.738C177.452 172.394 176.828 173.196 176.38 174.096C175.736 175.356 175.283 176.704 175.036 178.096C174.916 178.632 174.82 179.064 174.748 179.36C174.718 179.522 174.671 179.68 174.608 179.832Z" fill="#263238"/>
<path d="M174.68 159.838C174.693 159.907 174.701 159.976 174.704 160.046C174.704 160.198 174.724 160.394 174.74 160.638C174.768 161.15 174.796 161.894 174.828 162.818C174.884 164.658 174.932 167.218 174.92 170.018C174.908 172.818 174.84 175.374 174.764 177.218C174.728 178.138 174.688 178.882 174.656 179.398C174.656 179.638 174.628 179.834 174.616 179.99C174.615 180.059 174.607 180.127 174.592 180.194C174.586 180.125 174.586 180.055 174.592 179.986C174.592 179.834 174.592 179.638 174.592 179.394C174.592 178.858 174.624 178.118 174.644 177.214C174.692 175.374 174.74 172.814 174.752 170.014C174.764 167.214 174.752 164.662 174.708 162.814C174.708 161.91 174.684 161.17 174.672 160.634V160.042C174.669 159.974 174.672 159.906 174.68 159.838Z" fill="#263238"/>
<path d="M173.74 174.185C173.507 172.792 172.945 171.476 172.101 170.344C171.257 169.212 170.156 168.298 168.888 167.677C168.244 167.365 167.396 167.165 166.868 167.645C166.34 168.125 166.468 168.993 166.712 169.645C167.282 171.031 168.249 172.218 169.491 173.057C170.734 173.895 172.197 174.348 173.696 174.357" fill="#FFDF35"/>
<path d="M169.2 169.857C169.339 169.902 169.473 169.961 169.6 170.033C169.759 170.107 169.914 170.19 170.064 170.281C170.268 170.395 170.465 170.519 170.656 170.653C170.89 170.811 171.116 170.98 171.332 171.161C171.583 171.366 171.823 171.584 172.052 171.813C172.571 172.346 173.029 172.935 173.416 173.569C173.793 174.211 174.095 174.895 174.316 175.605C174.409 175.916 174.485 176.231 174.544 176.549C174.597 176.827 174.636 177.108 174.66 177.389C174.684 177.621 174.694 177.853 174.692 178.085C174.703 178.26 174.703 178.435 174.692 178.609C174.691 178.76 174.675 178.91 174.644 179.057C174.604 179.057 174.672 178.417 174.56 177.401C174.529 177.125 174.484 176.85 174.424 176.577C174.362 176.265 174.282 175.957 174.184 175.653C173.96 174.956 173.66 174.285 173.288 173.653C172.908 173.028 172.461 172.446 171.956 171.917C171.734 171.688 171.5 171.471 171.256 171.265C171.048 171.08 170.831 170.907 170.604 170.745C169.768 170.153 169.2 169.889 169.2 169.857Z" fill="#263238"/>
<path d="M146.864 92.4836C146.864 92.4836 128.188 79.2476 125.824 77.9476C123.572 76.7076 116.424 75.8076 115.784 75.6516L102.984 72.8516L83.4318 73.4356L77.8318 76.8076L63.6398 83.3596C59.7718 85.1413 56.723 88.3231 55.1078 92.2636L46.1478 114.148L68.3998 120.724L69.0918 143.808L63.8478 180.176H128.92L125.644 110.476L132.42 111.968L146.864 92.4836Z" fill="#53626A"/>
<path d="M68.8 111.428C68.8 111.428 68.564 111.6 68.112 111.864C67.475 112.251 66.7684 112.509 66.032 112.624C64.9293 112.701 63.8229 112.54 62.788 112.152C61.5118 111.727 60.2751 111.192 59.092 110.552C57.824 109.892 56.636 109.224 55.524 108.688C54.5433 108.198 53.5238 107.79 52.476 107.468C51.7683 107.255 51.0426 107.108 50.308 107.028C50.048 107 49.848 106.988 49.708 106.984H49.5C49.767 106.974 50.0343 106.984 50.3 107.012C51.0382 107.072 51.7685 107.206 52.48 107.412C53.5337 107.724 54.5587 108.126 55.544 108.612C56.664 109.148 57.852 109.812 59.12 110.476C60.2997 111.112 61.5307 111.647 62.8 112.076C63.8206 112.461 64.9111 112.626 66 112.56C66.7298 112.453 67.4321 112.206 68.068 111.832C68.296 111.704 68.468 111.6 68.588 111.528C68.708 111.456 68.8 111.428 68.8 111.428Z" fill="white"/>
<path d="M67.8479 100.644H67.6999L67.2759 100.624C66.9079 100.604 66.3759 100.564 65.7199 100.5C62.3029 100.156 58.943 99.3823 55.7199 98.1965C55.0999 97.9685 54.6039 97.7725 54.2639 97.6285L53.8639 97.4605L53.7279 97.3965L53.8719 97.4445L54.2719 97.5965C54.6159 97.7325 55.1159 97.9205 55.7359 98.1405C58.9675 99.2966 62.3239 100.069 65.7359 100.44C66.3879 100.512 66.9359 100.564 67.2839 100.592L67.7079 100.628L67.8479 100.644Z" fill="white"/>
<path d="M81.8358 77.9473C81.8358 77.9473 81.6678 78.2193 81.3158 78.6753C80.8139 79.3156 80.2378 79.8943 79.5998 80.3993C78.6443 81.1395 77.6035 81.7626 76.4998 82.2553C75.1493 82.8593 73.7579 83.3672 72.3358 83.7753C70.8278 84.2233 69.3878 84.6193 68.0958 85.0433C66.947 85.4069 65.8267 85.8548 64.7438 86.3833C64.0141 86.7386 63.3157 87.1548 62.6558 87.6273C62.4158 87.7873 62.2558 87.9353 62.1278 88.0273C61.9998 88.1193 61.9398 88.1633 61.9398 88.1633C61.9398 88.1633 62.1758 87.9473 62.6358 87.5993C63.2918 87.1171 63.9877 86.6916 64.7158 86.3273C65.7995 85.793 66.9212 85.3398 68.0718 84.9713C69.3638 84.5393 70.8078 84.1433 72.3118 83.6953C73.7303 83.2893 75.119 82.7854 76.4678 82.1873C77.567 81.698 78.6059 81.0833 79.5638 80.3553C80.2089 79.8611 80.7954 79.2947 81.3118 78.6673C81.4998 78.4513 81.6158 78.2673 81.7118 78.1433C81.8078 78.0193 81.8358 77.9473 81.8358 77.9473Z" fill="white"/>
<path d="M121.856 80.9275C121.856 80.9275 121.796 80.8995 121.684 80.8355C121.572 80.7715 121.42 80.6755 121.204 80.5675C120.609 80.2498 119.988 79.9822 119.348 79.7675C118.397 79.4483 117.423 79.1983 116.436 79.0195C115.324 78.8075 114.088 78.6435 112.792 78.4595L106.16 77.5195L104.16 77.2235L103.612 77.1395L103.424 77.1035L103.616 77.1235L104.164 77.1915L106.164 77.4595L112.8 78.3755C114.096 78.5555 115.332 78.7235 116.448 78.9395C117.437 79.1213 118.41 79.378 119.36 79.7075C120.002 79.9293 120.623 80.2077 121.216 80.5395C121.64 80.7755 121.856 80.9275 121.856 80.9275Z" fill="white"/>
<path d="M112.8 85.3438C112.8 85.3438 112.652 85.4158 112.368 85.5398C112.084 85.6638 111.66 85.8438 111.112 86.0638C110.012 86.4998 108.408 87.1038 106.376 87.6958C103.998 88.4006 101.573 88.9353 99.1198 89.2958C96.3478 89.7198 93.2558 89.7197 90.0358 89.6118C86.8158 89.5037 83.7318 89.3678 80.9398 89.5438C78.4666 89.6637 76.02 90.1102 73.6638 90.8717C72.0765 91.394 70.5689 92.1329 69.1838 93.0678C68.7078 93.4118 68.3358 93.6837 68.1038 93.8917C67.8718 94.0997 67.7358 94.1917 67.7358 94.1917C67.7358 94.1917 67.8558 94.0798 68.0918 93.8798C68.3278 93.6797 68.6878 93.3918 69.1678 93.0398C70.5478 92.0916 72.0546 91.3428 73.6438 90.8157C76.004 90.0451 78.4562 89.5918 80.9358 89.4677C83.7358 89.2877 86.8118 89.4238 90.0358 89.5278C93.2598 89.6318 96.3438 89.6398 99.1118 89.2198C101.563 88.8583 103.985 88.3236 106.36 87.6198C108.388 87.0358 109.996 86.4398 111.1 86.0198C111.652 85.8038 112.076 85.6198 112.36 85.5078L112.8 85.3438Z" fill="white"/>
<path d="M118.928 89.2548C118.906 89.2708 118.882 89.283 118.856 89.2908L118.644 89.3668C118.46 89.4348 118.192 89.5228 117.844 89.6188C116.968 89.8689 116.063 90.0034 115.152 90.0188C114.24 90.0197 113.332 89.8849 112.46 89.6188C112.124 89.5188 111.856 89.4268 111.66 89.3548L111.452 89.2708L111.38 89.2348H111.46L111.672 89.3028C111.856 89.3668 112.124 89.4508 112.472 89.5428C113.343 89.7857 114.244 89.9068 115.148 89.9028C116.054 89.8768 116.954 89.7425 117.828 89.5028C118.16 89.4108 118.432 89.3348 118.628 89.2748L118.84 89.2148L118.928 89.2548Z" fill="white"/>
<path d="M106.308 100.574C106.308 100.574 104.388 100.974 101.256 101.446C99.6879 101.682 97.8159 101.914 95.7319 102.122C93.6479 102.33 91.3319 102.486 88.9319 102.578C86.5319 102.67 84.2119 102.662 82.1319 102.618C80.0519 102.574 78.1319 102.462 76.5719 102.342C73.4119 102.102 71.4719 101.838 71.4719 101.838L71.8239 101.866L72.8399 101.966C73.7199 102.058 74.9959 102.17 76.5759 102.282C78.1559 102.394 80.0399 102.486 82.1319 102.538C84.2239 102.59 86.5319 102.578 88.9319 102.494C91.3319 102.41 93.6399 102.238 95.7319 102.046C97.8239 101.854 99.6879 101.614 101.256 101.386C102.824 101.158 104.088 100.958 104.96 100.802L105.964 100.626L106.308 100.574Z" fill="white"/>
<path d="M121.972 99.4407H121.828H121.428C121.064 99.4407 120.54 99.4407 119.892 99.4407C118.596 99.4407 116.804 99.3887 114.836 99.2207C112.868 99.0527 111.088 98.7847 109.816 98.5527C109.176 98.4407 108.664 98.3367 108.308 98.2607L107.908 98.1727L107.768 98.1367H107.912L108.312 98.2087L109.82 98.4767C111.096 98.6927 112.868 98.9487 114.836 99.1167C116.804 99.2847 118.596 99.3407 119.888 99.3607H121.424H121.824L121.972 99.4407Z" fill="white"/>
<path d="M102 115.928C102 115.928 101.884 115.952 101.672 115.98L100.728 116.112C100.328 116.172 99.8158 116.24 99.2278 116.28C98.6398 116.32 97.9758 116.4 97.2278 116.412C96.4798 116.424 95.6798 116.48 94.8278 116.464C94.3918 116.464 93.9438 116.464 93.4798 116.464L92.0518 116.416C90.0958 116.34 87.9518 116.192 85.7038 116.016C83.4558 115.84 81.3038 115.616 79.3638 115.5C77.4238 115.384 75.6558 115.296 74.1638 115.32H73.1118L72.1718 115.368C71.5878 115.392 71.0798 115.42 70.6718 115.472L69.7238 115.564L69.3918 115.592C69.3918 115.592 69.5078 115.572 69.7238 115.548L70.6678 115.436C71.0678 115.38 71.5838 115.352 72.1718 115.32L73.1118 115.268H74.1638C75.6438 115.24 77.4078 115.312 79.3638 115.432C81.3198 115.552 83.4558 115.752 85.7038 115.94C87.9518 116.128 90.1038 116.284 92.0478 116.368L93.4718 116.42C93.9358 116.42 94.3838 116.42 94.8198 116.42C95.6878 116.42 96.4958 116.4 97.2198 116.38C97.9438 116.36 98.6238 116.292 99.2198 116.256C99.8158 116.22 100.308 116.16 100.72 116.104L101.664 115.988L102 115.928Z" fill="white"/>
<path d="M125.54 111.231L125.364 111.259L124.852 111.312C124.412 111.36 123.768 111.412 122.976 111.468C121.376 111.576 119.188 111.652 116.76 111.592C114.332 111.532 112.136 111.332 110.556 111.139C109.756 111.043 109.128 110.955 108.688 110.887L108.184 110.807L108.008 110.771L108.184 110.791L108.692 110.855C109.132 110.915 109.772 110.995 110.564 111.083C112.144 111.259 114.332 111.444 116.76 111.508C119.188 111.572 121.384 111.508 122.972 111.408C123.772 111.363 124.408 111.316 124.852 111.28L125.36 111.24L125.54 111.231Z" fill="white"/>
<path d="M125.824 125.766L125.24 125.734C124.84 125.734 124.292 125.654 123.564 125.634C122.108 125.558 120 125.542 117.396 125.67C114.792 125.798 111.708 126.106 108.292 126.558C104.876 127.01 101.132 127.598 97.1999 128.094C93.4863 128.595 89.7466 128.88 85.9999 128.946C82.945 128.998 79.8915 128.778 76.8759 128.286C74.8437 127.951 72.8433 127.445 70.8959 126.774C70.5479 126.666 70.2479 126.55 69.9879 126.446L69.3239 126.182C68.9679 126.042 68.7839 125.962 68.7839 125.962L69.3319 126.166L69.9959 126.422C70.2559 126.526 70.5599 126.638 70.9079 126.746C72.8569 127.404 74.8571 127.899 76.8879 128.226C79.9005 128.708 82.9496 128.923 85.9999 128.87C89.7469 128.795 93.4864 128.504 97.1999 127.998C101.14 127.49 104.884 126.906 108.304 126.466C111.724 126.026 114.8 125.73 117.396 125.598C119.451 125.493 121.509 125.493 123.564 125.598C125.02 125.682 125.824 125.766 125.824 125.766Z" fill="white"/>
<path d="M103.828 140.703C103.828 140.703 101.904 141.031 98.7679 141.367C97.2039 141.535 95.3319 141.687 93.2519 141.807C91.1719 141.927 88.8759 141.983 86.4719 141.971C84.0679 141.959 81.7759 141.847 79.6959 141.711C77.6159 141.575 75.7479 141.383 74.1839 141.191C71.0519 140.791 69.1359 140.455 69.1359 140.455L69.4879 140.499L70.4919 140.647C70.9239 140.715 71.4599 140.791 72.0919 140.867C72.7239 140.943 73.4199 141.051 74.1999 141.131C75.7679 141.315 77.6359 141.491 79.7119 141.635C81.7879 141.779 84.0799 141.863 86.4839 141.887C88.8879 141.911 91.1799 141.835 93.2599 141.731C95.3399 141.627 97.2079 141.471 98.7759 141.307C99.5759 141.235 100.268 141.143 100.888 141.075C101.508 141.007 102.044 140.935 102.488 140.875L103.492 140.743L103.828 140.703Z" fill="white"/>
<path d="M125.6 137.838C125.6 137.838 125.524 137.866 125.384 137.906L124.772 138.094C124.236 138.254 123.46 138.474 122.496 138.734C120.572 139.25 117.888 139.89 114.896 140.438C111.904 140.986 109.164 141.342 107.18 141.542C106.188 141.642 105.384 141.71 104.828 141.75L104.188 141.794H103.964L104.184 141.766L104.824 141.706C105.38 141.658 106.184 141.578 107.172 141.47C109.172 141.254 111.888 140.894 114.88 140.346C117.872 139.798 120.552 139.166 122.48 138.662C123.444 138.414 124.22 138.202 124.756 138.05L125.376 137.878L125.6 137.838Z" fill="white"/>
<path d="M88.5679 157.378C87.537 157.538 86.4981 157.641 85.4559 157.686C84.4919 157.738 83.3399 157.742 82.0599 157.686C79.286 157.554 76.5375 157.093 73.8719 156.314C72.6439 155.95 71.5559 155.57 70.6719 155.206C69.7019 154.821 68.7527 154.386 67.8279 153.902L68.0279 153.99L68.5919 154.25C68.8359 154.366 69.1359 154.506 69.4919 154.65C69.8479 154.794 70.2399 154.978 70.6919 155.146C71.5879 155.506 72.6919 155.878 73.8919 156.238C75.2244 156.615 76.5756 156.922 77.9399 157.158C79.3063 157.374 80.6827 157.521 82.0639 157.598C83.3399 157.654 84.4879 157.658 85.4519 157.598C85.9359 157.598 86.3719 157.546 86.7559 157.522C87.1399 157.498 87.4639 157.462 87.7359 157.434L88.3519 157.37L88.5679 157.378Z" fill="white"/>
<path d="M127.048 156.359L126.648 156.431L125.504 156.615C124.512 156.771 123.072 156.991 121.292 157.243C117.732 157.751 112.8 158.383 107.34 158.927C101.88 159.471 96.9158 159.815 93.3398 160.015C91.5438 160.115 90.0878 160.187 89.0838 160.227L87.9278 160.271H87.5278L87.9278 160.247L89.0838 160.187L93.3358 159.951C96.9358 159.735 101.88 159.375 107.336 158.835C112.792 158.295 117.736 157.671 121.288 157.179L125.504 156.575L126.648 156.407L127.048 156.359Z" fill="white"/>
<path d="M129.144 171.09C129.144 171.09 128.272 171.274 126.676 171.534C125.08 171.794 122.768 172.118 119.876 172.358C116.503 172.633 113.118 172.716 109.736 172.606C105.916 172.482 101.736 172.054 97.3639 171.518C92.9919 170.982 88.8239 170.442 85.0199 170.146C81.6508 169.855 78.2666 169.779 74.8879 169.918C72.6064 170.024 70.3346 170.283 68.0879 170.694C67.2879 170.846 66.6799 170.974 66.2679 171.074L65.6359 171.218C65.6359 171.218 65.8519 171.158 66.2639 171.058C66.6759 170.958 67.2879 170.822 68.0799 170.658C70.3252 170.233 72.5974 169.966 74.8799 169.858C78.2594 169.706 81.6452 169.774 85.0159 170.062C88.8279 170.358 92.9919 170.898 97.3639 171.434C101.736 171.97 105.916 172.398 109.732 172.522C113.111 172.637 116.494 172.561 119.864 172.294C122.74 172.062 125.064 171.746 126.664 171.494C127.464 171.366 128.08 171.266 128.5 171.19L129.144 171.09Z" fill="white"/>
<path d="M140.88 88.9043C140.88 88.9043 140.764 89.2203 140.504 89.7723C140.129 90.5483 139.693 91.2933 139.2 92.0003C138.466 93.0454 137.665 94.0409 136.8 94.9803C135.832 96.0523 134.72 97.1803 133.6 98.4043C132.53 99.5429 131.554 100.765 130.68 102.06C129.968 103.119 129.391 104.262 128.964 105.464C128.673 106.283 128.483 107.135 128.4 108C128.36 108.3 128.372 108.54 128.36 108.7C128.348 108.86 128.36 108.944 128.36 108.944C128.349 108.628 128.357 108.312 128.384 107.996C128.453 107.134 128.631 106.285 128.916 105.468C129.338 104.259 129.912 103.109 130.624 102.044C131.498 100.742 132.476 99.5128 133.548 98.3683C134.676 97.1483 135.792 96.0203 136.748 94.9523C137.611 94.0168 138.412 93.0267 139.148 91.9883C139.646 91.288 140.089 90.5497 140.472 89.7803C140.616 89.5083 140.7 89.2883 140.772 89.1443C140.844 89.0003 140.88 88.9043 140.88 88.9043Z" fill="white"/>
<path d="M122.456 95.7948L122.592 95.6948L122.992 95.4228C123.344 95.1948 123.836 94.8428 124.428 94.3868C125.02 93.9308 125.704 93.3628 126.428 92.6908C127.208 91.9584 127.949 91.1854 128.648 90.3748C129.338 89.5552 129.985 88.7007 130.588 87.8148C131.132 86.9908 131.592 86.2148 131.944 85.5708C132.296 84.9268 132.568 84.3708 132.744 83.9708L132.948 83.5348L133.024 83.3828C132.724 84.1398 132.382 84.8796 132 85.5988C131.652 86.2628 131.2 87.0308 130.652 87.8548C130.056 88.748 129.409 89.6067 128.716 90.4268C128.015 91.2408 127.27 92.0153 126.484 92.7468C125.752 93.4148 125.068 93.9868 124.484 94.4348C123.834 94.9259 123.157 95.38 122.456 95.7948Z" fill="white"/>
<path d="M93.8679 114.499C93.8975 114.48 93.9298 114.465 93.9639 114.455L94.2519 114.343C94.5119 114.255 94.8759 114.095 95.3439 113.879C96.6449 113.224 97.8386 112.374 98.8839 111.359C100.425 109.846 101.785 108.159 102.936 106.331C104.381 104.114 105.7 101.817 106.888 99.4513C109.019 95.138 110.889 90.7007 112.488 86.1633C113.116 84.4273 113.604 83.0113 113.948 82.0393L114.348 80.9153C114.392 80.7953 114.428 80.7033 114.456 80.6233C114.484 80.5433 114.496 80.5273 114.496 80.5273C114.494 80.5627 114.487 80.5977 114.476 80.6313C114.452 80.7113 114.42 80.8073 114.384 80.9273C114.3 81.2033 114.18 81.5833 114.024 82.0633C113.708 83.0473 113.224 84.4633 112.624 86.2113C111.061 90.7715 109.202 95.2249 107.06 99.5433C105.87 101.915 104.544 104.217 103.088 106.435C101.92 108.267 100.54 109.955 98.9759 111.463C97.916 112.478 96.7006 113.317 95.3759 113.947C95.0154 114.114 94.6454 114.26 94.2679 114.383L93.9719 114.475C93.9387 114.489 93.9036 114.497 93.8679 114.499Z" fill="#455A64"/>
<path d="M93.2 122.963C93.2659 122.899 93.3383 122.843 93.4159 122.795L94.064 122.351C94.62 121.951 95.4239 121.387 96.3919 120.647C98.3319 119.171 100.88 116.967 103.616 114.451C104.992 113.195 106.308 112.007 107.444 110.871C108.46 109.872 109.403 108.803 110.268 107.671C110.848 106.905 111.364 106.093 111.812 105.243C111.98 104.947 112.084 104.703 112.164 104.543C112.202 104.46 112.246 104.379 112.296 104.303C112.276 104.393 112.245 104.48 112.204 104.563C112.132 104.727 112.04 104.963 111.88 105.279C111.458 106.149 110.956 106.978 110.38 107.755C109.531 108.908 108.595 109.993 107.58 111.003C106.444 112.155 105.132 113.347 103.756 114.603C101.436 116.778 99.0079 118.834 96.4799 120.763C95.4999 121.495 94.684 122.047 94.108 122.419C93.824 122.607 93.596 122.739 93.444 122.819C93.366 122.872 93.2844 122.92 93.2 122.963Z" fill="#455A64"/>
<path d="M82.3999 165.728L82.4479 165.636C82.4919 165.572 82.5439 165.488 82.6079 165.384C82.7479 165.16 82.9639 164.84 83.2519 164.432C83.8319 163.632 84.7239 162.484 85.8999 161.148C88.2719 158.484 91.5919 154.856 95.2519 150.836L104.656 140.576L107.524 137.48L108.324 136.644L108.532 136.432C108.58 136.384 108.604 136.36 108.608 136.364C108.612 136.368 108.588 136.392 108.548 136.444L108.352 136.672L107.6 137.532C106.92 138.284 105.96 139.356 104.78 140.668L95.4159 150.972L85.9999 161.24C84.7999 162.564 83.9039 163.684 83.3079 164.48C83.0079 164.88 82.7839 165.192 82.6319 165.404L82.4599 165.648C82.4442 165.677 82.4239 165.704 82.3999 165.728Z" fill="#455A64"/>
<path d="M119.744 93.8361C119.679 93.6376 119.63 93.4343 119.596 93.2281C119.552 93.0321 119.504 92.7881 119.468 92.5041C119.432 92.2201 119.372 91.8961 119.356 91.5361C119.34 91.1761 119.296 90.7801 119.3 90.3361C119.304 89.8921 119.3 89.4561 119.332 88.9761C119.471 86.9032 119.977 84.8716 120.828 82.9761C121.032 82.5441 121.228 82.1321 121.436 81.7761C121.644 81.4201 121.836 81.0641 122.04 80.7601C122.244 80.4561 122.44 80.1881 122.592 79.9601C122.732 79.7588 122.883 79.5651 123.044 79.3801C123.165 79.2144 123.299 79.0579 123.444 78.9121C123.341 79.0941 123.221 79.2668 123.088 79.4281C122.968 79.5881 122.82 79.7841 122.668 80.0241C122.516 80.2641 122.32 80.5241 122.144 80.8241C121.968 81.1241 121.744 81.4681 121.564 81.8441C121.384 82.2201 121.164 82.6441 120.98 83.0441C120.154 84.9302 119.653 86.9427 119.5 88.9961C119.476 89.4681 119.44 89.9161 119.448 90.3361C119.456 90.7561 119.448 91.1361 119.48 91.5081C119.512 91.8801 119.536 92.1881 119.564 92.4721C119.592 92.7561 119.624 93.0001 119.656 93.2001C119.706 93.4088 119.735 93.6218 119.744 93.8361Z" fill="#455A64"/>
<path d="M125.564 108.188C125.516 108.188 124.796 106.62 123.964 104.636C123.132 102.652 122.492 101.036 122.54 101.004C123.133 102.16 123.667 103.346 124.14 104.556C124.678 105.741 125.153 106.953 125.564 108.188Z" fill="#455A64"/>
<path d="M68.3999 95.5051C68.3679 95.5251 68.0559 94.9531 67.4679 94.0851C65.9318 91.8192 63.9468 89.8928 61.6359 88.4251C60.7519 87.8651 60.1719 87.5691 60.1879 87.5371C60.3353 87.5801 60.4775 87.6391 60.6119 87.7131C60.8799 87.8371 61.2559 88.0371 61.7119 88.3051C62.896 89.0117 63.994 89.8533 64.9839 90.8131C65.9717 91.7765 66.8455 92.8502 67.5879 94.0131C67.8679 94.4611 68.0799 94.8331 68.2119 95.0971C68.2883 95.2264 68.3513 95.3631 68.3999 95.5051Z" fill="#455A64"/>
<path d="M84.1 86.0471C84.0769 85.9147 84.0769 85.7794 84.1 85.6471C84.1679 84.8953 84.4911 84.1895 85.016 83.647L85.04 83.623V83.651C85.0685 83.7068 85.09 83.766 85.104 83.8271C85.104 83.8271 85.06 83.775 85.004 83.671H85.04C84.7806 83.9776 84.5689 84.3215 84.412 84.6911C84.2456 85.1264 84.1406 85.5828 84.1 86.0471Z" fill="#455A64"/>
<path d="M89.3959 88.7991C89.3452 88.6716 89.3168 88.5363 89.3119 88.3991C89.277 88.0715 89.2851 87.7407 89.3359 87.4151C89.3869 87.0899 89.4797 86.7726 89.6119 86.4711C89.6597 86.3441 89.7272 86.2253 89.8119 86.1191C89.6315 86.5407 89.4974 86.9806 89.4119 87.4311C89.3579 87.8853 89.3525 88.3439 89.3959 88.7991Z" fill="#455A64"/>
<path d="M95.168 88.3354C95.1493 87.9624 95.0985 87.5917 95.016 87.2274C94.9043 86.8689 94.7583 86.5219 94.58 86.1914C94.6601 86.2698 94.7276 86.3602 94.78 86.4594C94.9183 86.692 95.0246 86.9423 95.096 87.2034C95.165 87.4646 95.2013 87.7333 95.2039 88.0034C95.2112 88.1153 95.199 88.2276 95.168 88.3354Z" fill="#455A64"/>
<path d="M100.216 86.1233C100.046 85.7678 99.8451 85.4278 99.6159 85.1073C99.3598 84.808 99.0788 84.531 98.7759 84.2793C98.8845 84.3236 98.9857 84.3843 99.0759 84.4593C99.3017 84.6315 99.5047 84.8318 99.6799 85.0553C99.8541 85.2801 99.9993 85.5261 100.112 85.7873C100.164 85.893 100.199 86.0064 100.216 86.1233Z" fill="#455A64"/>
<path d="M103.692 82.6942C103.564 82.2735 103.325 81.895 103 81.5982C102.663 81.3174 102.254 81.136 101.82 81.0742C101.82 81.0742 101.86 81.0742 101.928 81.0742C102.024 81.0774 102.119 81.0895 102.212 81.1102C102.524 81.1845 102.813 81.3326 103.056 81.5422C103.299 81.7507 103.487 82.0158 103.604 82.3142C103.642 82.4027 103.668 82.4953 103.684 82.5902C103.691 82.6244 103.694 82.6593 103.692 82.6942Z" fill="#455A64"/>
<path d="M105.552 76.3629C105.244 76.1169 104.884 75.9445 104.5 75.8589C104.11 75.7992 103.711 75.832 103.336 75.9549C103.697 75.7661 104.111 75.7029 104.512 75.7753C104.914 75.8477 105.279 76.0516 105.552 76.3549V76.3629Z" fill="#455A64"/>
<path d="M80.6279 81.7798C80.6357 81.6611 80.6641 81.5447 80.7119 81.4358C80.9249 80.8999 81.3279 80.4612 81.8439 80.2038C81.9485 80.147 82.0622 80.1091 82.1799 80.0918C81.8174 80.2488 81.492 80.4801 81.2246 80.7709C80.9573 81.0617 80.754 81.4054 80.6279 81.7798Z" fill="#455A64"/>
<path d="M79.3639 77.5624C79.412 77.4452 79.4797 77.337 79.5639 77.2424C79.7512 76.9984 79.9768 76.7863 80.2319 76.6144C80.487 76.4391 80.7676 76.3042 81.0639 76.2144C81.1835 76.1725 81.3092 76.1509 81.4359 76.1504C80.6044 76.364 79.8723 76.8586 79.3639 77.5504V77.5624Z" fill="#455A64"/>
<path d="M69.4199 102.147C69.4199 102.147 69.4199 102.123 69.3959 102.147C69.3791 102.188 69.367 102.231 69.3599 102.275C69.3399 102.399 69.3199 102.579 69.2959 102.815C69.2479 103.283 69.1959 103.963 69.1399 104.815C69.0239 106.499 68.8919 108.815 68.7679 111.403C68.6439 113.991 68.5479 116.307 68.4919 117.995C68.4639 118.795 68.4439 119.491 68.4279 119.995C68.4279 120.211 68.4279 120.395 68.4039 120.539C68.4099 120.602 68.4099 120.665 68.4039 120.727C68.3862 120.666 68.3794 120.603 68.3839 120.539C68.3839 120.391 68.3839 120.211 68.3839 119.995C68.3839 119.523 68.3839 118.839 68.3839 117.995C68.3839 116.307 68.4719 113.971 68.5999 111.395C68.7279 108.819 68.8799 106.491 69.0319 104.807C69.1079 103.963 69.1839 103.283 69.2559 102.807C69.2919 102.575 69.3279 102.407 69.3599 102.271C69.371 102.223 69.3899 102.177 69.4159 102.135C69.4159 102.099 69.4279 102.155 69.4199 102.147Z" fill="#263238"/>
<path d="M113.492 21.3515C110.156 20.3315 106.692 23.3195 103.252 22.6475C101.172 22.2475 99.6038 20.5795 97.7518 19.5475C94.9878 18.0035 91.0758 17.7515 88.2518 19.1875C85.4278 20.6235 83.5998 22.1515 83.2198 25.2995C80.6478 23.8235 76.3598 27.0595 74.8998 30.1835C73.4398 33.3075 73.8038 36.5315 74.6318 39.8795C76.0704 45.6539 78.6281 51.0899 82.1598 55.8795C82.4718 56.3035 82.9598 56.7715 83.4438 56.5475C83.593 56.443 83.7157 56.305 83.8018 56.1445C83.8879 55.9841 83.9352 55.8056 83.9398 55.6235C84.4318 52.5635 84.0438 49.4395 83.7758 46.3515C83.5078 43.2635 83.3758 40.0795 84.3558 37.1515C85.3358 34.2235 87.6358 31.5275 90.6758 30.9275C92.9238 30.4835 95.2558 31.2115 97.2518 32.3355C99.2478 33.4595 101.004 34.9555 102.904 36.2315C104.804 37.5075 106.94 38.5835 109.228 38.6795C111.516 38.7755 113.972 37.7035 114.944 35.6315C115.916 33.5595 114.828 30.6155 112.588 30.1395C113.631 30.0481 114.61 29.5961 115.356 28.8613C116.102 28.1264 116.568 27.1546 116.675 26.113C116.782 25.0713 116.523 24.0249 115.942 23.1538C115.361 22.2826 114.495 21.6411 113.492 21.3395V21.3515Z" fill="#263238"/>
<path d="M103.2 75.011L102.876 68.399C102.876 68.399 111.604 66.727 111.408 57.947C111.312 53.711 110.4 44.995 109.488 37.119C109.018 33.0316 107.025 29.2715 103.906 26.5879C100.787 23.9043 96.7717 22.4944 92.6599 22.639L91.8119 22.667C82.7039 23.523 78.3359 31.739 79.4439 40.823L81.5439 76.183C81.7132 79.0426 83.0071 81.7191 85.143 83.6279C87.2789 85.5368 90.0834 86.5229 92.9439 86.371C95.8079 86.2179 98.4947 84.9368 100.417 82.808C102.339 80.6791 103.339 77.8757 103.2 75.011Z" fill="#FFBE9D"/>
<path d="M102.888 68.3989C102.888 68.3989 97.3559 69.0429 91.3319 65.5469C91.3319 65.5469 94.2599 71.7709 102.988 70.6709L102.888 68.3989Z" fill="#EB996E"/>
<path d="M106.532 43.0591C106.545 43.3851 106.431 43.7035 106.214 43.9468C105.997 44.1902 105.693 44.3395 105.368 44.3632C105.209 44.3814 105.048 44.3677 104.894 44.3228C104.741 44.2779 104.598 44.2027 104.474 44.1017C104.349 44.0007 104.247 43.8759 104.172 43.7346C104.096 43.5934 104.05 43.4385 104.036 43.2791C104.02 42.9529 104.133 42.6335 104.35 42.3891C104.566 42.1448 104.87 41.9948 105.196 41.9711C105.355 41.9523 105.517 41.9658 105.671 42.0106C105.826 42.0555 105.969 42.1309 106.094 42.2324C106.219 42.3339 106.322 42.4593 106.397 42.6014C106.472 42.7434 106.518 42.8991 106.532 43.0591Z" fill="#263238"/>
<path d="M107.752 41.4631C107.6 41.6311 106.628 40.9631 105.28 41.0151C103.932 41.0671 102.968 41.7751 102.816 41.6151C102.74 41.5431 102.888 41.2431 103.308 40.9151C103.876 40.4899 104.562 40.251 105.272 40.2311C105.974 40.2034 106.666 40.401 107.248 40.7951C107.676 41.0951 107.824 41.3871 107.752 41.4631Z" fill="#263238"/>
<path d="M93.2838 44C93.2982 44.3267 93.1847 44.646 92.9673 44.8903C92.75 45.1345 92.4459 45.2844 92.1198 45.308C91.9609 45.3263 91.7999 45.3126 91.6463 45.2677C91.4927 45.2228 91.3496 45.1476 91.2255 45.0466C91.1014 44.9456 90.9987 44.8208 90.9236 44.6795C90.8484 44.5383 90.8023 44.3834 90.7878 44.224C90.7734 43.8974 90.887 43.578 91.1044 43.3338C91.3217 43.0895 91.6257 42.9397 91.9518 42.916C92.1108 42.8978 92.2718 42.9115 92.4254 42.9564C92.579 43.0013 92.7221 43.0765 92.8462 43.1775C92.9703 43.2785 93.0729 43.4033 93.1481 43.5445C93.2233 43.6858 93.2694 43.8407 93.2838 44Z" fill="#263238"/>
<path d="M94.5038 42.1798C94.3558 42.3478 93.3798 41.6798 92.0318 41.7318C90.6838 41.7838 89.7198 42.4918 89.5678 42.3318C89.4918 42.2598 89.6398 41.9598 90.0598 41.6318C90.6297 41.2066 91.317 40.9677 92.0278 40.9478C92.7285 40.9205 93.4196 41.1181 93.9998 41.5118C94.4278 41.8158 94.5798 42.1038 94.5038 42.1798Z" fill="#263238"/>
<path d="M99.7479 51.9993C99.7479 51.9193 100.572 51.7473 101.924 51.5273C102.268 51.4793 102.592 51.3993 102.644 51.1593C102.658 50.8027 102.565 50.4501 102.376 50.1473C102.024 49.3273 101.656 48.4633 101.268 47.5633C99.7199 43.8793 98.5879 40.8433 98.7399 40.7633C98.8919 40.6833 100.26 43.6393 101.804 47.3233C102.18 48.23 102.536 49.098 102.872 49.9273C103.103 50.3348 103.184 50.8104 103.1 51.2713C103.054 51.3944 102.981 51.5055 102.886 51.5963C102.791 51.6871 102.677 51.7551 102.552 51.7953C102.362 51.8538 102.166 51.8874 101.968 51.8953C100.604 52.0513 99.7559 52.0873 99.7479 51.9993Z" fill="#263238"/>
<path d="M95.8119 53.0823C96.0319 53.0583 96.0879 54.5223 97.3759 55.5183C98.6639 56.5143 100.216 56.2983 100.236 56.5023C100.26 56.5943 99.9 56.7983 99.24 56.8383C98.3779 56.8864 97.5269 56.6254 96.8399 56.1023C96.1903 55.6004 95.7602 54.8664 95.6399 54.0543C95.5639 53.4423 95.7119 53.0743 95.8119 53.0823Z" fill="#263238"/>
<path d="M94.3998 35.2676C94.2798 35.6356 92.9278 35.5116 91.3519 35.7556C89.7759 35.9996 88.5119 36.4796 88.2919 36.1556C88.1919 35.9996 88.3999 35.6476 88.9039 35.2756C89.5767 34.8147 90.3461 34.5138 91.153 34.396C91.96 34.2781 92.7833 34.3464 93.5598 34.5956C94.1438 34.7996 94.4478 35.0916 94.3998 35.2676Z" fill="#263238"/>
<path d="M107.12 37.6012C106.892 37.9132 105.952 37.6292 104.836 37.6532C103.72 37.6772 102.78 37.9332 102.548 37.6172C102.448 37.4652 102.588 37.1532 102.992 36.8492C103.529 36.4728 104.172 36.2754 104.828 36.2852C105.481 36.2621 106.125 36.4424 106.672 36.8012C107.076 37.1172 107.22 37.4252 107.12 37.6012Z" fill="#263238"/>
<path d="M80.3999 47.2957C80.2479 47.2357 74.3079 45.7237 74.7079 51.6957C75.1079 57.6677 81.0439 56.0477 81.0439 55.8757C81.0439 55.7037 80.3999 47.2957 80.3999 47.2957Z" fill="#FFBE9D"/>
<path d="M79.0479 53.7471C79.0199 53.7471 78.9479 53.8271 78.7759 53.9191C78.538 54.0471 78.259 54.0759 77.9999 53.9991C77.3479 53.8071 76.7479 52.8391 76.6479 51.7591C76.5982 51.2471 76.6638 50.7304 76.8399 50.2471C76.8826 50.0554 76.9717 49.8771 77.0993 49.7279C77.2269 49.5786 77.3892 49.463 77.5719 49.3911C77.6898 49.3509 77.8179 49.3534 77.9341 49.3979C78.0503 49.4425 78.1472 49.5264 78.2079 49.6351C78.2999 49.7991 78.2679 49.9191 78.2999 49.9271C78.3319 49.9351 78.4239 49.8191 78.3559 49.5751C78.3123 49.4292 78.2207 49.3024 78.0959 49.2151C77.9218 49.1031 77.7111 49.0629 77.5079 49.1031C77.2652 49.1676 77.0431 49.2935 76.8631 49.4686C76.6831 49.6437 76.5511 49.8622 76.4799 50.1031C76.2605 50.6398 76.1754 51.222 76.2319 51.7991C76.3519 52.9991 77.0319 54.0911 77.9279 54.2831C78.0917 54.3195 78.2616 54.3186 78.425 54.2805C78.5884 54.2424 78.7411 54.1681 78.8719 54.0631C79.0479 53.8951 79.0679 53.7591 79.0479 53.7471Z" fill="#EB996E"/>
<path d="M111.28 35.2007C109.354 35.7675 107.321 35.8691 105.348 35.4971C103.375 35.125 101.519 34.29 99.9319 33.0607C97.7319 31.3247 95.9959 28.7807 93.2919 28.0487C92.3706 27.8382 91.4167 27.8129 90.4855 27.9743C89.5544 28.1357 88.6646 28.4805 87.8679 28.9887C86.2778 30.013 84.9161 31.3543 83.8679 32.9287C85.7199 37.3287 84.7559 42.3487 83.7639 47.0167C83.7093 47.5467 83.4799 48.0435 83.1119 48.4287C82.4239 48.9967 81.3439 48.6087 80.7119 47.9847C79.6839 46.9807 79.2479 45.5287 78.9479 44.1287C78.2048 40.9377 78.1056 37.6305 78.6559 34.4007C79.219 31.1599 80.7211 28.1557 82.9759 25.7607C85.9116 22.8488 89.8652 21.1933 93.9999 21.1447C98.1131 21.1274 102.127 22.4066 105.472 24.8007C107.024 25.8887 108.464 27.2007 109.304 28.9167" fill="#263238"/>
<path d="M116.084 23.3803C116.109 23.5556 116.097 23.7342 116.048 23.9043C115.921 24.3995 115.641 24.8419 115.248 25.1683C114.617 25.6727 113.843 25.964 113.036 26.0003C112.54 26.0442 112.041 26.0308 111.548 25.9603C110.982 25.8841 110.447 25.656 110 25.3003C109.749 25.1014 109.546 24.8478 109.407 24.5588C109.269 24.2697 109.198 23.9529 109.2 23.6323C109.232 23.2834 109.361 22.9505 109.573 22.6717C109.786 22.393 110.072 22.1797 110.4 22.0563C110.74 21.915 111.108 21.8548 111.476 21.8803C111.858 21.9183 112.221 22.067 112.52 22.3083C112.82 22.5624 113.062 22.8783 113.23 23.2345C113.397 23.5908 113.485 23.9789 113.488 24.3723C113.502 25.2025 113.191 26.0053 112.62 26.6083C112.037 27.2251 111.302 27.6764 110.488 27.9163C108.84 28.4323 107 28.1843 105.344 27.5403C103.737 26.8798 102.212 26.0355 100.8 25.0243C99.4983 24.1012 98.1215 23.289 96.6839 22.5963C95.3885 21.978 93.9624 21.6829 92.5279 21.7363C91.2842 21.8269 90.0756 22.1901 88.9879 22.8003C87.4022 23.7032 86.0745 24.9978 85.1319 26.5603C84.865 26.9748 84.6207 27.4035 84.3999 27.8443C84.3321 28.0043 84.2532 28.1593 84.1639 28.3083C84.1712 28.264 84.1847 28.2209 84.2039 28.1803C84.2319 28.1003 84.2759 27.9763 84.3439 27.8203C84.5378 27.3597 84.7637 26.9133 85.0199 26.4843C85.9371 24.8726 87.2648 23.5325 88.8679 22.6003C89.9852 21.9648 91.23 21.5863 92.5119 21.4923C93.9893 21.4233 95.4612 21.7158 96.7999 22.3443C98.2589 23.0434 99.6559 23.865 100.976 24.8003C102.369 25.7947 103.871 26.628 105.452 27.2843C107.072 27.9083 108.84 28.1483 110.408 27.6603C111.171 27.4218 111.858 26.9873 112.4 26.4003C112.916 25.8629 113.203 25.1456 113.2 24.4003C113.2 24.0457 113.124 23.6952 112.976 23.3728C112.828 23.0504 112.613 22.7637 112.344 22.5323C112.084 22.3268 111.773 22.1969 111.444 22.1567C111.115 22.1164 110.782 22.1675 110.48 22.3043C110.19 22.4062 109.934 22.5878 109.742 22.8283C109.551 23.0689 109.43 23.3586 109.396 23.6643C109.396 23.9513 109.46 24.2347 109.584 24.4936C109.708 24.7525 109.888 24.9803 110.112 25.1603C110.53 25.4943 111.03 25.711 111.56 25.7883C112.039 25.8631 112.525 25.8832 113.008 25.8483C113.802 25.8309 114.569 25.562 115.2 25.0803C115.58 24.7684 115.858 24.3507 116 23.8803C116.038 23.7156 116.067 23.5486 116.084 23.3803Z" fill="#455A64"/>
<path d="M74 35.3887C74.6023 35.5788 75.221 35.7127 75.848 35.7887C76.5265 35.8252 77.2056 35.7301 77.848 35.5087C78.6372 35.2285 79.3822 34.8365 80.06 34.3447C81.2847 33.4308 82.179 32.1434 82.608 30.6767C82.7581 30.0603 82.869 29.4351 82.94 28.8047C82.9835 28.9744 82.9997 29.1499 82.988 29.3247C82.9866 29.7997 82.9261 30.2726 82.808 30.7327C82.4248 32.2789 81.5137 33.6428 80.232 34.5887C79.5313 35.1041 78.7556 35.5088 77.932 35.7887C77.2532 36.0121 76.5349 36.0898 75.824 36.0167C75.3497 35.9623 74.8861 35.8383 74.448 35.6487C74.2845 35.5892 74.1328 35.5011 74 35.3887Z" fill="#455A64"/>
<path d="M74.424 39.72C74.424 39.664 75.136 39.796 76.268 39.692C77.7393 39.5666 79.15 39.0483 80.3525 38.1913C81.555 37.3342 82.5053 36.1699 83.104 34.82C83.572 33.784 83.676 33.076 83.732 33.088C83.7429 33.2562 83.7267 33.425 83.684 33.588C83.5961 34.038 83.462 34.4776 83.284 34.9C82.7203 36.3186 81.7601 37.5449 80.518 38.4323C79.276 39.3197 77.8047 39.8306 76.28 39.904C75.823 39.9276 75.3647 39.9062 74.912 39.84C74.744 39.826 74.5793 39.7855 74.424 39.72Z" fill="#455A64"/>
<path d="M90.2239 48.0707C90.2039 48.0748 90.1833 48.0748 90.1633 48.0707C90.1433 48.0666 90.1244 48.0585 90.1076 48.0469C90.0908 48.0354 90.0765 48.0205 90.0656 48.0033C90.0546 47.9861 90.0473 47.9669 90.0439 47.9467C90.0372 47.9273 90.0346 47.9067 90.0363 47.8863C90.0379 47.8658 90.0438 47.8459 90.0536 47.8278C90.0634 47.8098 90.0768 47.794 90.0931 47.7814C90.1093 47.7688 90.128 47.7597 90.1479 47.7547C90.1874 47.7507 90.2269 47.7612 90.2593 47.7841C90.2916 47.8071 90.3146 47.841 90.3239 47.8796C90.3331 47.9181 90.3281 47.9588 90.3097 47.9939C90.2914 48.0291 90.2609 48.0564 90.2239 48.0707Z" fill="#EB996E"/>
<path d="M92.7999 47.3958C92.7567 47.3955 92.7149 47.3807 92.6812 47.3537C92.6475 47.3267 92.6239 47.2891 92.6142 47.247C92.6045 47.2049 92.6092 47.1608 92.6277 47.1217C92.6461 47.0827 92.6772 47.051 92.7159 47.0318C92.7601 47.0283 92.8041 47.0415 92.8389 47.069C92.8738 47.0964 92.897 47.136 92.9039 47.1798C92.9181 47.2223 92.9152 47.2686 92.8958 47.3089C92.8763 47.3493 92.842 47.3804 92.7999 47.3958Z" fill="#EB996E"/>
<path d="M94.5159 47.2916C94.4319 47.2916 94.3519 47.2076 94.3279 47.0756C94.3039 46.9436 94.3559 46.8236 94.4359 46.8116C94.5159 46.7996 94.5999 46.8956 94.6239 47.0276C94.6479 47.1596 94.5959 47.2796 94.5159 47.2916Z" fill="#EB996E"/>
<path d="M91.5479 49.6431C91.4679 49.6431 91.3959 49.6071 91.3959 49.5551C91.3959 49.5031 91.4599 49.4551 91.5399 49.4551C91.6199 49.4551 91.6919 49.4911 91.6919 49.5431C91.6919 49.5951 91.6319 49.6391 91.5479 49.6431Z" fill="#EB996E"/>
<path d="M93.8919 49.0099C93.8501 49.0121 93.8091 48.9978 93.7777 48.9702C93.7463 48.9425 93.727 48.9036 93.7239 48.8619C93.7199 48.8411 93.72 48.8198 93.7242 48.7991C93.7285 48.7783 93.7368 48.7587 93.7487 48.7412C93.7606 48.7237 93.7758 48.7088 93.7936 48.6972C93.8113 48.6856 93.8311 48.6777 93.8519 48.6739C93.8941 48.6727 93.9351 48.6879 93.9664 48.7162C93.9977 48.7445 94.0168 48.7838 94.0199 48.8259C94.0269 48.8672 94.0175 48.9096 93.9935 48.9441C93.9696 48.9785 93.9331 49.0021 93.8919 49.0099Z" fill="#EB996E"/>
<path d="M106.14 47.1124C106.119 47.1165 106.098 47.1163 106.078 47.112C106.057 47.1077 106.038 47.0994 106.021 47.0874C106.004 47.0755 105.989 47.0602 105.978 47.0425C105.967 47.0248 105.959 47.0051 105.956 46.9844C105.949 46.9648 105.946 46.9439 105.948 46.9232C105.95 46.9024 105.956 46.8823 105.965 46.8639C105.975 46.8455 105.989 46.8293 106.005 46.8164C106.021 46.8034 106.04 46.7939 106.06 46.7884C106.101 46.7833 106.142 46.7933 106.176 46.8166C106.21 46.8399 106.234 46.8749 106.244 46.9148C106.254 46.9548 106.249 46.997 106.23 47.0335C106.21 47.0699 106.178 47.098 106.14 47.1124Z" fill="#EB996E"/>
<path d="M107.888 46.8915C107.844 46.8877 107.803 46.8691 107.772 46.8388C107.74 46.8084 107.72 46.7682 107.714 46.7248C107.709 46.6814 107.718 46.6374 107.741 46.6001C107.764 46.5627 107.799 46.5343 107.84 46.5195C107.92 46.5195 107.996 46.5835 108.012 46.6835C108.022 46.7275 108.014 46.7736 107.991 46.8122C107.968 46.8509 107.931 46.8793 107.888 46.8915Z" fill="#EB996E"/>
<path d="M104.588 47.2009C104.563 47.2034 104.537 47.1985 104.515 47.1868C104.492 47.1751 104.473 47.1572 104.461 47.1352C104.448 47.1131 104.442 47.0878 104.443 47.0625C104.445 47.0371 104.453 47.0126 104.468 46.992C104.483 46.9714 104.504 46.9556 104.527 46.9464C104.551 46.9372 104.577 46.9351 104.602 46.9402C104.627 46.9454 104.65 46.9576 104.668 46.9755C104.686 46.9934 104.698 47.0161 104.704 47.0409C104.709 47.0773 104.699 47.1142 104.678 47.1439C104.656 47.1737 104.624 47.194 104.588 47.2009Z" fill="#EB996E"/>
<path d="M105.952 48.9228C105.912 48.9364 105.869 48.9344 105.83 48.9174C105.792 48.9004 105.761 48.8695 105.744 48.8308C105.733 48.8125 105.726 48.7922 105.724 48.7712C105.721 48.7501 105.722 48.7288 105.728 48.7083C105.734 48.6878 105.743 48.6687 105.756 48.6519C105.769 48.6352 105.785 48.6212 105.804 48.6108C105.843 48.6008 105.885 48.6049 105.922 48.6222C105.959 48.6396 105.989 48.6692 106.006 48.706C106.024 48.7429 106.028 48.7846 106.018 48.8241C106.008 48.8637 105.985 48.8986 105.952 48.9228Z" fill="#EB996E"/>
<path d="M107.44 48.5676C107.422 48.5652 107.405 48.5592 107.389 48.55C107.373 48.5408 107.36 48.5286 107.349 48.514C107.338 48.4995 107.33 48.483 107.326 48.4654C107.322 48.4478 107.321 48.4295 107.324 48.4116C107.336 48.3775 107.362 48.3496 107.395 48.334C107.428 48.3183 107.465 48.316 107.5 48.3277C107.535 48.3326 107.567 48.3514 107.589 48.3798C107.611 48.4083 107.62 48.4441 107.616 48.4796C107.604 48.5145 107.579 48.5433 107.546 48.5598C107.513 48.5763 107.475 48.5791 107.44 48.5676Z" fill="#EB996E"/>
<path d="M104.472 148.257L104.376 139.365C104.376 139.365 98.4439 131.145 100.776 122.229C100.776 122.229 104.644 119.509 115.016 121.101C115.016 121.101 128.036 108.417 145.488 111.645C162.94 114.873 164.564 130.077 164.732 134.217C164.9 138.357 164.86 146.397 158.852 154.257L158.452 162.057C158.452 162.057 157.02 164.993 152.88 164.793C148.74 164.593 148.972 163.993 148.972 163.993C148.972 163.993 143.772 168.189 143.548 169.285C143.324 170.381 142.508 174.537 142.508 174.537C142.508 174.537 140.704 176.989 136.812 177.277C135.272 177.386 133.733 177.071 132.36 176.365C131.839 176.101 131.376 175.737 130.998 175.293C130.62 174.848 130.333 174.333 130.156 173.777C129.784 172.546 129.156 171.407 128.313 170.436C127.47 169.465 126.431 168.682 125.264 168.141L122.576 167.437C122.576 167.437 121.492 168.425 117.72 168.829C113.948 169.233 113.932 167.897 113.932 167.897C113.932 167.897 108.064 169.253 103.656 163.497C100.176 158.945 98.2839 150.757 104.472 148.257Z" fill="#F68410"/>
<path d="M140.648 148.767C140.707 148.672 140.772 148.581 140.844 148.495C140.976 148.319 141.172 148.063 141.416 147.727C141.908 147.059 142.596 146.071 143.356 144.795C144.24 143.299 145.008 141.737 145.652 140.123C146.016 139.211 146.356 138.239 146.656 137.219C146.956 136.199 147.208 135.095 146.944 134.019C146.626 132.976 145.945 132.082 145.024 131.499C144.175 130.929 143.265 130.456 142.312 130.087C140.697 129.45 139 129.046 137.272 128.887C136.107 128.776 134.933 128.776 133.768 128.887C133.368 128.923 133.036 128.963 132.816 128.995C132.707 129.018 132.595 129.03 132.484 129.031C132.591 128.997 132.701 128.972 132.812 128.955C133.024 128.911 133.344 128.855 133.76 128.807C134.929 128.662 136.11 128.639 137.284 128.739C139.038 128.871 140.762 129.263 142.4 129.903C143.369 130.271 144.294 130.747 145.156 131.323C146.119 131.933 146.83 132.87 147.156 133.963C147.436 135.111 147.156 136.255 146.864 137.275C146.572 138.295 146.212 139.275 145.84 140.195C145.186 141.814 144.402 143.378 143.496 144.871C142.884 145.876 142.216 146.845 141.496 147.775C141.24 148.107 141.032 148.355 140.892 148.519C140.819 148.609 140.737 148.692 140.648 148.767Z" fill="#263238"/>
<path d="M116.248 121.488C116.278 121.553 116.298 121.622 116.308 121.692C116.347 121.897 116.356 122.105 116.336 122.312C116.235 123.078 115.883 123.788 115.336 124.332C114.684 125.052 113.692 125.64 112.724 126.432C111.664 127.285 110.685 128.234 109.8 129.268C108.189 131.148 106.89 133.273 105.952 135.564C105.592 136.444 105.356 137.164 105.196 137.684C105.128 137.92 105.068 138.116 105.02 138.272C105.004 138.341 104.979 138.409 104.948 138.472C104.949 138.4 104.959 138.329 104.98 138.26C105.02 138.1 105.064 137.904 105.12 137.66C105.31 136.931 105.542 136.214 105.816 135.512C106.72 133.183 108.014 131.026 109.644 129.132C110.537 128.09 111.528 127.136 112.604 126.284C113.592 125.484 114.584 124.92 115.232 124.232C115.769 123.714 116.127 123.039 116.256 122.304C116.283 122.033 116.28 121.759 116.248 121.488Z" fill="#263238"/>
<g opacity="0.5">
<path opacity="0.5" d="M123.224 122.576L128.532 123.932C128.532 123.932 136.304 115.2 144.84 112.988L141.64 112.232C134.625 113.814 128.225 117.409 123.224 122.576Z" fill="black"/>
</g>
<path d="M143.108 112.569C136.128 114.138 129.777 117.76 124.872 122.969L123.224 122.569C123.224 122.569 130.752 114.309 141.644 112.225L143.108 112.569Z" fill="#F68410"/>
<g opacity="0.7">
<path opacity="0.7" d="M143.108 112.569C136.128 114.138 129.777 117.76 124.872 122.969L123.224 122.569C123.224 122.569 130.752 114.309 141.644 112.225L143.108 112.569Z" fill="black"/>
</g>
<path d="M101.908 150.068C104.848 145.86 112.224 147.148 115.588 150.932C118.952 154.716 120.444 159.924 118.256 164.412C117.32 166.328 115.528 168.012 113.396 167.972C114.46 166.778 115.222 165.348 115.619 163.799C116.015 162.25 116.035 160.629 115.676 159.072C114.992 155.932 113.012 153.16 110.508 151.144C109.24 150.12 107.812 148.996 106.188 148.836C104.564 148.676 103.264 148.628 101.908 150.068Z" fill="#F68410"/>
<g opacity="0.3">
<path opacity="0.3" d="M101.908 150.068C104.848 145.86 112.224 147.148 115.588 150.932C118.952 154.716 120.444 159.924 118.256 164.412C117.32 166.328 115.528 168.012 113.396 167.972C114.46 166.778 115.222 165.348 115.619 163.799C116.015 162.25 116.035 160.629 115.676 159.072C114.992 155.932 113.012 153.16 110.508 151.144C109.24 150.12 107.812 148.996 106.188 148.836C104.564 148.676 103.264 148.628 101.908 150.068Z" fill="black"/>
</g>
<g opacity="0.3">
<path opacity="0.3" d="M140.944 148.52C140.888 149.412 141.704 150.2 142.588 150.304C143.034 150.331 143.481 150.252 143.89 150.072C144.3 149.893 144.661 149.619 144.944 149.272C145.501 148.573 145.909 147.767 146.144 146.904C147.064 144.02 147.54 139.704 147.056 136.732C145.784 140.6 143.512 145.424 140.876 148.528" fill="black"/>
</g>
<g opacity="0.3">
<path opacity="0.3" d="M143.732 135.22C143.16 133.528 141.408 132.54 139.732 131.956C138.013 131.356 136.218 131.003 134.4 130.908C133.828 130.845 133.249 130.901 132.7 131.072C132.427 131.16 132.182 131.317 131.987 131.527C131.791 131.737 131.653 131.993 131.584 132.272C131.548 132.5 131.583 132.734 131.685 132.941C131.786 133.149 131.95 133.32 132.152 133.432C135.051 136.787 137.213 140.713 138.5 144.956C138.555 145.142 138.659 145.311 138.801 145.443C138.943 145.575 139.119 145.667 139.309 145.708C139.499 145.749 139.697 145.738 139.881 145.676C140.065 145.614 140.229 145.503 140.356 145.356C141.716 143.804 142.5 141.712 143.204 139.728C143.708 138.272 144.228 136.68 143.732 135.22Z" fill="black"/>
</g>
<g opacity="0.3">
<path opacity="0.3" d="M105.488 135.999C103.67 133.17 102.734 129.865 102.8 126.503C102.8 125.795 102.904 125.027 103.396 124.523C103.992 123.911 104.96 123.899 105.796 123.955C108.152 124.102 110.494 124.431 112.8 124.939C112.98 124.979 113.2 125.039 113.256 125.211C113.319 125.343 113.338 125.493 113.31 125.637C113.282 125.781 113.208 125.912 113.1 126.011C109.52 128.207 106.98 132.247 105.628 136.199" fill="black"/>
</g>
<path d="M101.028 122.543C101.035 122.745 101.026 122.947 101 123.147C100.968 123.547 100.932 124.095 100.908 124.787C100.786 127.586 101.138 130.385 101.948 133.067C102.22 133.943 102.504 134.715 102.776 135.355C103.048 135.995 103.284 136.503 103.456 136.847C103.557 137.022 103.64 137.207 103.704 137.399C103.583 137.238 103.476 137.066 103.384 136.887C103.188 136.551 102.932 136.047 102.644 135.411C102.306 134.667 102.012 133.905 101.764 133.127C101.468 132.17 101.23 131.197 101.052 130.211C100.75 128.424 100.652 126.608 100.76 124.799C100.804 124.107 100.86 123.543 100.92 123.159C100.936 122.951 100.972 122.744 101.028 122.543Z" fill="#FAFAFA"/>
<path d="M141.332 111.942C141.266 111.975 141.196 112.001 141.124 112.018L140.524 112.194C140.26 112.266 139.94 112.354 139.572 112.474C139.204 112.594 138.772 112.71 138.328 112.874C137.404 113.182 136.328 113.594 135.148 114.098C133.968 114.602 132.7 115.226 131.408 115.946C130.116 116.666 128.932 117.438 127.88 118.17C126.828 118.902 125.92 119.622 125.18 120.25C124.8 120.55 124.476 120.85 124.184 121.102C123.892 121.354 123.648 121.578 123.452 121.766L122.988 122.186C122.88 122.282 122.82 122.33 122.816 122.322C122.858 122.262 122.906 122.207 122.96 122.158L123.396 121.706C123.584 121.51 123.82 121.278 124.108 121.018C124.396 120.758 124.708 120.45 125.084 120.138C125.816 119.494 126.724 118.77 127.768 118.014C128.909 117.206 130.091 116.456 131.308 115.766C132.53 115.088 133.787 114.472 135.072 113.922C136.272 113.426 137.352 113.026 138.272 112.722C138.736 112.566 139.16 112.458 139.532 112.35C139.904 112.242 140.228 112.162 140.496 112.102L141.104 111.966C141.178 111.947 141.255 111.939 141.332 111.942Z" fill="#FAFAFA"/>
<path d="M146 133.08C145.968 133.116 145.364 132.5 144.204 131.76C143.524 131.33 142.809 130.957 142.068 130.644C141.163 130.265 140.226 129.969 139.268 129.76C137.517 129.375 135.717 129.266 133.932 129.436C132.564 129.576 131.736 129.804 131.724 129.76C131.913 129.689 132.107 129.633 132.304 129.592C132.83 129.456 133.364 129.355 133.904 129.292C135.706 129.074 137.532 129.163 139.304 129.556C140.277 129.769 141.228 130.075 142.144 130.468C142.891 130.792 143.608 131.185 144.284 131.64L144.684 131.916L145.032 132.192C145.221 132.332 145.4 132.486 145.568 132.652C145.723 132.783 145.868 132.926 146 133.08Z" fill="#FAFAFA"/>
<path d="M110.22 167.325C110.154 167.317 110.089 167.299 110.028 167.273C109.847 167.218 109.67 167.154 109.496 167.081C108.848 166.825 108.223 166.514 107.628 166.153C105.643 164.964 103.99 163.294 102.824 161.296C101.657 159.298 101.015 157.037 100.956 154.725C100.933 154.029 100.969 153.334 101.064 152.645C101.092 152.401 101.136 152.213 101.156 152.085C101.167 152.019 101.183 151.955 101.204 151.893C101.201 152.147 101.181 152.401 101.144 152.653C101.08 153.34 101.066 154.031 101.1 154.721C101.199 157 101.853 159.221 103.003 161.191C104.154 163.162 105.767 164.822 107.704 166.029C108.289 166.396 108.899 166.723 109.528 167.009C109.972 167.201 110.224 167.309 110.22 167.325Z" fill="#FAFAFA"/>
<g opacity="0.2">
<path opacity="0.2" d="M111.268 158.085C110.957 157.978 110.622 157.965 110.303 158.047C109.985 158.129 109.697 158.302 109.476 158.545C109.26 158.792 109.102 159.084 109.014 159.401C108.926 159.717 108.91 160.049 108.968 160.373C109.028 160.999 109.297 161.586 109.732 162.041C110.093 162.39 110.555 162.615 111.052 162.685C111.362 162.677 111.665 162.585 111.927 162.418C112.188 162.251 112.399 162.015 112.536 161.737C112.708 161.417 112.812 161.064 112.841 160.702C112.87 160.34 112.824 159.975 112.704 159.632C112.585 159.289 112.396 158.974 112.149 158.707C111.901 158.441 111.601 158.229 111.268 158.085Z" fill="black"/>
</g>
<path d="M110.648 157.998C110.36 158.346 110.165 158.761 110.081 159.205C109.997 159.649 110.028 160.107 110.17 160.536C110.312 160.964 110.561 161.35 110.893 161.656C111.225 161.963 111.629 162.179 112.068 162.286C111.888 162.448 111.672 162.564 111.439 162.626C111.205 162.688 110.96 162.694 110.724 162.642C110.137 162.447 109.632 162.06 109.291 161.544C108.95 161.027 108.793 160.411 108.844 159.794C108.869 159.289 109.075 158.809 109.424 158.442C109.763 158.148 110.199 157.99 110.648 157.998Z" fill="#F68410"/>
<g opacity="0.4">
<path opacity="0.4" d="M110.648 157.998C110.36 158.346 110.165 158.761 110.081 159.205C109.997 159.649 110.028 160.107 110.17 160.536C110.312 160.964 110.561 161.35 110.893 161.656C111.225 161.963 111.629 162.179 112.068 162.286C111.888 162.448 111.672 162.564 111.439 162.626C111.205 162.688 110.96 162.694 110.724 162.642C110.137 162.447 109.632 162.06 109.291 161.544C108.95 161.027 108.793 160.411 108.844 159.794C108.869 159.289 109.075 158.809 109.424 158.442C109.763 158.148 110.199 157.99 110.648 157.998Z" fill="black"/>
</g>
<g opacity="0.2">
<path opacity="0.2" d="M105.372 155.807C105.071 155.707 104.748 155.696 104.442 155.775C104.135 155.855 103.858 156.021 103.644 156.255C103.435 156.493 103.282 156.776 103.197 157.081C103.112 157.386 103.097 157.707 103.152 158.019C103.218 158.618 103.478 159.18 103.892 159.619C104.241 159.955 104.688 160.172 105.168 160.239C105.467 160.233 105.758 160.144 106.01 159.983C106.262 159.822 106.465 159.595 106.596 159.327C106.762 159.018 106.861 158.677 106.889 158.328C106.917 157.978 106.872 157.626 106.757 157.295C106.642 156.963 106.459 156.659 106.221 156.402C105.983 156.144 105.694 155.939 105.372 155.799" fill="black"/>
</g>
<path d="M104.776 155.735C104.496 156.07 104.307 156.471 104.226 156.9C104.144 157.328 104.174 157.771 104.311 158.185C104.449 158.599 104.689 158.971 105.011 159.266C105.332 159.561 105.724 159.769 106.148 159.871C105.974 160.027 105.765 160.14 105.539 160.2C105.314 160.261 105.077 160.267 104.848 160.219C104.281 160.029 103.795 159.655 103.466 159.156C103.138 158.657 102.986 158.062 103.036 157.467C103.059 156.981 103.256 156.519 103.592 156.167C103.924 155.878 104.352 155.723 104.792 155.735" fill="#F68410"/>
<g opacity="0.4">
<path opacity="0.4" d="M104.776 155.735C104.496 156.07 104.307 156.471 104.226 156.9C104.144 157.328 104.174 157.771 104.311 158.185C104.449 158.599 104.689 158.971 105.011 159.266C105.332 159.561 105.724 159.769 106.148 159.871C105.974 160.027 105.765 160.14 105.539 160.2C105.314 160.261 105.077 160.267 104.848 160.219C104.281 160.029 103.795 159.655 103.466 159.156C103.138 158.657 102.986 158.062 103.036 157.467C103.059 156.981 103.256 156.519 103.592 156.167C103.924 155.878 104.352 155.723 104.792 155.735" fill="black"/>
</g>
<path d="M120.548 144.8C120.548 144.8 120.588 144.8 120.604 144.771H120.632L120.548 144.8Z" fill="#263238"/>
<path d="M123.572 146.049C123.382 145.537 123.014 145.111 122.536 144.849C122.156 144.658 121.737 144.561 121.312 144.565H121.276C121.04 144.579 120.81 144.647 120.604 144.765C120.16 144.986 119.78 145.317 119.499 145.726C119.219 146.136 119.049 146.61 119.004 147.105C118.976 147.736 119.136 148.362 119.463 148.903C119.791 149.444 120.271 149.876 120.844 150.145C121.222 150.339 121.653 150.404 122.072 150.329C122.486 150.21 122.849 149.955 123.1 149.605C123.483 149.105 123.728 148.513 123.81 147.89C123.893 147.266 123.811 146.631 123.572 146.049Z" fill="#263238"/>
<path d="M108.184 140.907C108.2 140.897 108.218 140.889 108.236 140.883H108.26L108.184 140.907Z" fill="#263238"/>
<path d="M110.8 141.999C110.639 141.549 110.319 141.174 109.9 140.943C109.573 140.778 109.211 140.693 108.844 140.695H108.8C108.596 140.709 108.397 140.769 108.22 140.871C107.834 141.062 107.504 141.349 107.261 141.704C107.018 142.059 106.87 142.471 106.832 142.899C106.808 143.447 106.948 143.989 107.232 144.457C107.517 144.924 107.935 145.297 108.432 145.527C108.754 145.718 109.138 145.776 109.502 145.69C109.866 145.603 110.182 145.379 110.384 145.063C110.712 144.632 110.924 144.123 110.996 143.586C111.069 143.049 111.002 142.502 110.8 141.999Z" fill="#263238"/>
<path d="M111.6 148.684C111.684 148.689 111.768 148.705 111.848 148.732C112.084 148.791 112.316 148.864 112.544 148.948C113.386 149.256 114.178 149.686 114.896 150.224C115.97 151.018 116.884 152.009 117.588 153.144C118.442 154.538 119.011 156.088 119.26 157.704C119.515 159.317 119.496 160.961 119.204 162.568C118.992 163.897 118.418 165.143 117.544 166.168C116.943 166.846 116.164 167.344 115.296 167.604C114.983 167.707 114.653 167.751 114.324 167.736C114.645 167.692 114.962 167.622 115.272 167.528C116.111 167.243 116.858 166.739 117.436 166.068C118.271 165.055 118.817 163.837 119.016 162.54C119.296 160.953 119.308 159.33 119.052 157.74C118.808 156.15 118.255 154.624 117.424 153.248C116.739 152.127 115.852 151.142 114.808 150.344C114.105 149.806 113.334 149.362 112.516 149.024C111.944 148.8 111.6 148.704 111.6 148.684Z" fill="#263238"/>
<path d="M107.78 143.952C107.76 143.952 107.656 143.88 107.548 143.692C107.418 143.445 107.348 143.171 107.344 142.892C107.345 142.613 107.414 142.339 107.544 142.092C107.652 141.904 107.752 141.816 107.776 141.832C107.659 142.179 107.584 142.539 107.552 142.904C107.588 143.261 107.665 143.612 107.78 143.952Z" fill="#FAFAFA"/>
<path d="M119.84 148.372C119.816 148.372 119.716 148.28 119.628 148.068C119.52 147.786 119.491 147.48 119.544 147.184C119.589 146.888 119.717 146.611 119.912 146.384C120.064 146.208 120.192 146.144 120.208 146.164C120 146.491 119.844 146.848 119.748 147.224C119.713 147.609 119.745 147.997 119.84 148.372Z" fill="#FAFAFA"/>
<path d="M127.428 169.508C127.408 169.54 126.924 169.204 126.076 168.78C124.965 168.244 123.817 167.789 122.64 167.42C121.26 166.972 120.004 166.588 119.104 166.268C118.656 166.112 118.304 165.976 118.048 165.868C117.917 165.822 117.792 165.762 117.676 165.688C118.175 165.808 118.668 165.955 119.152 166.128C120.056 166.412 121.32 166.772 122.704 167.224C123.892 167.593 125.044 168.071 126.144 168.652C126.356 168.76 126.544 168.876 126.7 168.976C126.839 169.058 126.972 169.149 127.1 169.248C127.22 169.319 127.33 169.407 127.428 169.508Z" fill="#263238"/>
<path d="M155.808 156.623C155.7 156.821 155.577 157.009 155.44 157.187C155.2 157.543 154.82 158.043 154.336 158.643C153.048 160.191 151.65 161.642 150.152 162.987C148.404 164.587 146.776 165.943 145.624 166.967L144.264 168.167C144.105 168.325 143.934 168.469 143.752 168.599C143.89 168.424 144.042 168.261 144.208 168.111C144.512 167.803 144.964 167.371 145.528 166.843C146.656 165.791 148.268 164.399 150.008 162.819C151.499 161.479 152.905 160.048 154.22 158.535C154.72 157.951 155.116 157.467 155.376 157.127C155.507 156.948 155.651 156.78 155.808 156.623Z" fill="#263238"/>
<g opacity="0.2">
<path opacity="0.2" d="M149.008 164.032C151.16 164.208 153.604 163.548 155.132 162.032C155.899 161.252 156.417 160.261 156.62 159.185C156.823 158.11 156.702 156.999 156.272 155.992C155.016 157.784 153.6 159.688 151.872 161.152C150.784 162.076 150.06 163.196 149.008 164.044" fill="black"/>
</g>
<g opacity="0.5">
<path opacity="0.5" d="M141.344 113.723C144.144 117.843 149.884 119.147 152.66 123.275C153.736 124.875 154.26 126.763 154.78 128.619L161.18 151.711C161.444 146.707 160.24 141.755 159.04 136.887C157.861 132.087 156.679 127.287 155.492 122.487C155.296 121.413 154.906 120.384 154.34 119.451C153.708 118.543 152.768 117.907 151.852 117.291C148.564 115.083 145.18 112.835 141.324 111.955" fill="black"/>
</g>
<g opacity="0.3">
<path opacity="0.3" d="M121.712 126.195C121.888 126.755 121.12 127.519 119.924 128.467C119.32 128.939 118.616 129.479 117.84 130.067C117.064 130.655 116.24 131.299 115.372 131.995C114.504 132.691 113.72 133.383 112.972 133.995C112.224 134.607 111.572 135.219 110.972 135.711C109.8 136.691 108.9 137.287 108.384 136.999C107.868 136.711 107.904 135.575 108.588 133.983C108.997 133.06 109.517 132.189 110.136 131.391C111.651 129.427 113.601 127.84 115.832 126.755C116.74 126.314 117.697 125.982 118.684 125.767C120.4 125.435 121.544 125.659 121.712 126.195Z" fill="white"/>
</g>
<path d="M111.012 157.763C110.718 157.869 110.414 157.943 110.104 157.983C109.809 158.085 109.505 158.156 109.196 158.195C109.432 157.972 109.734 157.832 110.056 157.795C110.363 157.685 110.698 157.673 111.012 157.763Z" fill="#FAFAFA"/>
<path d="M104.94 155.559C104.662 155.625 104.38 155.675 104.096 155.707C103.644 155.807 103.296 155.995 103.272 155.943C103.248 155.891 103.552 155.615 104.048 155.503C104.193 155.453 104.346 155.432 104.5 155.442C104.653 155.451 104.802 155.491 104.94 155.559Z" fill="#FAFAFA"/>
<path d="M131.868 174.16C131.812 174.188 131.28 173.292 130.54 172.24C129.8 171.188 129.14 170.384 129.184 170.344C129.775 170.861 130.289 171.458 130.712 172.12C131.19 172.743 131.579 173.43 131.868 174.16Z" fill="#FAFAFA"/>
<path d="M108.04 132.18C108.096 132.216 107.308 133.38 106.624 134.94C105.94 136.5 105.612 137.864 105.548 137.848C105.557 137.541 105.611 137.238 105.708 136.948C105.891 136.231 106.133 135.532 106.432 134.856C106.728 134.179 107.08 133.527 107.484 132.908C107.637 132.642 107.824 132.398 108.04 132.18Z" fill="#FAFAFA"/>
<path d="M127.432 124.435C126.662 124.36 125.906 124.175 125.188 123.887C124.447 123.661 123.741 123.336 123.088 122.919C123.116 122.863 124.06 123.271 125.256 123.687C126.452 124.103 127.448 124.375 127.432 124.435Z" fill="#FAFAFA"/>
<path d="M158.632 117.951C157.697 119.228 156.321 120.113 154.772 120.435C155.473 120.12 156.158 119.769 156.824 119.383C157.45 118.937 158.054 118.459 158.632 117.951Z" fill="#EB996E"/>
<path d="M170.348 115.275C168.196 110.315 146.7 92.707 146.7 92.707L134.58 108.443C134.756 108.207 154.352 120.143 154.352 120.143L160.132 146.495L161.128 151.199C161.128 151.199 158.528 153.467 158.636 155.859C158.704 157.459 155.036 160.903 155.036 160.903C154.164 160.179 153.604 159.975 153.164 160.059L149.264 163.711L150.192 164.559C151.226 165.503 152.588 166.007 153.988 165.963L160.656 165.759C161.607 165.732 162.51 165.334 163.172 164.651C165.224 162.543 169.552 157.827 169.636 155.555C169.688 154.283 169.696 153.071 169.692 152.095C169.672 152.083 172.496 120.235 170.348 115.275Z" fill="#FFBE9D"/>
<path d="M163.964 157.416C163.854 157.516 163.728 157.597 163.592 157.656C163.348 157.792 162.972 157.952 162.536 158.192C162.034 158.482 161.59 158.863 161.228 159.316C160.77 159.887 160.231 160.389 159.628 160.804C158.513 161.546 157.189 161.911 155.852 161.844C155.617 161.844 155.385 161.803 155.164 161.724C155.075 161.693 154.997 161.636 154.94 161.56C154.883 161.485 154.85 161.394 154.844 161.3C154.84 161.241 154.851 161.182 154.875 161.129C154.9 161.075 154.937 161.028 154.984 160.992C155.052 160.952 155.096 160.96 155.096 160.964C155.096 160.968 155.06 160.964 155.008 161.024C154.973 161.059 154.948 161.103 154.933 161.15C154.918 161.197 154.915 161.247 154.924 161.296C154.935 161.371 154.968 161.442 155.019 161.5C155.069 161.557 155.135 161.599 155.208 161.62C155.418 161.683 155.637 161.71 155.856 161.7C157.156 161.725 158.432 161.354 159.516 160.636C160.102 160.232 160.629 159.747 161.08 159.196C161.462 158.732 161.93 158.348 162.46 158.064C162.916 157.836 163.296 157.7 163.552 157.584C163.684 157.516 163.822 157.46 163.964 157.416Z" fill="#EB996E"/>
<path d="M160.916 160.887C160.944 160.939 160.392 161.263 159.8 161.767C159.208 162.271 158.792 162.755 158.744 162.719C158.962 162.283 159.28 161.904 159.672 161.615C160.02 161.274 160.448 161.023 160.916 160.887Z" fill="#EB996E"/>
<path d="M163.6 149.97C163.6 150.03 163.012 150.066 162.368 150.37C161.724 150.674 161.316 151.102 161.272 151.058C161.523 150.681 161.873 150.38 162.283 150.187C162.694 149.993 163.149 149.916 163.6 149.962V149.97Z" fill="#EB996E"/>
<path d="M159.44 162.944C159.44 162.98 159.012 162.772 158.292 162.604C157.094 162.308 155.837 162.361 154.668 162.756C154.538 162.805 154.404 162.845 154.268 162.876C154.119 162.903 153.965 162.87 153.84 162.784L152.8 162C152.465 161.778 152.15 161.527 151.86 161.248C152.219 161.43 152.563 161.642 152.888 161.88L153.964 162.612C154.136 162.744 154.364 162.644 154.616 162.552C154.878 162.461 155.145 162.387 155.416 162.328C156.384 162.137 157.383 162.178 158.332 162.448C158.617 162.529 158.894 162.635 159.16 162.764C159.348 162.872 159.448 162.932 159.44 162.944Z" fill="#EB996E"/>
<path d="M114.212 101.822C111.648 101.09 110.512 100.774 110.512 100.774V99.5978H111.532C112.556 99.5978 114.028 98.3218 114.028 98.3218L116.216 94.9738L116.496 92.8259C116.264 90.1779 113.072 91.2259 113.072 91.2259C112.92 90.3019 108.832 89.3738 105.76 88.8018C104.731 88.6096 103.672 88.6484 102.66 88.9154C101.648 89.1824 100.708 89.671 99.9079 90.3458L96.9599 92.8338L88.1279 100.558L65.3279 119.818L50.3399 115.394C50.3399 115.394 45.5719 129.974 44.7999 135.198C43.3079 145.234 57.1039 151.922 63.1999 146.758C67.9279 142.758 95.5039 113.046 100.072 108.122H100.108C102.908 107.766 107.66 104.922 107.66 104.922L110.096 105.21C110.096 105.21 116.568 106.446 117.336 105.178C117.912 104.198 116.776 102.554 114.212 101.822Z" fill="#FFBE9D"/>
<path d="M100.936 98.9121C100.936 98.9121 101 99.0041 101.076 99.1921C101.187 99.4575 101.275 99.7318 101.34 100.012C101.557 100.939 101.593 101.9 101.444 102.84C101.297 103.781 100.965 104.684 100.468 105.496C100.32 105.742 100.152 105.975 99.9639 106.192C99.8319 106.348 99.7519 106.428 99.7399 106.416C99.7279 106.404 99.9959 106.048 100.34 105.424C101.248 103.786 101.552 101.88 101.2 100.04C101.06 99.3401 100.9 98.9241 100.936 98.9121Z" fill="#EB996E"/>
<path d="M102.588 90.7441C102.669 90.7231 102.752 90.7083 102.836 90.7001C103.004 90.6761 103.236 90.6441 103.56 90.6161C104.454 90.5179 105.356 90.5273 106.248 90.6441C106.867 90.7352 107.469 90.9157 108.036 91.1801C108.694 91.4799 109.276 91.9259 109.736 92.4841C110.26 93.1054 110.551 93.8909 110.556 94.7041C110.548 95.1351 110.44 95.5583 110.24 95.9401C110.027 96.3248 109.757 96.6753 109.44 96.9801C108.842 97.5583 108.186 98.0743 107.484 98.5201C107.152 98.7439 106.799 98.9367 106.432 99.0961C106.241 99.1719 106.037 99.206 105.832 99.1961C105.725 99.191 105.621 99.1634 105.526 99.1152C105.431 99.0669 105.347 98.999 105.28 98.9161C105.157 98.7518 105.096 98.5491 105.108 98.3441C105.112 98.1573 105.146 97.9723 105.208 97.7961C105.323 97.4691 105.481 97.1585 105.676 96.8721C106.028 96.3554 106.5 95.9314 107.052 95.6361L107.076 95.7761L104.348 95.2561L103.608 95.1041C103.52 95.0916 103.434 95.0687 103.352 95.0361C103.44 95.036 103.529 95.044 103.616 95.0601L104.36 95.1761L107.1 95.6281L107.312 95.6641L107.124 95.7681C106.601 96.0598 106.154 96.471 105.82 96.9681C105.635 97.243 105.488 97.5417 105.384 97.8561C105.316 98.0051 105.285 98.1683 105.293 98.3319C105.301 98.4956 105.349 98.6548 105.432 98.7961C105.556 98.9106 105.712 98.983 105.88 99.0031C106.047 99.0232 106.217 98.99 106.364 98.9081C106.717 98.7542 107.055 98.5667 107.372 98.3481C108.062 97.9096 108.705 97.4016 109.292 96.8321C109.598 96.5629 109.847 96.236 110.026 95.8701C110.205 95.5043 110.311 95.1066 110.336 94.7001C110.332 93.9339 110.062 93.1928 109.572 92.6041C109.131 92.065 108.574 91.6318 107.944 91.3361C107.394 91.072 106.81 90.8888 106.208 90.7921C105.329 90.6631 104.438 90.6309 103.552 90.6961L102.824 90.7401C102.746 90.7514 102.666 90.7527 102.588 90.7441Z" fill="#EB996E"/>
<path d="M113.104 91.3516C113.144 91.4922 113.167 91.6373 113.172 91.7836C113.211 92.1823 113.227 92.583 113.22 92.9836C113.223 94.31 112.879 95.6143 112.224 96.7676C111.424 98.1076 110.172 98.9716 109.136 99.1076C108.93 99.1358 108.72 99.1142 108.523 99.0446C108.327 98.975 108.15 98.8595 108.008 98.7076C107.934 98.6233 107.877 98.5255 107.84 98.4196C107.824 98.3846 107.817 98.346 107.82 98.3076C107.889 98.4315 107.972 98.547 108.068 98.6516C108.209 98.7777 108.377 98.87 108.56 98.9213C108.742 98.9726 108.934 98.9816 109.12 98.9476C110.072 98.7916 111.28 97.9396 112.044 96.6516C112.679 95.5248 113.032 94.2606 113.072 92.9676C113.124 91.9716 113.068 91.3516 113.104 91.3516Z" fill="#EB996E"/>
<path d="M107.444 102.775C107.42 102.747 107.628 102.567 107.876 102.207C108.194 101.744 108.392 101.209 108.452 100.651C108.503 100.09 108.411 99.5262 108.184 99.011C108.012 98.611 107.844 98.395 107.872 98.375C108.066 98.5246 108.219 98.7215 108.316 98.947C108.598 99.4749 108.718 100.074 108.66 100.67C108.602 101.266 108.37 101.831 107.992 102.295C107.852 102.498 107.663 102.663 107.444 102.775Z" fill="#EB996E"/>
<path d="M103.556 95.2012C103.7 95.4691 103.745 95.7792 103.684 96.0772C103.658 96.4056 103.563 96.7247 103.404 97.0132C103.223 97.3655 102.994 97.6912 102.724 97.9812C102.215 98.4891 101.602 98.8807 100.928 99.1292C100.662 99.2581 100.381 99.3522 100.092 99.4092C100.335 99.2472 100.595 99.1131 100.868 99.0092C101.501 98.7287 102.079 98.3357 102.572 97.8492C102.83 97.5711 103.053 97.2621 103.236 96.9292C103.392 96.6649 103.495 96.3728 103.54 96.0692C103.575 95.7812 103.581 95.4903 103.556 95.2012Z" fill="#EB996E"/>
<path d="M120.564 96.375L109.312 102.507C109.312 102.507 115.332 103.999 120.8 109.779C123.772 112.927 126.099 116.628 127.648 120.671L138.848 113.215C138.848 113.215 132.82 99.559 120.564 96.375Z" fill="#009B73"/>
<path d="M111.296 102.28L120.38 97.0801H120.408H120.436C122.042 97.5126 123.587 98.1484 125.032 98.9721C126.674 99.9224 128.206 101.052 129.6 102.34C131.145 103.757 132.561 105.309 133.832 106.976C135.21 108.754 136.432 110.648 137.484 112.636L137.528 112.72L137.448 112.772L136.86 113.172L128.212 118.952L128.108 119.02L128.064 118.908C126.841 115.882 125.16 113.063 123.08 110.548C121.427 108.577 119.515 106.839 117.396 105.38C116.014 104.421 114.54 103.601 112.996 102.932C112.452 102.7 112.028 102.532 111.736 102.44L111.408 102.328L111.296 102.288L111.412 102.312L111.748 102.408C112.044 102.5 112.472 102.648 113.02 102.868C114.586 103.513 116.082 104.318 117.484 105.268C119.624 106.719 121.556 108.456 123.224 110.432C125.328 112.955 127.028 115.789 128.264 118.832L128.116 118.788L136.76 113L137.348 112.6L137.312 112.732C136.266 110.756 135.054 108.874 133.688 107.104C132.427 105.444 131.021 103.9 129.488 102.488C128.102 101.205 126.58 100.078 124.948 99.1281C123.518 98.3038 121.99 97.664 120.4 97.2241H120.456L111.296 102.28Z" fill="white"/>
<path d="M129.716 105.976C129.42 107.708 127.228 108.756 124.816 108.316C122.404 107.876 120.68 106.116 120.976 104.384C121.272 102.652 123.464 101.604 125.876 102.044C128.288 102.484 130 104.244 129.716 105.976Z" fill="#FAFAFA"/>
<path d="M124.472 106.53L124.072 106.962L123.624 106.526L124 106.126C123.678 105.788 123.444 105.376 123.32 104.926L124.076 104.598C124.177 105.016 124.391 105.399 124.696 105.702C125.004 106.002 125.204 106.026 125.32 105.898C125.72 105.466 123.94 104.334 124.852 103.326C125.252 102.902 125.86 102.826 126.532 103.326L126.932 102.902L127.38 103.338L127 103.738C127.252 104.017 127.441 104.347 127.552 104.706L126.808 105.054C126.708 104.71 126.525 104.396 126.276 104.138C125.964 103.838 125.752 103.838 125.632 103.97C125.256 104.37 127.02 105.518 126.116 106.518C125.744 106.93 125.136 107.01 124.472 106.53Z" fill="#455A64"/>
<path d="M113.864 100.836C113.864 100.836 115.772 101.804 113.94 103.236L111.14 102.148L113.864 100.836Z" fill="#FAFAFA"/>
<path d="M118.988 97.9563C118.988 97.9563 120.828 99.9003 122.588 97.8763L120.42 97.1523L118.988 97.9563Z" fill="#FAFAFA"/>
<path d="M127.016 116.308C127.016 116.308 129.492 114.308 130.936 117.012L128.172 118.86L127.016 116.308Z" fill="#FAFAFA"/>
<path d="M136.152 110.479C136.152 110.479 134.364 111.599 135.576 113.907L137.408 112.683L136.152 110.479Z" fill="#FAFAFA"/>
<path d="M129.524 116.967C129.519 117.115 129.471 117.258 129.385 117.379C129.3 117.499 129.18 117.592 129.042 117.645C128.905 117.698 128.754 117.71 128.61 117.678C128.465 117.646 128.333 117.572 128.231 117.465C128.128 117.359 128.059 117.224 128.033 117.079C128.006 116.934 128.023 116.784 128.081 116.648C128.139 116.512 128.236 116.396 128.36 116.315C128.483 116.234 128.628 116.191 128.776 116.191C128.876 116.193 128.975 116.214 129.067 116.254C129.159 116.294 129.242 116.352 129.311 116.424C129.381 116.496 129.435 116.581 129.472 116.674C129.508 116.768 129.526 116.867 129.524 116.967Z" fill="#455A64"/>
<path d="M137.028 112.196C137.022 112.343 136.974 112.484 136.888 112.604C136.803 112.723 136.684 112.814 136.547 112.867C136.41 112.919 136.261 112.93 136.118 112.898C135.974 112.866 135.844 112.793 135.742 112.687C135.64 112.581 135.572 112.448 135.545 112.304C135.518 112.16 135.535 112.011 135.592 111.876C135.649 111.741 135.745 111.625 135.867 111.544C135.99 111.463 136.133 111.42 136.28 111.42C136.38 111.421 136.479 111.443 136.571 111.483C136.663 111.523 136.746 111.58 136.815 111.652C136.885 111.725 136.939 111.81 136.976 111.903C137.012 111.996 137.03 112.096 137.028 112.196Z" fill="#455A64"/>
<path d="M121.572 97.8789C121.572 98.1549 121.172 98.3789 120.712 98.3789C120.252 98.3789 119.856 98.1549 119.856 97.8789C119.856 97.6029 120.256 97.3789 120.716 97.3789C121.176 97.3789 121.572 97.5989 121.572 97.8789Z" fill="#455A64"/>
<path d="M114.26 102.027C114.299 102.199 114.283 102.379 114.216 102.542C114.148 102.705 114.031 102.843 113.881 102.937C113.732 103.031 113.557 103.076 113.381 103.066C113.204 103.056 113.035 102.991 112.897 102.881C112.759 102.771 112.659 102.621 112.61 102.451C112.561 102.281 112.566 102.101 112.625 101.934C112.683 101.767 112.791 101.623 112.935 101.521C113.079 101.418 113.251 101.363 113.428 101.363C113.626 101.344 113.823 101.402 113.979 101.526C114.134 101.65 114.235 101.83 114.26 102.027Z" fill="#455A64"/>
<path d="M121.156 101.6C121.156 102.024 120.628 102.368 119.976 102.368C119.324 102.368 118.8 102.036 118.8 101.6C118.8 101.164 119.328 100.832 119.98 100.832C120.632 100.832 121.156 101.2 121.156 101.6Z" fill="#FAFAFA"/>
<path d="M130.632 111.887C130.1 112.131 129.432 111.795 129.168 111.139C129.021 110.861 128.987 110.536 129.073 110.233C129.158 109.93 129.357 109.672 129.628 109.511C130.16 109.267 130.828 109.603 131.092 110.263C131.238 110.541 131.272 110.865 131.187 111.167C131.101 111.469 130.902 111.727 130.632 111.887Z" fill="#FAFAFA"/>
<path d="M114.032 98.3231L118.652 103.199C118.652 103.199 120.5 105.315 121.744 104.315C122.988 103.315 121.24 101.451 120.872 100.907C120.504 100.363 115.976 94.8711 115.976 94.8711L114.032 98.3231Z" fill="#FFBE9D"/>
<path d="M116.4 93.9398C116.382 94.2284 116.321 94.5128 116.22 94.7838C116.029 95.4517 115.761 96.0948 115.42 96.6998C115.072 97.3086 114.627 97.8571 114.104 98.3238C113.898 98.5281 113.657 98.6935 113.392 98.8118C113.584 98.6011 113.788 98.402 114.004 98.2158C114.482 97.7366 114.897 97.199 115.24 96.6158C116.036 95.1998 116.344 93.9158 116.4 93.9398Z" fill="#EB996E"/>
<path d="M73.4319 112.971C73.3672 113.048 73.2948 113.119 73.2159 113.183L72.5719 113.759L70.1719 115.843C68.1359 117.591 65.3079 119.995 62.172 122.615C59.036 125.235 56.12 127.599 54 129.231C52.944 130.063 52.076 130.715 51.468 131.163L50.764 131.663C50.6857 131.726 50.6013 131.781 50.512 131.827C50.5833 131.756 50.6595 131.691 50.74 131.631L51.42 131.095C52.012 130.631 52.864 129.963 53.908 129.119C56 127.435 58.864 125.075 62.016 122.455C65.1679 119.835 67.9919 117.463 70.0719 115.731L72.5159 113.695L73.1879 113.151C73.2637 113.083 73.3454 113.023 73.4319 112.971Z" fill="#EB996E"/>
</svg>
