<svg width="722" height="722" viewBox="0 0 722 722" fill="none" xmlns="http://www.w3.org/2000/svg">
<path d="M30.1363 549.082C30.1363 549.082 22.252 550.786 28.0569 567.854C30.9151 576.673 34.3545 585.293 38.3526 593.658C38.3526 593.658 39.2479 597.571 36.0567 597.687C32.8654 597.802 26.1653 595.723 24.2303 599.333C22.2954 602.943 24.548 607.217 29.8908 611.332C35.2336 615.448 46.5979 624.892 47.6231 625.772C48.6484 626.653 49.4859 628.502 47.3199 628.92C45.1539 629.339 29.5154 628.718 29.6598 636.14C29.8042 643.563 46.5546 652.602 48.4318 653.613C50.309 654.624 50.5833 655.519 50.2801 656.501C49.9768 657.483 44.7207 656.818 40.2732 656.818C35.8256 656.818 30.6417 657.598 31.0893 661.887C31.537 666.176 40.7497 676.327 65.8464 682.594L77.6583 684.702L85.5137 675.793C101.282 655.302 102.134 641.57 99.8093 637.945C97.4844 634.321 92.9503 636.805 89.528 639.693C86.1057 642.581 82.3946 646.292 81.4994 645.671C80.6041 645.05 80.3442 644.227 81.1239 642.234C81.9037 640.241 89.398 622.812 84.8639 616.892C80.3297 610.971 68.5034 621.224 66.5395 622.235C64.5757 623.245 64.0847 621.238 64.3446 619.953C64.6046 618.668 67.6225 604.185 69.2254 597.629C70.8282 591.073 70.0773 586.395 66.1785 584.72C62.2797 583.044 58.482 588.922 55.9117 590.813C53.3414 592.705 51.5797 589.095 51.5797 589.095C49.4918 580.06 46.8049 571.174 43.5366 562.496C37.4285 545.5 30.0208 549.197 30.0208 549.197" fill="#F5F5F5"/>
<path d="M77.8027 687.691C73.3696 675.186 65.8464 652.833 59.2762 633.685C52.706 614.538 46.7712 597.196 42.3958 584.676C40.201 578.424 38.4248 573.37 37.1974 569.846L35.7534 565.817C35.5946 565.37 35.4791 565.023 35.3924 564.763C35.3058 564.503 35.2914 564.402 35.2914 564.402L35.4358 564.749L35.8256 565.789L37.2696 569.803C38.5548 573.283 40.3598 578.337 42.5836 584.589C47.0311 597.095 53.0237 614.408 59.5794 633.556C66.1352 652.703 73.644 675.071 78.0482 687.604" fill="#E0E0E0"/>
<path d="M33.4719 602.668C33.7497 602.757 34.0163 602.878 34.2661 603.029C34.7715 603.274 35.4791 603.65 36.3599 604.112C38.1216 605.065 40.5042 606.437 43.1178 607.996L49.7747 612.025L51.8107 613.238C52.0733 613.361 52.3166 613.521 52.5327 613.715C52.2577 613.624 51.9918 613.508 51.7385 613.368C51.2331 613.123 50.5256 612.733 49.6447 612.256C47.8975 611.289 45.5293 609.888 42.9301 608.328L36.23 604.343L34.1939 603.145C33.9313 603.022 33.6881 602.861 33.4719 602.668Z" fill="#E0E0E0"/>
<path d="M53.428 613.066C53.3414 613.066 55.955 607.969 59.204 601.788C62.453 595.608 65.2832 590.641 65.3699 590.684C65.4565 590.727 62.8573 595.781 59.5939 601.962C56.3304 608.142 53.5435 613.124 53.428 613.066Z" fill="#E0E0E0"/>
<path d="M62.1931 642.928C62.3727 642.696 62.5707 642.479 62.7851 642.278L64.4746 640.546C65.9186 639.102 67.8536 637.08 69.9329 634.77C72.0123 632.459 73.8173 630.322 75.1169 628.748L76.662 626.9C76.8368 626.664 77.0351 626.446 77.254 626.25C77.1289 626.516 76.9686 626.763 76.7775 626.986C76.4454 627.449 75.9544 628.113 75.3335 628.921C74.0916 630.524 72.3011 632.705 70.2217 635.015C68.1424 637.325 66.1496 639.347 64.6768 640.791C63.9403 641.499 63.3338 642.062 62.9006 642.437C62.4674 642.813 62.222 642.957 62.1931 642.928Z" fill="#E0E0E0"/>
<path d="M42.0637 637.512C42.3381 637.516 42.6104 637.56 42.8724 637.642L45.0384 638.133C46.8722 638.566 49.3704 639.187 52.1717 639.894L59.2762 641.772L61.4133 642.378C61.6821 642.442 61.9435 642.534 62.1931 642.652C61.9185 642.65 61.6459 642.606 61.3844 642.522L59.204 642.031C57.3846 641.598 54.872 640.977 52.0706 640.255C49.2693 639.533 46.7856 638.884 44.9662 638.393L42.829 637.786C42.5657 637.719 42.3094 637.628 42.0637 637.512Z" fill="#E0E0E0"/>
<path d="M46.4246 664.861C46.7768 664.878 47.1257 664.936 47.4643 665.035L50.2512 665.656C52.5905 666.204 55.825 666.97 59.4062 667.85C62.9873 668.731 66.2074 669.54 68.5322 670.146L71.2903 670.883C71.6293 670.966 71.9623 671.072 72.2866 671.201C71.9393 671.183 71.5952 671.125 71.2614 671.027L68.4745 670.406C66.1208 669.858 62.8862 669.092 59.3195 668.211C55.7528 667.331 52.5183 666.522 50.179 665.915L47.4209 665.179C47.0827 665.093 46.75 664.987 46.4246 664.861Z" fill="#E0E0E0"/>
<path d="M71.709 670.883C71.9254 670.571 72.1721 670.281 72.4455 670.017L74.496 667.764C76.2288 665.858 78.6258 663.216 81.1817 660.212C83.7376 657.209 85.9902 654.436 87.593 652.444L89.528 650.061C89.7538 649.761 89.9999 649.476 90.2644 649.209C90.0877 649.541 89.8798 649.855 89.6435 650.148C89.2392 650.74 88.6183 651.592 87.8385 652.602C86.279 654.667 84.0552 657.469 81.4849 660.458C78.9146 663.447 76.5031 666.075 74.7126 667.938C73.8173 668.876 73.0953 669.613 72.5754 670.118C72.3104 670.399 72.0204 670.655 71.709 670.883Z" fill="#E0E0E0"/>
<path d="M77.7016 260.339C77.6845 260.007 77.6845 259.675 77.7016 259.343C77.7016 258.664 77.7016 257.74 77.7016 256.57C77.7016 254.13 77.6294 250.65 77.5717 246.289L77.8027 246.52C65.7309 246.607 46.4246 246.665 24.7068 246.665L25.0823 246.289V253.394C25.0823 255.747 25.0823 258.043 25.0823 260.31L24.548 259.92L62.3519 260.094L73.5285 260.195H76.5609H77.6439C77.3169 260.215 76.989 260.215 76.662 260.195H73.7018L62.6118 260.31L24.548 260.7H24.187V246.26L24.5624 245.885C46.2224 245.885 65.5865 245.885 77.6583 246.029H77.976V246.26C77.976 250.679 77.8749 254.202 77.846 256.686C77.846 257.827 77.846 258.722 77.846 259.401C77.817 259.716 77.7688 260.03 77.7016 260.339Z" fill="#E0E0E0"/>
<path d="M65.1822 274.231C65.1646 273.904 65.1646 273.576 65.1822 273.249C65.1822 272.556 65.1822 271.631 65.1822 270.476C65.1822 268.021 65.1822 264.556 65.0666 260.181L65.2832 260.412C53.2258 260.498 33.9051 260.556 12.1874 260.556C12.3606 260.397 11.8119 260.931 12.5628 260.181V274.202L12.1874 273.841L49.9913 274L61.1823 274.115H64.2147H65.2832C64.9563 274.136 64.6283 274.136 64.3013 274.115H61.3411L50.2512 274.216L12.1874 274.39H11.7253V274.014C11.7253 271.761 11.7253 269.451 11.7253 267.112V260.209L12.1007 259.834C33.7607 259.834 53.1392 259.834 65.1966 259.993H65.4421V260.209C65.4421 264.643 65.3554 268.151 65.3266 270.635C65.3266 271.776 65.3266 272.686 65.3266 273.364C65.3137 273.658 65.2652 273.949 65.1822 274.231Z" fill="#E0E0E0"/>
<path d="M65.4565 422.081C65.4389 421.754 65.4389 421.426 65.4565 421.099C65.4565 420.406 65.4565 419.497 65.4565 418.327C65.4565 415.872 65.4565 412.406 65.341 408.046L65.5576 408.262C53.4858 408.363 34.1795 408.421 12.4617 408.421L12.8372 408.046V422.067L12.4617 421.706L50.2656 421.865L61.4422 421.98H64.4746H65.5576C65.2308 422.007 64.9024 422.007 64.5757 421.98H61.6877L50.5978 422.081L12.5339 422.255H11.9996V421.879C11.9996 419.626 11.9996 417.316 11.9996 414.977V407.858L12.3751 407.482C34.0351 407.482 53.3991 407.482 65.4709 407.627H65.702V407.858C65.702 412.277 65.6153 415.785 65.572 418.269C65.572 419.424 65.572 420.32 65.572 420.998C65.5592 421.362 65.5206 421.723 65.4565 422.081Z" fill="#E0E0E0"/>
<path d="M77.1385 394.646H32.3745V408.697H77.1385V394.646Z" fill="#F5F5F5"/>
<path d="M371.613 68.0432C371.596 67.7113 371.596 67.3787 371.613 67.0468C371.613 66.3681 371.613 65.444 371.613 64.2743C371.613 61.834 371.613 58.3539 371.483 53.993L371.715 54.2241C359.643 54.3107 340.336 54.3685 318.619 54.3685L318.994 53.993V61.0975C318.994 63.4512 318.994 65.7472 318.994 68.0143L318.633 67.6388L356.437 67.8121L367.614 67.9132H370.646H371.729C371.402 67.9336 371.074 67.9336 370.747 67.9132H367.787L356.697 68.0287L318.633 68.1876H318.272V67.8266C318.272 65.5595 318.272 63.2635 318.272 60.9098V54.0219L318.647 53.6465C340.307 53.6465 359.672 53.6465 371.743 53.7909H371.974V54.0219C371.974 58.4406 371.873 61.9639 371.844 64.4476C371.844 65.5884 371.844 66.4836 371.844 67.1623C371.785 67.4602 371.708 67.7543 371.613 68.0432Z" fill="#E0E0E0"/>
<path d="M665.236 362.142C665.213 361.795 665.213 361.448 665.236 361.102C665.236 360.365 665.236 359.427 665.236 358.214C665.236 355.687 665.15 352.236 665.078 348.034L665.366 348.322L640.703 348.409L641.078 348.034V355.254C641.078 357.607 641.078 359.874 641.078 362.04L640.732 361.694C647.879 361.694 654.002 361.795 658.363 361.867L663.504 361.954C664.135 361.949 664.767 361.978 665.395 362.04C664.815 362.11 664.232 362.138 663.648 362.127L658.608 362.228C654.276 362.228 648.038 362.373 640.732 362.387H640.385V362.04C640.385 359.874 640.385 357.607 640.385 355.254V348.034L640.761 347.658L665.424 347.745H665.713V348.034C665.713 352.366 665.597 355.817 665.569 358.387C665.569 359.513 665.569 360.438 665.496 361.16C665.451 361.496 665.363 361.826 665.236 362.142Z" fill="#E0E0E0"/>
<path d="M693.669 170.22C693.651 169.893 693.651 169.566 693.669 169.239C693.669 168.545 693.669 167.621 693.669 166.466C693.669 164.011 693.596 160.546 693.539 156.17L693.77 156.401C681.698 156.488 662.392 156.546 640.674 156.546C640.847 156.387 640.298 156.921 641.049 156.17V163.289C641.049 165.629 641.049 167.939 641.049 170.192L640.688 169.831L678.492 169.989L689.669 170.105H692.701H693.784C693.457 170.122 693.129 170.122 692.802 170.105H689.842L678.68 170.394L640.616 170.567H640.255V170.192C640.255 167.939 640.255 165.629 640.255 163.289V156.17L640.631 155.795C662.291 155.795 681.655 155.795 693.726 155.954H693.957V156.17C693.957 160.603 693.856 164.112 693.828 166.596C693.828 167.732 693.828 168.642 693.828 169.325C693.792 169.626 693.739 169.925 693.669 170.22Z" fill="#E0E0E0"/>
<path d="M585.325 44.7363H532.229V58.7864H585.325V44.7363Z" fill="#EBEBEB"/>
<path d="M702.289 362.141H649.193V376.191H702.289V362.141Z" fill="#EBEBEB"/>
<path d="M663.171 142.133H641.136V156.183H663.171V142.133Z" fill="#EBEBEB"/>
<path d="M103.203 58.8008H50.1068V72.8509H103.203V58.8008Z" fill="#EBEBEB"/>
<path d="M118.928 58.8006C118.928 58.8006 118.928 58.7139 118.928 58.5407C118.928 58.3674 118.928 58.1219 118.928 57.8331C118.928 57.1689 118.928 56.2447 118.928 55.0606C118.928 52.6347 118.928 49.1547 118.841 44.7505L119 44.9237L65.9042 45.0248L66.1785 44.7505V51.8694C66.1785 54.2087 66.1785 56.5191 66.1785 58.7717L65.9186 58.5118L103.766 58.6273L114.928 58.6995H117.946H119.014C119.014 58.6995 119.014 58.6995 118.769 58.6995H118.018H115.13H104.011L65.9908 58.815H65.7309V58.5407C65.7309 56.288 65.7309 53.9776 65.7309 51.6383V44.7649C66.2796 44.2306 65.8897 44.6205 66.0052 44.505L119.101 44.6061H119.274V44.7649C119.274 49.2124 119.274 52.7213 119.173 55.1761C119.173 56.3458 119.173 57.2555 119.173 57.9053C119.173 58.1797 119.173 58.4107 119.173 58.5984C119.173 58.7861 118.942 58.815 118.928 58.8006Z" fill="#E0E0E0"/>
<path d="M334.069 82.0917C334.052 81.7598 334.052 81.4273 334.069 81.0954C334.069 80.4167 334.069 79.4925 334.069 78.3229C334.069 75.8681 333.997 72.4025 333.939 68.0416L334.17 68.2726C322.099 68.3593 302.792 68.4171 281.075 68.4171L281.45 68.0416V75.1317C281.45 77.4709 281.45 79.7813 281.45 82.0484L281.089 81.673L318.893 81.8463L330.07 81.9473H333.102C333.463 81.9243 333.824 81.9243 334.185 81.9473C333.858 81.9677 333.53 81.9677 333.203 81.9473H330.315L319.225 82.0484L281.161 82.2217H280.786V67.7817L281.161 67.4063C302.821 67.4063 322.185 67.4062 334.257 67.5506H334.488V67.7817C334.488 72.2003 334.387 75.7237 334.358 78.2074C334.358 79.3481 334.358 80.2434 334.358 80.9221C334.296 81.3196 334.199 81.711 334.069 82.0917Z" fill="#E0E0E0"/>
<path d="M676.918 622.595C678.418 623.366 679.746 624.43 680.825 625.725C681.905 627.02 682.712 628.519 683.2 630.133C684.149 633.371 684.347 636.784 683.777 640.111C682.853 646.536 678.998 652.962 674.897 658.002C669.597 653.092 668.586 644.789 668.327 640.529C667.937 633.815 671.316 621.425 676.918 622.595Z" fill="#EBEBEB"/>
<path d="M680.904 668.847C680.574 666.982 680.747 665.063 681.404 663.287C682.061 661.51 683.179 659.941 684.644 658.739C686.119 657.571 687.812 656.707 689.624 656.199C691.436 655.691 693.332 655.548 695.199 655.779C696.07 655.79 696.927 655.992 697.711 656.372C698.494 656.751 699.185 657.298 699.734 657.974C700.148 658.674 700.366 659.472 700.366 660.284C700.366 661.097 700.148 661.895 699.734 662.595C698.868 663.979 697.653 665.109 696.21 665.873C691.402 668.689 686.247 670.537 680.961 668.761" fill="#EBEBEB"/>
<path d="M674.045 683.606C674.174 682.173 674.46 680.76 674.897 679.389C675.314 677.882 675.905 676.428 676.658 675.057C677.516 673.361 678.481 671.722 679.546 670.148C681.558 667.26 684.251 664.914 687.387 663.317C688.339 662.859 689.336 662.501 690.362 662.249C691.098 662.09 691.503 662.047 691.517 662.105C691.532 662.162 689.929 662.538 687.618 663.78C684.651 665.457 682.095 667.775 680.138 670.566C679.089 672.116 678.125 673.721 677.25 675.375C676.486 676.702 675.862 678.106 675.388 679.562C675.022 680.936 674.574 682.286 674.045 683.606Z" fill="#E0E0E0"/>
<path d="M675.186 632.256C675.305 632.971 675.358 633.697 675.344 634.422C675.344 635.866 675.445 637.844 675.474 640.342C675.547 645.339 675.575 652.241 675.474 659.88C675.373 667.518 674.955 674.406 674.608 679.402C674.435 681.886 674.261 683.908 674.117 685.294C674.094 686.024 673.997 686.75 673.828 687.46C673.769 686.734 673.769 686.005 673.828 685.28C673.828 683.749 673.973 681.771 674.074 679.374C674.305 674.377 674.565 667.475 674.723 659.865C674.882 652.255 674.94 645.425 675.012 640.342C675.012 637.945 675.084 636.01 675.099 634.422C675.073 633.699 675.102 632.975 675.186 632.256Z" fill="#E0E0E0"/>
<path d="M672.63 671.086C671.543 667.261 669.561 663.75 666.846 660.844C664.131 657.938 660.763 655.722 657.02 654.379C655.114 653.715 652.688 653.397 651.359 654.913C650.031 656.429 650.609 658.797 651.547 660.588C653.557 664.294 656.62 667.321 660.349 669.287C664.078 671.253 668.306 672.07 672.5 671.635" fill="#EBEBEB"/>
<path d="M658.984 659.908C659.359 659.988 659.719 660.124 660.052 660.313C660.717 660.616 661.655 661.107 662.81 661.757C665.831 663.428 668.518 665.64 670.738 668.283C671.935 669.779 672.877 671.463 673.525 673.265C674.373 675.737 674.654 678.367 674.348 680.962C674.335 681.346 674.262 681.726 674.131 682.088C673.987 682.088 674.131 680.456 673.929 677.886C673.758 676.406 673.409 674.951 672.89 673.554C672.231 671.838 671.315 670.231 670.175 668.789C667.99 666.218 665.412 664.01 662.536 662.247C661.305 661.542 660.119 660.76 658.984 659.908Z" fill="#E0E0E0"/>
<path d="M541.702 660.314L542.843 687.446L557.5 687.129L556.402 659.924L541.702 660.314Z" fill="#F68410"/>
<path d="M550.048 686.261C550.164 686.261 549.933 680.311 549.543 672.99C549.153 665.669 548.706 659.734 548.59 659.734C548.475 659.734 548.691 665.684 549.095 673.019C549.5 680.355 549.919 686.275 550.048 686.261Z" fill="#263238"/>
<path d="M542.771 685.583L557.427 685.193L557.5 687.128L542.843 687.446L542.771 685.583Z" fill="#263238"/>
<path d="M557.153 678.436C557.054 678.221 556.917 678.025 556.749 677.858C556.335 677.368 555.876 676.918 555.377 676.515C554.638 675.918 553.816 675.432 552.936 675.071C551.854 674.6 550.679 674.382 549.5 674.436C548.428 674.486 547.378 674.756 546.414 675.227C545.451 675.699 544.594 676.364 543.897 677.179C543.486 677.676 543.151 678.231 542.901 678.825C542.786 679.035 542.717 679.266 542.698 679.504C543.12 678.762 543.603 678.057 544.142 677.396C545.529 675.88 547.461 674.976 549.514 674.883C551.568 674.853 553.57 675.526 555.189 676.789C556.46 677.714 557.095 678.479 557.153 678.436Z" fill="#263238"/>
<g opacity="0.3">
<path opacity="0.3" d="M556.72 667.662L556.835 670.651L542.15 670.926L542.049 668.673L556.72 667.662Z" fill="black"/>
</g>
<path d="M562.626 658.521L559.665 685.524L574.207 687.416L577.225 660.355L562.626 658.521Z" fill="#F68410"/>
<path d="M566.972 685.438C567.088 685.438 567.752 679.546 568.416 672.24C569.08 664.933 569.6 659.013 569.485 658.998C569.369 658.984 568.691 664.89 568.041 672.196C567.391 679.503 566.842 685.423 566.972 685.438Z" fill="#263238"/>
<path d="M559.882 683.662L574.423 685.496L574.207 687.416L559.665 685.525L559.882 683.662Z" fill="#263238"/>
<path d="M575.174 678.767C575.174 678.767 575.102 678.522 574.856 678.132C574.526 677.591 574.144 677.083 573.716 676.616C573.076 675.902 572.337 675.284 571.521 674.782C570.521 674.153 569.389 673.762 568.214 673.641C567.148 673.526 566.069 673.631 565.045 673.952C564.021 674.272 563.075 674.801 562.265 675.504C561.79 675.93 561.373 676.415 561.023 676.948C560.89 677.141 560.792 677.356 560.734 677.583C561.256 676.913 561.836 676.29 562.467 675.72C563.272 675.074 564.196 674.593 565.188 674.306C566.179 674.018 567.217 673.93 568.243 674.045C570.276 674.334 572.15 675.307 573.557 676.803C574.597 677.944 575.102 678.811 575.174 678.767Z" fill="#263238"/>
<g opacity="0.3">
<path opacity="0.3" d="M576.358 668.053L576.04 671.028L561.47 669.078L561.716 666.84L576.358 668.053Z" fill="black"/>
</g>
<path d="M558.092 603.376L557.514 529.082H528.634C528.634 529.082 526.352 547.522 527.435 554.959C528.518 562.395 536.215 603.477 536.215 603.477C536.215 603.477 538.699 658.031 539.926 672.038L557.947 670.406L558.092 603.376Z" fill="#263238"/>
<path d="M575.752 513.414C581.565 518.894 585.425 526.126 586.741 534.006C588.748 547.002 582.683 598.682 582.683 598.682L577.6 670.406H559.752L560.33 601.354L557.24 549.904L555.247 533.63L575.752 513.414Z" fill="#263238"/>
<path d="M559.94 597.644C559.92 597.495 559.92 597.345 559.94 597.196C559.94 596.85 559.868 596.417 559.81 595.911C559.723 594.713 559.608 593.124 559.478 591.189C559.218 587.189 558.886 581.688 558.611 575.58C558.337 569.471 558.135 564.028 558.077 559.97C558.077 557.963 558.077 556.345 558.077 555.219C558.077 554.714 558.077 554.295 558.077 553.934C558.059 553.785 558.059 553.635 558.077 553.486C558.092 553.635 558.092 553.785 558.077 553.934C558.077 554.295 558.077 554.714 558.077 555.219C558.077 556.418 558.178 558.021 558.25 559.955C558.424 564.028 558.669 569.5 558.929 575.565C559.189 581.63 559.463 587.117 559.651 591.175L559.839 595.897C559.839 596.417 559.839 596.835 559.839 597.196C559.888 597.341 559.922 597.492 559.94 597.644Z" fill="#455A64"/>
<path d="M581.73 601.831C580.856 601.835 579.983 601.782 579.116 601.672C577.029 601.526 574.933 601.55 572.849 601.744C570.769 601.945 568.708 602.307 566.683 602.827C565.854 603.093 565.011 603.31 564.156 603.477C564.92 603.038 565.742 602.707 566.597 602.495C568.618 601.866 570.699 601.45 572.806 601.253C574.916 601.053 577.041 601.077 579.145 601.325C580.024 601.386 580.892 601.556 581.73 601.831Z" fill="#455A64"/>
<path d="M553.182 602.524C552.424 602.436 551.672 602.306 550.929 602.134C547.305 601.579 543.598 602.207 540.359 603.924C539.714 604.324 539.049 604.69 538.366 605.022C538.885 604.439 539.5 603.95 540.186 603.578C543.434 601.648 547.284 600.995 550.987 601.744C551.757 601.879 552.499 602.142 553.182 602.524Z" fill="#455A64"/>
<path d="M553.355 603.462C551.7 604.387 549.913 605.055 548.056 605.44C546.231 605.97 544.338 606.223 542.439 606.191C542.439 606.047 544.922 605.715 547.926 604.964C550.929 604.213 553.312 603.332 553.355 603.462Z" fill="#455A64"/>
<path d="M559.001 552.793C558.801 553.057 558.579 553.303 558.337 553.529C558.12 553.76 557.832 554.035 557.485 554.338C557.139 554.641 556.749 554.988 556.301 555.349C555.238 556.202 554.103 556.96 552.908 557.616C551.424 558.458 549.815 559.057 548.142 559.392L547.262 559.594C544.074 560.289 540.774 560.289 537.587 559.594C536.629 559.376 535.688 559.092 534.771 558.742C534.426 558.628 534.097 558.473 533.789 558.28C533.789 558.193 535.233 558.785 537.659 559.247C540.801 559.849 544.032 559.815 547.16 559.146L548.012 558.944C549.625 558.628 551.179 558.062 552.619 557.269C553.812 556.646 554.951 555.927 556.027 555.118C557.933 553.717 558.944 552.721 559.001 552.793Z" fill="#455A64"/>
<path d="M565.081 534.468C565.081 534.468 565.153 534.771 565.268 535.291C565.384 535.811 565.514 536.605 565.701 537.515C566.062 539.479 566.568 542.193 567.145 545.442L567.03 545.284L574.77 548.172L574.495 548.258L578.409 543.175L579.347 541.962V542.136C578.914 538.295 578.495 534.699 578.149 531.537L578.466 531.696C576.773 532.512 574.975 533.09 573.124 533.414C571.492 533.746 570.048 533.963 568.864 534.107C567.68 534.251 566.741 534.353 566.091 534.396C565.765 534.431 565.436 534.431 565.109 534.396C565.42 534.338 565.733 534.3 566.048 534.28L568.792 533.876C569.976 533.688 571.405 533.443 573.022 533.082C574.827 532.738 576.576 532.15 578.221 531.335L578.51 531.176V531.493C578.885 534.656 579.318 538.266 579.766 542.092V542.193V542.28L578.827 543.493L574.9 548.561L574.799 548.691H574.64L566.914 545.688H566.799V545.572C566.265 542.266 565.831 539.508 565.514 537.5C565.384 536.591 565.268 535.854 565.196 535.291C565.136 535.02 565.097 534.745 565.081 534.468Z" fill="#455A64"/>
<path d="M549.211 537.052C549.231 537.302 549.231 537.553 549.211 537.803C549.211 538.366 549.211 539.117 549.124 540.027C549.038 542.048 548.908 544.85 548.749 548.2V548.315H548.648L541.298 552.156L541.139 552.243L541.023 552.113L536.576 547.506C536.215 547.131 535.854 546.77 535.507 546.395V546.322V546.221C535.507 542.366 535.507 538.741 535.594 535.55V535.232L535.897 535.362C537.623 535.987 539.425 536.376 541.254 536.518C542.901 536.705 544.345 536.778 545.586 536.85L548.359 536.951C548.685 536.916 549.014 536.916 549.341 536.951C549.015 536.996 548.687 537.02 548.359 537.023C547.709 537.023 546.771 537.023 545.572 537.023C544.374 537.023 542.93 536.951 541.24 536.806C539.364 536.682 537.513 536.303 535.738 535.68L536.042 535.478C536.042 538.669 536.042 542.294 536.042 546.164L535.969 545.99L537.038 547.088L541.471 551.709H541.197L548.576 547.94L548.474 548.099C548.72 544.806 548.908 542.063 549.067 540.07C549.139 539.146 549.196 538.395 549.254 537.803C549.227 537.553 549.213 537.303 549.211 537.052Z" fill="#455A64"/>
<path d="M557.601 549.703C557.32 549.038 557.131 548.339 557.037 547.623C556.709 545.921 556.497 544.199 556.402 542.468C556.291 540.737 556.291 539.001 556.402 537.27C556.412 536.547 556.519 535.828 556.72 535.133C556.864 535.133 556.619 538.425 556.864 542.439C557.11 546.454 557.745 549.674 557.601 549.703Z" fill="#455A64"/>
<path d="M581.73 554.165C581.73 554.165 581.484 554.324 581.008 554.526C580.342 554.793 579.662 555.024 578.972 555.219C574.347 556.499 569.46 556.499 564.835 555.219C564.142 555.031 563.462 554.8 562.799 554.526C562.541 554.451 562.297 554.334 562.077 554.179C562.077 554.092 563.174 554.468 564.965 554.887C569.557 555.965 574.336 555.965 578.928 554.887C580.632 554.497 581.701 554.092 581.73 554.165Z" fill="#455A64"/>
<path d="M561.846 390.748L566.568 396.885C566.568 396.885 568.849 400.408 567.059 401.217C565.499 401.881 564.474 399.903 564.474 399.903C564.474 399.903 563.478 395.397 561.586 396.495C561.312 396.654 561.788 399.845 562.048 401.477C562.146 402.053 562.461 402.57 562.929 402.921L568.127 406.892C569.089 407.628 570.231 408.092 571.434 408.235L573.282 408.451L574.726 411.484L583.102 408.061L576.43 399.397L572.849 393.91C572.587 393.675 572.269 393.51 571.926 393.429C571.583 393.348 571.225 393.355 570.885 393.448L570.062 393.665L569.441 393.029C569.256 392.844 569.024 392.712 568.77 392.648C568.515 392.585 568.248 392.592 567.997 392.668L567.478 392.813L566.034 391.369C565.571 390.907 562.38 387.932 561.774 388.192C561.59 388.353 561.445 388.552 561.347 388.776C561.249 389 561.202 389.243 561.209 389.487C561.216 389.731 561.277 389.97 561.387 390.188C561.497 390.406 561.654 390.597 561.846 390.748Z" fill="#FFBE9D"/>
<path d="M571.333 396.566C571.199 396.323 571.04 396.096 570.856 395.888C570.399 395.379 569.783 395.038 569.109 394.92C568.569 394.464 568.084 393.945 567.665 393.375C567.485 393.155 567.343 392.906 567.247 392.639C567.247 392.639 567.42 392.899 567.752 393.317C568.169 393.836 568.628 394.318 569.124 394.761C569.297 394.761 569.485 394.848 569.672 394.92C569.85 394.982 570.02 395.064 570.178 395.166C570.448 395.331 570.687 395.541 570.885 395.787C571.022 395.948 571.133 396.128 571.217 396.321C571.333 396.48 571.347 396.566 571.333 396.566Z" fill="#EB996E"/>
<path d="M572.315 395.324C572.235 395.204 572.138 395.097 572.026 395.006C571.89 394.897 571.729 394.825 571.557 394.794C571.386 394.764 571.209 394.777 571.044 394.833L570.943 394.732C570.532 394.33 570.16 393.89 569.831 393.418C570.275 393.781 570.685 394.182 571.059 394.616L571.16 394.732H571.088C571.275 394.673 571.474 394.663 571.667 394.703C571.859 394.744 572.037 394.833 572.185 394.963C572.315 395.122 572.329 395.324 572.315 395.324Z" fill="#EB996E"/>
<path d="M593.599 418.558C591.665 416.522 581.528 406.053 581.528 406.053L573.412 411.251L582.943 430.312L573.383 437.633L565.716 437.286L565.846 437.561H558.453L537.644 435.611C537.644 435.611 524.649 441.676 520.764 443.351C520.591 443.886 493.602 481.199 492.158 485.227L491.942 485.906C491.19 488.442 491.104 491.129 491.69 493.709C492.277 496.288 493.517 498.673 495.292 500.635L517.544 525.457L527.262 514.208L511.797 486.946L526.367 470.845L534.15 499.234L528.648 530.785C528.648 530.785 547.998 534.208 557.528 532.98C567.496 531.443 577.358 529.287 587.058 526.526L574.178 488.072L577.326 462.686C578.076 461.907 581.557 458.282 586.235 452.838C589.542 448.983 592.964 445.171 595.52 442.355C598.138 440.096 600.397 437.452 602.22 434.514C605.267 429.316 593.599 418.558 593.599 418.558Z" fill="#F68410"/>
<path d="M537.688 515.869C536.472 516.257 535.354 516.902 534.41 517.761C534.17 517.955 533.866 518.053 533.558 518.035C533.307 518.019 533.067 517.925 532.87 517.768C532.674 517.61 532.531 517.396 532.461 517.155L531.493 513.92C531.014 513.947 530.549 514.094 530.141 514.346C529.732 514.598 529.393 514.948 529.154 515.364L528.071 517.198L526.222 515.508L517.558 525.385C517.558 525.385 520.966 529.067 523.132 529.125C525.298 529.183 535.45 520.837 535.45 520.837L538.135 518.454C538.135 518.454 540.33 515.71 537.688 515.869Z" fill="#FFBE9D"/>
<path d="M572.907 503.018C572.577 503.44 572.21 503.831 571.81 504.187C571.088 504.909 570.005 505.92 568.604 507.075C564.972 510.205 561.078 513.016 556.965 515.479C552.827 517.948 548.478 520.046 543.969 521.746C542.251 522.396 540.85 522.887 539.854 523.19C539.35 523.364 538.833 523.499 538.309 523.595C538.775 523.362 539.257 523.164 539.753 523.003C540.72 522.656 542.106 522.136 543.81 521.443C552.701 517.863 560.99 512.939 568.387 506.844C569.831 505.675 570.914 504.707 571.68 503.956C572.062 503.61 572.473 503.296 572.907 503.018Z" fill="#263238"/>
<path d="M546.106 498.614C546.222 498.686 543.507 503.091 540.042 508.462C536.576 513.834 533.674 518.108 533.558 518.036C533.442 517.964 536.157 513.56 539.623 508.188C543.088 502.816 545.991 498.542 546.106 498.614Z" fill="#263238"/>
<path d="M576.243 460.78C576.17 460.78 576.243 459.683 576.127 457.892C576.012 456.102 575.91 453.69 575.665 451.005C575.42 448.319 575.102 445.907 574.77 444.174C574.438 442.442 574.091 441.402 574.163 441.373C574.634 442.222 574.956 443.145 575.116 444.102C575.613 446.363 575.961 448.654 576.156 450.961C576.379 453.265 576.485 455.578 576.474 457.892C576.524 458.861 576.447 459.832 576.243 460.78Z" fill="#263238"/>
<path d="M594.827 430.08C594.22 429.879 593.626 429.637 593.051 429.358C591.642 428.773 590.142 428.441 588.618 428.376C587.106 428.306 585.605 428.661 584.286 429.402C583.289 429.994 582.842 430.557 582.741 430.499C582.64 430.441 583.087 429.806 584.098 429.055C585.45 428.184 587.041 427.76 588.647 427.842C590.233 427.896 591.789 428.29 593.21 428.997C593.813 429.252 594.362 429.62 594.827 430.08Z" fill="#263238"/>
<path d="M589.903 425.779C588.415 425.916 586.971 426.353 585.657 427.064C584.495 427.986 583.515 429.117 582.769 430.4C582.808 429.941 582.962 429.499 583.217 429.115C583.739 428.122 584.504 427.277 585.441 426.66C586.385 426.055 587.469 425.702 588.589 425.635C589.032 425.57 589.484 425.62 589.903 425.779Z" fill="#263238"/>
<path d="M525.024 466.643C524.555 465.82 524.177 464.948 523.898 464.044C523.115 461.908 522.46 459.729 521.934 457.517C521.405 455.303 521.005 453.062 520.735 450.802C520.58 449.872 520.522 448.928 520.562 447.986C520.802 448.897 520.975 449.823 521.082 450.759C521.371 452.463 521.804 454.831 522.41 457.401C523.017 459.972 523.71 462.282 524.23 463.943C524.554 464.824 524.819 465.726 525.024 466.643Z" fill="#263238"/>
<path d="M538.525 441.98L558.929 442.269L557.023 423.843C557.023 423.843 558.467 424.594 558.828 417.042C559.189 409.49 559.824 396.667 559.824 396.667C555.579 394.71 550.89 393.919 546.237 394.376C541.585 394.833 537.139 396.521 533.356 399.266L532.215 400.104L538.525 441.98Z" fill="#FFBE9D"/>
<path d="M534.28 409.461C534.15 409.389 529.139 407.772 529.154 412.941C529.168 418.111 534.367 417.028 534.381 416.869C534.396 416.71 534.28 409.461 534.28 409.461Z" fill="#FFBE9D"/>
<path d="M558.597 409.042C558.727 409.042 563.377 407.872 563.059 413.027C562.741 418.182 557.644 416.81 557.644 416.666C557.644 416.522 558.597 409.042 558.597 409.042Z" fill="#FFBE9D"/>
<path d="M546.482 387.613C546.482 387.613 539.45 387.367 536.937 388.652C532.749 390.789 529.5 396.739 529.443 404.103C529.385 411.467 532.72 421.431 538.107 426.369C543.493 431.308 547.767 432.218 547.767 432.218C547.767 432.218 559.203 425.98 560.489 416.854C561.774 407.727 562.64 398.948 559.045 394.515C555.803 390.803 551.353 388.358 546.482 387.613Z" fill="#263238"/>
<path d="M530.396 408.855C529.977 404.176 529.587 399.339 531.06 394.877C532.533 390.415 536.359 386.386 541.052 386.213C542.553 386.307 544.057 386.307 545.558 386.213C546.812 385.886 548.031 385.436 549.196 384.87C551.249 383.962 553.559 383.818 555.709 384.465C556.772 384.803 557.713 385.446 558.414 386.313C559.114 387.181 559.545 388.236 559.651 389.346C559.539 390.251 559.573 391.167 559.752 392.061C560.084 392.942 560.922 393.505 561.499 394.241C562.378 395.454 562.75 396.961 562.539 398.443C562.325 399.907 561.927 401.339 561.355 402.703L557.499 412.985" fill="#263238"/>
<path d="M542.179 411.542C543.521 410.886 545.001 410.563 546.495 410.601C547.988 410.639 549.45 411.035 550.758 411.758C552.065 412.48 553.18 413.507 554.006 414.751C554.833 415.996 555.348 417.421 555.507 418.906C555.839 421.953 555.839 422.444 557.817 424.798C559.03 426.242 560.2 426.169 561.644 427.411C562.547 428.246 563.16 429.348 563.394 430.556C563.628 431.763 563.47 433.014 562.943 434.126C566.64 433.953 570.163 433.707 571.362 437.187C565.846 436.046 560.315 441.216 554.785 440.075C553.013 439.843 551.315 439.217 549.817 438.241C548.291 436.867 547.139 435.128 546.467 433.187C545.023 429.823 543.507 426.444 542.02 423.079C540.849 420.849 540.179 418.39 540.056 415.874C540.007 414.625 540.356 413.394 541.051 412.356C541.746 411.318 542.753 410.527 543.926 410.098" fill="#263238"/>
<path d="M539.955 414.848C539.395 413.314 539.357 411.639 539.845 410.081C540.334 408.524 541.323 407.171 542.658 406.232C543.993 405.293 545.601 404.82 547.232 404.887C548.863 404.954 550.426 405.557 551.68 406.602C552.684 407.328 553.493 408.29 554.034 409.404C554.576 410.517 554.834 411.747 554.785 412.985C554.695 414.16 554.186 415.264 553.351 416.095C552.517 416.927 551.411 417.433 550.236 417.519" fill="#F68410"/>
<path d="M552.056 409.836C550.5 408.626 548.561 408.014 546.592 408.112C544.623 408.21 542.755 409.011 541.327 410.37C538.684 413.013 538.439 418.442 539.219 422.096C540.085 426.009 542.468 429.807 541.688 433.734C541.197 436.131 539.551 438.557 540.504 440.81C541.283 442.644 543.392 443.438 544.605 445.026C546.323 447.38 545.471 450.673 544.316 453.344C543.161 456.015 541.746 458.889 542.554 461.69C543.175 463.856 544.994 465.416 546.453 467.149C547.911 468.881 549.081 471.293 548.114 473.314C549.051 474.002 550.175 474.391 551.338 474.43C552.5 474.468 553.648 474.155 554.629 473.531C555.611 472.907 556.381 472.001 556.839 470.931C557.297 469.862 557.422 468.68 557.196 467.538C558.359 468.725 559.048 470.297 559.131 471.957C560.718 471.816 562.242 471.269 563.556 470.369C564.871 469.469 565.931 468.246 566.636 466.817C567.341 465.388 567.666 463.802 567.581 462.212C567.496 460.621 567.003 459.079 566.149 457.734C564.907 455.77 562.886 454.196 562.467 451.958C561.961 449.243 563.911 446.572 563.68 443.828C563.449 441.359 561.499 439.409 559.507 437.936C557.514 436.464 555.29 435.15 553.991 433.027C551.911 429.605 552.879 425.229 553.687 421.302C554.496 417.374 554.871 412.753 552.056 409.894" fill="#263238"/>
<path d="M540.143 412.234C537.356 414.126 537.182 418.126 537.558 421.476C537.933 424.826 538.482 428.566 536.432 431.237C534.988 433.028 532.619 434.125 531.912 436.219C531.045 438.847 533.211 441.49 533.457 444.248C533.482 446.257 532.92 448.229 531.84 449.923C530.754 451.603 529.895 453.419 529.284 455.323C528.996 456.287 528.978 457.311 529.233 458.284C529.488 459.256 530.005 460.141 530.728 460.839C531.781 461.56 533.007 461.989 534.28 462.081C538.734 462.774 543.269 462.774 547.724 462.081C549.266 456.661 550.158 451.077 550.381 445.446C550.381 434.27 545.096 423.613 544.951 412.437" fill="#263238"/>
<path d="M547.984 469.56C547.815 469.406 547.66 469.237 547.521 469.055L546.28 467.611C544.733 465.795 543.287 463.896 541.948 461.922C541.007 460.535 540.277 459.017 539.782 457.416C539.187 455.53 539.228 453.501 539.897 451.64C540.7 449.685 541.666 447.801 542.785 446.009C543.999 444.164 544.618 441.992 544.561 439.785C544.359 437.547 542.857 435.699 542.179 433.562C542.01 433.023 541.913 432.465 541.89 431.901C541.881 431.341 541.969 430.784 542.15 430.255C542.568 429.284 543.16 428.398 543.897 427.641C544.569 426.953 545.169 426.199 545.688 425.388C546.138 424.625 546.391 423.762 546.424 422.876C546.4 421.243 546.097 419.627 545.529 418.096C545.074 416.8 544.788 415.451 544.677 414.082C544.617 413.025 544.831 411.971 545.298 411.021C545.608 410.45 546.042 409.957 546.568 409.577C546.754 409.446 546.959 409.344 547.175 409.273C546.433 409.725 545.845 410.389 545.485 411.18C545.08 412.085 544.901 413.077 544.966 414.068C545.108 415.41 545.418 416.73 545.89 417.995C546.485 419.566 546.812 421.226 546.857 422.905C546.833 423.864 546.57 424.802 546.092 425.634C545.564 426.476 544.949 427.26 544.258 427.973C543.565 428.687 543.012 429.525 542.626 430.442C542.464 430.906 542.385 431.395 542.395 431.886C542.423 432.401 542.516 432.911 542.67 433.403C543.291 435.424 544.836 437.287 545.081 439.727C545.194 440.905 545.047 442.093 544.648 443.207C544.252 444.261 543.769 445.281 543.204 446.254C542.096 448.023 541.131 449.878 540.316 451.799C539.679 453.55 539.624 455.459 540.157 457.243C540.625 458.809 541.321 460.298 542.222 461.662C543.839 464.203 545.442 466.066 546.453 467.438L547.623 468.997C547.764 469.171 547.885 469.36 547.984 469.56Z" fill="#455A64"/>
<path d="M536.995 430.702C537.515 429.497 537.879 428.231 538.078 426.933C538.255 425.497 538.313 424.048 538.251 422.601C538.251 420.999 538.078 419.208 538.251 417.316C538.298 415.509 538.742 413.735 539.551 412.118C540.259 410.812 541.32 409.732 542.612 408.999C543.493 408.507 544.491 408.262 545.5 408.291C545.769 408.306 546.035 408.35 546.294 408.421L546.554 408.522C546.554 408.522 546.164 408.522 545.5 408.522C544.552 408.566 543.632 408.855 542.828 409.36C541.608 410.083 540.61 411.127 539.94 412.378C539.194 413.94 538.785 415.643 538.742 417.374C538.641 419.223 538.742 420.999 538.742 422.63C538.786 424.08 538.694 425.53 538.468 426.962C538.294 427.93 537.998 428.871 537.587 429.764C537.454 430.113 537.253 430.432 536.995 430.702Z" fill="#455A64"/>
<path d="M566.64 466.803C566.64 466.803 566.64 466.587 566.64 466.168C566.69 465.553 566.69 464.935 566.64 464.32C566.434 462.064 565.899 459.85 565.052 457.749C564.474 456.464 563.608 455.136 562.886 453.562C562.516 452.742 562.254 451.878 562.106 450.992C561.95 450.035 561.95 449.06 562.106 448.104C562.25 447.15 562.467 446.197 562.597 445.216C562.792 443.682 562.625 442.124 562.108 440.667C561.592 439.209 560.74 437.894 559.622 436.826C558.077 435.382 555.94 434.645 554.352 433.158C552.9 431.693 551.946 429.809 551.622 427.772C551.316 425.969 551.258 424.132 551.449 422.314C551.579 420.61 551.781 419.05 551.882 417.606C552.008 416.329 552.008 415.042 551.882 413.765C551.777 412.807 551.407 411.897 550.814 411.137C550.29 410.494 549.561 410.051 548.749 409.881C548.969 409.871 549.189 409.9 549.399 409.967C550.005 410.17 550.548 410.529 550.973 411.007C551.621 411.775 552.037 412.711 552.171 413.707C552.357 415.008 552.4 416.325 552.301 417.635C552.229 419.079 552.056 420.653 551.94 422.343C551.77 424.12 551.843 425.913 552.157 427.671C552.466 429.608 553.381 431.398 554.77 432.783C556.214 434.227 558.38 434.848 560.041 436.436C561.653 437.982 562.722 440.008 563.088 442.212C563.253 443.245 563.253 444.298 563.088 445.331C562.958 446.342 562.727 447.295 562.582 448.219C562.422 449.115 562.398 450.03 562.51 450.934C562.648 451.781 562.896 452.606 563.247 453.389C563.896 454.934 564.763 456.277 565.355 457.605C566.181 459.75 566.668 462.01 566.799 464.305C566.838 464.932 566.809 465.562 566.712 466.182C566.689 466.343 566.655 466.503 566.611 466.659C566.669 466.76 566.654 466.803 566.64 466.803Z" fill="#455A64"/>
<path d="M562.64 438.326C562.822 437.92 562.971 437.5 563.088 437.07C563.327 435.892 563.253 434.672 562.871 433.532C562.24 431.872 561.001 430.514 559.406 429.735C558.366 429.356 557.427 428.743 556.662 427.944C555.969 426.99 555.393 425.958 554.944 424.868C554.218 422.729 553.938 420.463 554.121 418.211C554.219 416.421 554.004 414.628 553.485 412.912C553.083 411.781 552.379 410.783 551.449 410.024C551.086 409.769 550.71 409.533 550.323 409.316C550.442 409.325 550.56 409.354 550.669 409.403C550.99 409.51 551.292 409.666 551.565 409.865C552.587 410.581 553.372 411.587 553.817 412.753C554.422 414.497 554.686 416.34 554.597 418.183C554.457 420.367 554.736 422.558 555.42 424.637C555.851 425.659 556.399 426.628 557.052 427.525C557.398 427.911 557.797 428.246 558.236 428.522C558.669 428.796 559.146 428.969 559.68 429.215C561.373 430.071 562.667 431.552 563.29 433.345C563.647 434.551 563.647 435.835 563.29 437.041C563.196 437.366 563.06 437.676 562.886 437.965C562.741 438.24 562.655 438.341 562.64 438.326Z" fill="#455A64"/>
<path d="M538.612 411.048C537.847 410.768 537.142 410.347 536.533 409.807C535.005 408.566 533.755 407.019 532.862 405.266C531.969 403.512 531.453 401.591 531.349 399.626C531.281 398.816 531.354 398 531.565 397.215C531.666 397.215 531.565 398.153 531.724 399.597C531.923 401.49 532.466 403.33 533.327 405.027C534.19 406.724 535.36 408.247 536.778 409.518C537.789 410.5 538.612 410.976 538.612 411.048Z" fill="#455A64"/>
<path d="M537.587 412.436C536.303 412.045 535.103 411.419 534.049 410.587C532.921 409.895 531.939 408.987 531.161 407.916C532.295 408.59 533.381 409.343 534.41 410.169C535.524 410.845 536.585 411.602 537.587 412.436Z" fill="#455A64"/>
<path d="M559.651 399.209C559.558 401.312 558.937 403.358 557.846 405.158C556.898 407.043 555.499 408.665 553.774 409.88C555.104 408.32 556.311 406.659 557.384 404.913C558.295 403.077 559.054 401.169 559.651 399.209Z" fill="#455A64"/>
<path d="M561.297 403.208C561.074 404.904 560.551 406.546 559.752 408.059C559.105 409.65 558.187 411.116 557.037 412.391C556.908 412.305 558.106 410.384 559.276 407.857C560.445 405.33 561.153 403.164 561.297 403.208Z" fill="#455A64"/>
<path d="M558.929 390.154C558.556 389.539 558.228 388.897 557.947 388.234C557.611 387.561 557.15 386.958 556.59 386.458C555.925 385.847 555.051 385.516 554.149 385.533C552.487 385.683 550.941 386.451 549.817 387.685C549.339 388.214 548.812 388.698 548.244 389.129C548.585 388.483 549.023 387.894 549.543 387.382C550.076 386.786 550.688 386.266 551.363 385.837C552.226 385.284 553.225 384.98 554.251 384.956C554.762 384.946 555.271 385.038 555.747 385.227C556.223 385.415 556.656 385.696 557.023 386.053C557.617 386.606 558.085 387.281 558.395 388.031C558.697 388.702 558.878 389.421 558.929 390.154Z" fill="#455A64"/>
<path d="M556.893 468.883C556.719 468.762 556.559 468.622 556.417 468.464C555.972 468.057 555.548 467.628 555.146 467.179C554.495 466.47 553.905 465.707 553.384 464.897C552.677 463.808 552.241 462.565 552.113 461.273C552.081 460.51 552.183 459.747 552.417 459.02C552.686 458.255 553.034 457.519 553.456 456.825C554.622 455.413 555.285 453.654 555.34 451.823C555.394 449.993 554.839 448.197 553.76 446.717C552.749 444.999 551.391 443.411 550.178 441.606C548.948 439.862 548.129 437.863 547.781 435.757C547.501 433.81 547.472 431.835 547.695 429.88C548.056 426.169 548.792 422.891 548.908 420.105C549.082 417.904 548.867 415.689 548.272 413.563C547.796 412.119 547.319 411.339 547.377 411.311C547.512 411.475 547.628 411.654 547.724 411.845C548.018 412.375 548.264 412.931 548.46 413.505C549.157 415.637 549.436 417.882 549.283 420.119C549.211 423.007 548.518 426.256 548.171 429.924C547.97 431.846 548.009 433.787 548.287 435.7C548.628 437.732 549.423 439.662 550.612 441.346C551.796 443.107 553.168 444.71 554.207 446.486C555.273 448.187 555.833 450.155 555.825 452.161C555.579 453.947 554.895 455.644 553.832 457.1C553.419 457.763 553.071 458.464 552.792 459.194C552.566 459.868 552.464 460.577 552.489 461.287C552.586 462.526 552.977 463.724 553.63 464.782C554.12 465.591 554.675 466.359 555.29 467.078C555.796 467.684 556.214 468.132 556.489 468.435C556.637 468.572 556.772 468.722 556.893 468.883Z" fill="#455A64"/>
<path d="M524.172 472.796C523.249 472.353 522.402 471.768 521.659 471.063C517.883 467.901 514.834 463.961 512.721 459.511C512.215 458.615 511.868 457.638 511.696 456.623C513.357 459.611 515.184 462.503 517.169 465.287C519.365 467.915 521.703 470.422 524.172 472.796Z" fill="white"/>
<path d="M518.093 479.696C517.15 479.503 516.25 479.141 515.436 478.627C511.356 476.392 508.007 473.028 505.79 468.938C505.266 468.13 504.903 467.227 504.721 466.281C507.821 471.927 512.457 476.578 518.093 479.696Z" fill="white"/>
<path d="M511.667 487.351C506.222 485.302 501.528 481.646 498.209 476.868C498.397 476.709 500.88 479.64 504.606 482.528C508.331 485.416 511.768 487.134 511.667 487.351Z" fill="white"/>
<path d="M514.743 492.679C513.853 493.535 512.802 494.207 511.652 494.657C508.925 495.927 505.938 496.544 502.93 496.459C499.923 496.374 496.976 495.589 494.324 494.166C493.205 493.646 492.195 492.915 491.35 492.015C491.422 491.899 492.548 492.737 494.57 493.675C497.188 494.915 500.035 495.598 502.93 495.683C505.825 495.767 508.707 495.251 511.393 494.166C513.501 493.343 514.67 492.563 514.743 492.679Z" fill="white"/>
<path d="M519.205 501.199C518.828 502.034 518.288 502.785 517.616 503.409C516.098 505.024 514.309 506.363 512.331 507.365C510.356 508.366 508.22 509.011 506.021 509.271C505.12 509.453 504.192 509.453 503.292 509.271C506.285 508.826 509.201 507.966 511.956 506.715C514.615 505.22 517.055 503.364 519.205 501.199Z" fill="white"/>
<path d="M524.172 509.474C523.053 511.893 521.399 514.026 519.335 515.712C517.428 517.581 515.115 518.985 512.577 519.813C512.476 519.611 515.624 518.022 518.815 515.134C522.006 512.246 523.912 509.33 524.172 509.474Z" fill="white"/>
<path d="M583.376 456.305C583.246 456.305 583.506 454.976 583.564 452.883C583.677 447.372 581.853 441.996 578.409 437.692C577.095 436.06 576.098 435.179 576.185 435.078C577.198 435.664 578.094 436.433 578.827 437.345C580.707 439.453 582.142 441.917 583.048 444.592C583.953 447.266 584.311 450.096 584.098 452.912C584.069 454.078 583.824 455.228 583.376 456.305Z" fill="white"/>
<path d="M592.95 445.359C592.834 445.359 592.719 444.304 592.228 442.673C591.595 440.563 590.549 438.6 589.152 436.897C587.73 435.201 585.988 433.803 584.026 432.781C583.165 432.426 582.326 432.021 581.513 431.568C582.47 431.604 583.407 431.851 584.257 432.29C586.384 433.209 588.263 434.619 589.742 436.403C591.22 438.187 592.255 440.296 592.762 442.557C593.03 443.466 593.094 444.422 592.95 445.359Z" fill="white"/>
<path d="M602.047 433.273C601.694 432.351 601.207 431.485 600.603 430.703C599.904 429.901 599.043 429.256 598.076 428.811C596.878 428.27 595.6 427.924 594.293 427.786C590.866 427.537 587.421 427.677 584.026 428.205C584.928 427.738 585.906 427.434 586.914 427.31C589.364 426.836 591.871 426.739 594.35 427.021C595.74 427.176 597.092 427.566 598.35 428.176C599.38 428.695 600.278 429.441 600.978 430.356C601.341 430.748 601.622 431.207 601.805 431.708C601.988 432.208 602.071 432.741 602.047 433.273Z" fill="white"/>
<path d="M591.405 416.812C589.127 417.027 586.882 417.511 584.719 418.256C582.656 419.223 580.717 420.435 578.943 421.866C580.334 419.93 582.247 418.428 584.458 417.536C586.669 416.644 589.088 416.398 591.434 416.826L591.405 416.812Z" fill="white"/>
<path d="M585.268 409.924C583.48 410.412 581.747 411.085 580.098 411.931C577.484 413.534 576.04 415.7 575.766 415.541C576.522 413.719 577.884 412.215 579.622 411.281C581.259 410.12 583.281 409.634 585.268 409.924Z" fill="white"/>
<path d="M574.712 490.31C574.262 490.606 573.777 490.844 573.268 491.018C572.3 491.451 570.856 491.985 569.051 492.577C559.603 495.644 549.617 496.691 539.738 495.653C537.861 495.451 536.33 495.22 535.291 495.018C534.744 494.946 534.207 494.815 533.688 494.628C533.688 494.498 536.027 494.845 539.796 495.104C549.599 495.84 559.455 494.808 568.893 492.058C572.43 490.96 574.625 490.195 574.712 490.31Z" fill="white"/>
<path d="M575.809 474.903C575.33 475.307 574.812 475.665 574.264 475.971C573.653 476.382 573.017 476.754 572.358 477.083C571.593 477.502 570.741 477.978 569.745 478.412C567.441 479.497 565.062 480.414 562.626 481.155C559.639 482.043 556.588 482.7 553.5 483.119C550.401 483.495 547.276 483.621 544.157 483.495C541.611 483.36 539.08 483.017 536.59 482.469C535.615 482.276 534.651 482.03 533.702 481.733C532.987 481.552 532.287 481.316 531.609 481.025C531.01 480.839 530.434 480.587 529.89 480.274C529.89 480.13 532.432 481.126 536.648 481.935C539.117 482.403 541.617 482.687 544.128 482.787C547.205 482.871 550.285 482.726 553.341 482.354C556.389 481.94 559.405 481.313 562.366 480.477C564.799 479.79 567.186 478.951 569.514 477.964C573.456 476.202 575.723 474.773 575.809 474.903Z" fill="white"/>
<path d="M540.157 506.454C538.983 506.827 537.722 506.827 536.547 506.454C535.324 506.335 534.171 505.829 533.255 505.01C534.433 505.133 535.594 505.38 536.72 505.746C537.888 505.858 539.04 506.095 540.157 506.454Z" fill="white"/>
<path d="M569.196 505.703C567.913 505.962 566.606 506.079 565.297 506.05C562.886 506.122 559.521 506.05 555.882 505.848C552.751 505.63 549.633 505.254 546.54 504.721C545.238 504.572 543.959 504.271 542.727 503.826C544.03 503.839 545.329 503.96 546.612 504.187C548.994 504.462 552.287 504.823 555.94 505.082C559.593 505.342 562.9 505.443 565.297 505.501C566.6 505.454 567.905 505.522 569.196 505.703Z" fill="white"/>
<path d="M578.062 501.385C578.149 501.573 577.008 502.295 575.506 502.988C574.004 503.681 572.705 504.071 572.618 503.883C572.532 503.695 573.672 502.973 575.174 502.28C576.676 501.587 577.975 501.197 578.062 501.385Z" fill="white"/>
<path d="M535.507 514.296C535.507 514.483 534.554 514.888 533.385 514.44C532.215 513.992 531.71 512.996 531.941 512.996C532.172 512.996 532.764 513.429 533.717 513.761C534.67 514.094 535.45 514.065 535.507 514.296Z" fill="white"/>
<path d="M554.756 515.322C554.669 515.553 550.9 514.037 545.976 513.315C541.052 512.593 537.024 512.867 537.009 512.636C540 511.993 543.09 511.964 546.092 512.549C549.135 512.89 552.08 513.833 554.756 515.322Z" fill="white"/>
<path d="M581.326 513.473C580.136 514.256 578.85 514.882 577.499 515.335C574.298 516.596 570.965 517.492 567.564 518.007C564.163 518.526 560.715 518.666 557.283 518.425C555.855 518.391 554.438 518.172 553.066 517.776C553.066 517.66 554.698 517.776 557.312 517.877C564.106 518.054 570.878 517.022 577.311 514.83C578.622 514.3 579.962 513.847 581.326 513.473Z" fill="white"/>
<path d="M584.82 522.555C584.146 522.828 583.444 523.027 582.726 523.147C581.369 523.464 579.391 523.898 576.95 524.389C572.041 525.356 565.225 526.511 557.644 527.421C551.167 528.355 544.599 528.476 538.092 527.782C536.139 527.533 534.208 527.132 532.316 526.583C531.608 526.412 530.921 526.165 530.266 525.847C530.984 525.939 531.694 526.088 532.388 526.295C534.294 526.723 536.222 527.041 538.164 527.248C544.63 527.776 551.135 527.578 557.557 526.656C565.124 525.746 571.997 524.677 576.864 523.854L582.64 522.858C583.356 522.693 584.086 522.592 584.82 522.555Z" fill="white"/>
<path d="M76.7486 112.025V687.82H640.746V112.025H76.7486ZM303.24 600.3H100.214V310.287H303.24V600.3ZM304.684 298.171H101.658V143.245H304.684V298.171ZM461.43 243.126H322.33V141.801H461.459L461.43 243.126ZM617.382 602.321H478.296V141.801H617.411L617.382 602.321Z" fill="#455A64"/>
<path d="M118.408 126.812C118.408 126.812 118.408 126.509 118.408 125.975C118.408 125.441 118.408 124.618 118.408 123.664C118.408 121.585 118.408 118.712 118.278 115.13L118.524 115.376C109.267 115.52 95.304 115.52 79.5644 115.52C79.7232 115.347 79.1745 115.896 79.9254 115.145V126.812L79.55 126.437L107.174 126.61L115.332 126.711H117.542C117.811 126.688 118.081 126.688 118.35 126.711C118.115 126.732 117.878 126.732 117.643 126.711H115.506L107.434 127.072L79.55 127.246H79.189V121.094C79.189 120.112 79.189 119.13 79.189 118.206V115.145C79.9398 114.394 79.4056 114.943 79.5788 114.769C95.2607 114.769 109.282 114.769 118.365 114.899H118.61V115.13C118.61 118.769 118.509 121.701 118.48 123.794C118.48 124.733 118.48 125.484 118.48 126.062C118.477 126.313 118.452 126.565 118.408 126.812Z" fill="#263238"/>
<path d="M351.571 139.548C351.554 139.269 351.554 138.989 351.571 138.71C351.571 138.118 351.571 137.353 351.571 136.4C351.571 134.335 351.498 131.447 351.441 127.866L351.672 128.111C342.589 128.198 328.568 128.241 312.886 128.241L313.261 127.866V133.786C313.261 135.736 313.261 137.642 313.261 139.562L312.9 139.187L340.524 139.36L348.683 139.461H350.892H351.686C351.451 139.483 351.214 139.483 350.979 139.461H348.842L340.77 139.562L312.9 139.736H312.539V139.375C312.539 137.512 312.539 135.606 312.539 133.599V127.678L312.915 127.303C328.611 127.303 342.618 127.303 351.701 127.447H351.946V127.678C351.946 131.331 351.845 134.248 351.816 136.342C351.816 137.266 351.816 138.017 351.816 138.595C351.78 138.922 351.697 139.243 351.571 139.548Z" fill="#263238"/>
<path d="M390.371 139.548C390.354 139.269 390.354 138.989 390.371 138.71C390.371 138.118 390.371 137.353 390.371 136.4C390.371 134.335 390.371 131.447 390.241 127.866L390.472 128.111C381.389 128.198 367.368 128.241 351.686 128.241C351.86 128.082 351.311 128.617 352.062 127.866V133.786C352.062 135.736 352.062 137.642 352.062 139.562L351.701 139.187L379.324 139.36L387.483 139.461H389.692H390.487C390.251 139.483 390.014 139.483 389.779 139.461H387.642L379.57 139.562L351.701 139.736H351.34V139.375C351.34 137.512 351.34 135.606 351.34 133.599V127.678L351.715 127.303C367.411 127.303 381.418 127.303 390.501 127.447H390.746V127.678C390.746 131.331 390.645 134.248 390.616 136.342C390.616 137.266 390.616 138.017 390.616 138.595C390.564 138.919 390.481 139.238 390.371 139.548Z" fill="#263238"/>
<path d="M129.628 138.48C129.611 138.201 129.611 137.921 129.628 137.643C129.628 137.05 129.628 136.285 129.628 135.332C129.628 133.253 129.628 130.379 129.498 126.798L129.729 127.044C120.646 127.044 106.625 127.174 90.9431 127.174L91.3186 126.798V132.718C91.3186 134.668 91.3186 136.574 91.3186 138.494L90.9576 138.119L118.408 138.278L126.567 138.379H128.776H129.57C129.335 138.4 129.098 138.4 128.863 138.379L126.783 138.624H118.711L90.842 138.798H90.481V138.48C90.481 136.617 90.481 134.711 90.481 132.704V126.784L90.8565 126.408C106.553 126.408 120.56 126.408 129.642 126.553H129.888V126.784C129.888 130.437 129.787 133.354 129.758 135.448C129.758 136.386 129.758 137.137 129.758 137.715C129.733 137.973 129.689 138.228 129.628 138.48Z" fill="#263238"/>
<path d="M145.151 632.011C145.137 631.736 145.137 631.462 145.151 631.188C145.151 630.581 145.151 629.816 145.151 628.863C145.151 626.798 145.151 623.924 145.021 620.343L145.266 620.574C136.184 620.661 122.162 620.719 106.481 620.719C106.639 620.545 106.091 621.094 106.842 620.343V631.996L106.466 631.635L134.09 631.808L142.248 631.91H144.472H145.266C145.032 631.946 144.793 631.946 144.559 631.91H142.422L134.35 632.011L106.466 632.184H105.99V626.105C105.99 625.123 105.99 624.141 105.99 623.145V620.155C106.74 619.405 106.206 619.939 106.379 619.78C122.061 619.78 136.083 619.78 145.165 619.91H145.411V620.155C145.411 623.794 145.31 626.726 145.281 628.819C145.281 629.758 145.281 630.494 145.281 631.086C145.273 631.398 145.229 631.709 145.151 632.011Z" fill="#263238"/>
<path d="M156.429 643.677C156.411 643.403 156.411 643.128 156.429 642.854C156.429 642.247 156.429 641.482 156.429 640.529C156.429 638.464 156.356 635.59 156.299 632.009L156.53 632.24C147.447 632.327 133.426 632.385 117.744 632.385L118.119 632.009V637.958C118.119 639.908 118.119 641.814 118.119 643.662L117.758 643.301L145.382 643.475L153.541 643.576H155.75H156.544C156.544 643.576 156.327 643.576 155.836 643.576H153.699L145.627 643.677L117.758 643.85H117.397V643.475C117.397 641.626 117.397 639.72 117.397 637.771V631.821C118.148 631.071 117.599 631.605 117.773 631.446C133.469 631.446 147.476 631.446 156.558 631.576H156.804V631.821C156.804 635.46 156.703 638.392 156.674 640.485C156.674 641.424 156.674 642.175 156.674 642.753C156.641 643.071 156.558 643.383 156.429 643.677Z" fill="#263238"/>
<path d="M178.233 655.389C178.216 655.11 178.216 654.83 178.233 654.551C178.233 653.959 178.233 653.194 178.233 652.241C178.233 650.176 178.146 647.302 178.103 643.707L178.334 643.952C169.251 644.039 155.23 644.082 139.548 644.082L139.924 643.707V649.627C139.924 651.576 139.924 653.482 139.924 655.403L139.563 655.042L167.186 655.201L175.33 655.302H177.554H178.348C178.113 655.322 177.876 655.322 177.641 655.302H175.504L167.432 655.417L139.563 655.576H139.187V643.577L139.563 643.201C155.244 643.201 169.266 643.201 178.348 643.346H178.594V643.577C178.594 647.23 178.493 650.147 178.464 652.241C178.464 653.165 178.464 653.916 178.464 654.493C178.412 654.798 178.335 655.097 178.233 655.389Z" fill="#263238"/>
<path d="M588.315 640.687C588.298 640.408 588.298 640.129 588.315 639.85C588.315 639.243 588.315 638.478 588.315 637.525C588.315 635.46 588.228 632.587 588.185 629.005L588.416 629.236C579.333 629.323 565.312 629.381 549.63 629.381L550.005 629.005V634.955C550.005 636.904 550.005 638.81 550.005 640.731L549.644 640.355L577.253 640.528L585.412 640.63H587.636C587.9 640.598 588.166 640.598 588.43 640.63C588.195 640.65 587.958 640.65 587.722 640.63H585.585L577.513 640.731L549.644 640.904H549.269V628.875L549.644 628.5C565.326 628.5 579.347 628.5 588.43 628.63H588.676V628.861C588.676 632.5 588.574 635.431 588.531 637.525C588.531 638.464 588.531 639.214 588.531 639.792C588.489 640.097 588.416 640.397 588.315 640.687Z" fill="#263238"/>
<path d="M574.279 652.355C574.279 652.355 574.279 652.052 574.279 651.518C574.279 650.984 574.279 650.146 574.279 649.207C574.279 647.128 574.207 644.254 574.149 640.673L574.394 640.919C565.312 640.919 551.29 641.049 535.608 641.049L535.984 640.673V643.662C535.984 644.659 535.984 645.641 535.984 646.623V652.399L535.623 652.023L563.232 652.197L571.391 652.298H573.615C573.879 652.275 574.144 652.275 574.409 652.298C574.173 652.318 573.937 652.318 573.701 652.298H571.564L563.492 652.399L535.623 652.572H535.247V640.543L535.637 640.168C551.319 640.168 565.34 640.168 574.423 640.298H574.669V640.529C574.669 644.168 574.582 647.099 574.539 649.193C574.539 650.132 574.539 650.882 574.539 651.46C574.482 651.766 574.395 652.066 574.279 652.355Z" fill="#263238"/>
<path d="M596.083 664.052C596.083 664.052 596.083 663.749 596.083 663.215C596.083 662.681 596.083 661.858 596.083 660.905C596.083 658.84 596.011 655.966 595.953 652.37L596.199 652.616C587.116 652.703 573.095 652.746 557.413 652.746C557.572 652.587 557.023 653.121 557.774 652.37V664.009L557.398 663.648L585.022 663.807L593.181 663.908H595.39H596.199C595.963 663.928 595.727 663.928 595.491 663.908H593.354L585.282 664.009L557.398 664.168H557.037V658.089C557.037 657.121 557.037 656.125 557.037 655.129V652.168C557.788 651.417 557.254 651.966 557.427 651.793C573.109 651.793 587.13 651.793 596.213 651.937H596.372V652.168C596.372 655.822 596.271 658.739 596.242 660.832C596.242 661.756 596.242 662.507 596.242 663.085C596.224 663.412 596.17 663.736 596.083 664.052Z" fill="#263238"/>
<path d="M318.532 652.371C318.514 652.097 318.514 651.822 318.532 651.548C318.532 650.942 318.532 650.176 318.532 649.223C318.532 647.158 318.445 644.285 318.402 640.704L318.633 640.935C309.55 641.021 295.529 641.079 279.847 641.079L280.223 640.704V646.639C280.223 648.602 280.223 650.509 280.223 652.415L279.862 652.054L307.485 652.227L315.644 652.328H317.853H318.647C318.412 652.355 318.175 652.355 317.94 652.328H315.803L307.731 652.429L279.862 652.602H279.501V652.227C279.501 650.379 279.501 648.473 279.501 646.451V640.516L279.876 640.141C295.572 640.141 309.579 640.141 318.662 640.271H318.907V640.516C318.907 644.155 318.806 647.086 318.777 649.18C318.777 650.119 318.777 650.855 318.777 651.447C318.725 651.762 318.643 652.072 318.532 652.371Z" fill="#263238"/>
<path d="M299.832 663.909C299.816 663.63 299.816 663.351 299.832 663.072C299.832 662.465 299.832 661.7 299.832 660.747C299.832 658.682 299.832 655.808 299.702 652.227L299.933 652.458C290.85 652.545 276.829 652.603 261.147 652.603L261.523 652.227V658.176C261.523 660.126 261.523 662.032 261.523 663.952L261.162 663.577L288.786 663.75L296.944 663.851H299.153C299.417 663.82 299.684 663.82 299.948 663.851C299.712 663.873 299.475 663.873 299.24 663.851H297.103L289.031 663.952L261.162 664.126H260.801V663.765C260.801 661.902 260.801 659.996 260.801 657.989V652.039L261.176 651.664C276.873 651.664 290.879 651.664 299.962 651.794H300.208V652.025C300.208 655.664 300.107 658.595 300.078 660.689C300.078 661.628 300.078 662.379 300.078 662.956C300.025 663.281 299.943 663.6 299.832 663.909Z" fill="#263238"/>
<path d="M364.985 127.865C364.968 127.586 364.968 127.307 364.985 127.028C364.985 126.436 364.985 125.67 364.985 124.717C364.985 122.652 364.913 119.779 364.855 116.198L365.087 116.429C356.004 116.515 341.983 116.573 326.301 116.573L326.676 116.198V122.133C326.676 124.082 326.676 126.002 326.676 127.909L326.315 127.548L353.939 127.706L362.097 127.822H364.307H365.101C364.866 127.843 364.629 127.843 364.393 127.822H362.256L354.184 127.923L326.315 128.096H325.954V127.721C325.954 125.872 325.954 123.952 325.954 121.945V116.212C326.705 115.461 326.156 115.996 326.33 115.837C342.026 115.837 356.033 115.837 365.115 115.967H365.361V116.212C365.361 119.851 365.26 122.768 365.231 124.876C365.231 125.8 365.231 126.551 365.231 127.143C365.178 127.393 365.095 127.635 364.985 127.865Z" fill="#263238"/>
<path d="M93.86 196.181C93.8246 195.884 93.8246 195.583 93.86 195.286C93.86 194.622 93.86 193.842 93.7734 192.889C93.7734 190.838 93.6434 187.95 93.6145 184.499L93.86 184.831H79.5788C79.5066 184.918 80.3008 184.124 79.9543 184.47V190.607C79.9543 192.571 79.9543 194.419 79.9543 196.167L79.6077 195.835C83.7809 195.835 87.3042 195.936 89.8312 195.993L92.7192 196.095C93.0913 196.083 93.4637 196.107 93.8311 196.167C93.5101 196.21 93.1847 196.21 92.8636 196.167L89.9756 196.268C87.4775 196.268 83.8675 196.398 79.5355 196.427H79.2034V196.095C79.2034 194.347 79.2034 192.499 79.2034 190.535V187.532C79.2034 187.026 79.2034 186.506 79.2034 185.987V184.441C78.8713 184.774 79.6655 183.979 79.5788 184.052H93.86H94.1777V184.355C94.1777 187.95 94.0766 190.911 94.0188 192.932C94.026 194.017 93.973 195.102 93.86 196.181Z" fill="#263238"/>
<path d="M632.082 400.594C632.023 400.3 631.998 399.999 632.01 399.699C632.01 399.035 632.01 398.255 631.923 397.302C631.923 395.252 631.793 392.364 631.764 388.912L632.082 389.23H617.801C617.801 389.317 618.523 388.523 618.176 388.855V394.948C618.176 396.898 618.176 398.76 618.176 400.508L617.83 400.176C622.003 400.176 625.526 400.277 628.039 400.334L630.927 400.421C631.299 400.418 631.671 400.447 632.039 400.508C631.72 400.565 631.395 400.589 631.071 400.58L628.183 400.667C625.7 400.739 622.075 400.811 617.758 400.84H617.425V400.508C617.425 398.76 617.425 396.898 617.425 394.948C617.425 393.966 617.425 392.97 617.425 391.945V388.855C617.093 389.201 617.888 388.393 617.801 388.479H632.082H632.385V388.782C632.385 392.378 632.284 395.338 632.227 397.36C632.238 398.44 632.19 399.52 632.082 400.594Z" fill="#263238"/>
<path d="M632.082 154.984C632.021 154.689 631.997 154.389 632.01 154.088C632.01 153.424 632.01 152.644 631.923 151.691C631.923 149.641 631.793 146.767 631.764 143.316L632.082 143.619L617.801 143.692L618.176 143.316V149.424C618.176 151.374 618.176 153.236 618.176 154.969L617.83 154.637C622.003 154.637 625.526 154.738 628.039 154.81L630.927 154.897C631.62 154.897 632.01 154.897 632.039 154.897C631.721 154.966 631.396 154.995 631.071 154.984L628.183 155.07C625.7 155.07 622.075 155.2 617.758 155.244H617.426V154.897C617.426 153.164 617.426 151.301 617.426 149.352C617.426 148.37 617.426 147.359 617.426 146.348V143.331L617.801 142.955H632.082H632.385V143.273C632.385 146.854 632.284 149.814 632.227 151.85C632.235 152.896 632.186 153.942 632.082 154.984Z" fill="#263238"/>
<path d="M640.862 388.811C640.862 388.811 640.862 388.479 640.862 387.93C640.862 387.381 640.862 386.486 640.862 385.562C640.862 383.439 640.775 380.58 640.717 377.129L640.977 377.418L622.783 377.504L623.129 377.129V383.122C623.129 385.071 623.129 386.963 623.129 388.768L622.812 388.407C628.082 388.407 632.588 388.522 635.808 388.58L639.605 388.681C640.088 388.674 640.571 388.703 641.049 388.768C640.628 388.826 640.203 388.85 639.779 388.84L636.068 388.941C632.862 389.013 628.27 389.085 622.855 389.114H622.364V388.768C622.364 386.963 622.364 385.071 622.364 383.122C622.364 382.154 622.364 381.158 622.364 380.147V377.172L622.711 376.797L640.905 376.884H641.136V377.172C641.136 380.826 641.035 383.771 640.992 385.836C640.992 386.746 640.992 387.511 640.992 388.132C640.978 388.363 640.934 388.591 640.862 388.811Z" fill="#263238"/>
<path d="M637.945 199.777C637.924 199.483 637.924 199.189 637.945 198.896L637.873 196.528C637.873 194.405 637.771 191.546 637.714 188.095L638.002 188.384L618.133 188.47C617.787 188.802 618.581 188.008 618.509 188.095V194.087C618.509 196.037 618.509 197.928 618.509 199.733L618.162 199.372C623.938 199.372 628.833 199.488 632.356 199.546L636.486 199.647C637.003 199.642 637.519 199.671 638.031 199.733C637.552 199.783 637.07 199.807 636.587 199.806L632.53 199.907C629.021 199.979 623.996 200.051 618.09 200.08H617.729V199.733C617.729 197.928 617.729 196.037 617.729 194.087V191.113C617.729 190.607 617.729 190.102 617.729 189.669V188.225C617.657 188.311 618.451 187.517 618.119 187.849L637.988 187.936H638.277V188.225C638.277 191.878 638.176 194.824 638.132 196.889C638.132 197.798 638.132 198.564 638.06 199.185C638.043 199.385 638.004 199.584 637.945 199.777Z" fill="#263238"/>
<path d="M461.849 141.137H322.734V242.462H461.849V141.137Z" fill="#F5F5F5"/>
<path d="M617.801 601.656C617.801 598.104 617.657 405.417 617.44 141.15L617.801 141.511H478.686L479.061 141.136C479.061 327.412 478.96 493.746 478.917 601.642L478.686 601.397L617.801 601.642L478.686 601.888H478.441V601.642C478.441 493.746 478.368 327.369 478.311 141.136V140.746H618.176V141.122C618.032 405.417 617.815 598.104 617.801 601.656Z" fill="#263238"/>
<path d="M469.098 683.445H317.752V309.016H469.098V683.445ZM319.138 682.001H467.726V310.33H319.124L319.138 682.001Z" fill="#263238"/>
<path d="M461.748 316.047H324.481V675.632H461.748V316.047Z" fill="#F5F5F5"/>
<path d="M461.748 336.986L324.481 462.095V484.708L461.748 358.632V336.986Z" fill="white"/>
<path d="M463.813 534.613H446.73C443.083 534.605 439.587 533.153 437.008 530.574C434.429 527.994 432.977 524.499 432.969 520.851V450.095C432.973 446.447 434.424 442.949 437.004 440.369C439.584 437.789 443.082 436.338 446.73 436.334H463.813V440.42H446.73C444.177 440.424 441.729 441.44 439.924 443.246C438.119 445.051 437.103 447.499 437.099 450.052V520.808C437.106 523.36 438.124 525.805 439.928 527.61C441.733 529.415 444.178 530.432 446.73 530.439H463.813V534.613Z" fill="#263238"/>
<path d="M379.873 524.807H324.077V675.011H379.873V524.807Z" fill="#E0E0E0"/>
<path d="M409.143 517.732H324.077V526.064H409.143V517.732Z" fill="#E0E0E0"/>
<path d="M427.886 391.469H358.141C356.466 391.469 355.108 392.826 355.108 394.501V437.966C355.108 439.64 356.466 440.998 358.141 440.998H427.886C429.561 440.998 430.918 439.64 430.918 437.966V394.501C430.918 392.826 429.561 391.469 427.886 391.469Z" fill="#F68410"/>
<path d="M426.702 439.322C426.902 439.302 427.099 439.268 427.294 439.221C427.888 439.091 428.406 438.733 428.738 438.224C428.974 437.867 429.109 437.453 429.128 437.026C429.128 436.549 429.128 436.029 429.128 435.466C429.128 434.325 429.128 433.011 429.128 431.538C429.128 425.633 429.128 417.098 429.056 406.557C429.056 403.915 429.056 401.157 429.056 398.283V396.103C429.1 395.748 429.1 395.389 429.056 395.034C428.973 394.695 428.815 394.379 428.594 394.11C427.684 392.897 425.937 393.402 424.42 393.301H359.094C358.639 393.299 358.195 393.436 357.82 393.694C357.446 393.953 357.16 394.319 357 394.745C356.875 395.216 356.836 395.705 356.885 396.189V403.597C356.885 407.525 356.885 411.38 356.885 415.149V437.098C356.922 437.496 357.065 437.877 357.298 438.202C357.532 438.527 357.847 438.784 358.213 438.946C358.589 439.097 358.993 439.161 359.397 439.134H375.281H392.537H417.518H424.305H426.067H426.673H426.067H424.305H417.518L392.537 439.206H359.325C358.872 439.232 358.418 439.158 357.996 438.99C357.563 438.804 357.188 438.505 356.911 438.123C356.634 437.742 356.465 437.293 356.422 436.824C356.422 429.835 356.422 422.513 356.422 414.918V395.496C356.427 395.221 356.476 394.948 356.567 394.688C356.745 394.167 357.082 393.716 357.53 393.398C357.978 393.079 358.515 392.909 359.065 392.911H426.543C426.948 392.899 427.351 392.978 427.721 393.143C428.091 393.308 428.419 393.555 428.68 393.865C428.93 394.178 429.107 394.543 429.2 394.933C429.25 395.312 429.25 395.695 429.2 396.074V398.254C429.2 401.142 429.2 403.886 429.2 406.528C429.2 417.07 429.2 425.604 429.2 431.51C429.2 432.954 429.2 434.296 429.2 435.437C429.2 436 429.2 436.52 429.2 437.011C429.172 437.455 429.027 437.883 428.781 438.253C428.437 438.746 427.923 439.096 427.337 439.235C427.132 439.299 426.917 439.329 426.702 439.322Z" fill="white"/>
<path d="M359.946 395.28C359.949 395.452 359.9 395.621 359.807 395.765C359.713 395.909 359.579 396.023 359.421 396.09C359.263 396.158 359.088 396.177 358.919 396.146C358.75 396.114 358.595 396.033 358.472 395.912C358.349 395.791 358.266 395.637 358.231 395.469C358.196 395.3 358.213 395.125 358.278 394.966C358.343 394.807 358.454 394.671 358.597 394.575C358.739 394.479 358.907 394.428 359.079 394.428C359.307 394.428 359.525 394.517 359.687 394.676C359.849 394.836 359.942 395.052 359.946 395.28Z" fill="white"/>
<path d="M426.933 395.28C426.936 395.452 426.888 395.621 426.794 395.765C426.701 395.909 426.566 396.023 426.408 396.09C426.25 396.158 426.076 396.177 425.907 396.146C425.738 396.114 425.582 396.033 425.459 395.912C425.337 395.791 425.253 395.637 425.218 395.469C425.183 395.3 425.2 395.125 425.265 394.966C425.33 394.807 425.441 394.671 425.584 394.575C425.727 394.479 425.895 394.428 426.067 394.428C426.294 394.428 426.512 394.517 426.674 394.676C426.836 394.836 426.929 395.052 426.933 395.28Z" fill="white"/>
<path d="M426.933 395.281C426.933 395.281 426.861 395.281 426.745 395.151C426.63 395.021 426.442 394.906 426.225 394.732L424.262 393.086L417.042 386.949C410.977 381.708 402.602 374.502 393.346 366.531H393.62L393.071 366.979L368.523 387.065L361 393.115L358.95 394.747L358.415 395.151C358.285 395.252 358.228 395.296 358.213 395.281L358.386 395.122L358.892 394.675L360.899 392.985L368.292 386.834L392.84 366.618L393.389 366.17L393.533 366.055L393.663 366.17L417.316 386.718L424.42 392.956L426.341 394.675L426.832 395.122L426.933 395.281Z" fill="#263238"/>
<path d="M395.18 367.397C395.18 367.731 395.08 368.057 394.895 368.335C394.709 368.613 394.445 368.83 394.137 368.957C393.828 369.085 393.488 369.119 393.16 369.054C392.833 368.988 392.532 368.827 392.295 368.591C392.059 368.355 391.898 368.054 391.833 367.726C391.768 367.398 391.801 367.059 391.929 366.75C392.057 366.441 392.274 366.177 392.551 365.992C392.829 365.806 393.156 365.707 393.49 365.707C393.938 365.707 394.368 365.885 394.685 366.202C395.001 366.519 395.18 366.948 395.18 367.397Z" fill="#263238"/>
<path d="M371.209 416.218C371.175 415.174 371.452 414.144 372.007 413.26C372.562 412.375 373.368 411.677 374.322 411.253C375.276 410.83 376.335 410.701 377.363 410.883C378.391 411.065 379.341 411.551 380.092 412.276C380.842 413.002 381.359 413.935 381.576 414.956C381.792 415.978 381.699 417.04 381.308 418.008C380.917 418.976 380.246 419.805 379.38 420.389C378.515 420.973 377.495 421.286 376.451 421.286C375.769 421.316 375.089 421.206 374.451 420.964C373.813 420.722 373.231 420.352 372.741 419.878C372.25 419.404 371.862 418.835 371.598 418.206C371.335 417.576 371.203 416.9 371.209 416.218ZM380.638 416.218C380.653 415.383 380.418 414.563 379.965 413.862C379.511 413.162 378.859 412.612 378.092 412.283C377.324 411.954 376.477 411.862 375.656 412.017C374.836 412.172 374.081 412.568 373.486 413.154C372.892 413.74 372.486 414.49 372.319 415.308C372.153 416.126 372.234 416.975 372.552 417.747C372.87 418.518 373.411 419.178 374.105 419.641C374.799 420.104 375.616 420.35 376.451 420.348C377.001 420.367 377.55 420.275 378.063 420.075C378.576 419.875 379.043 419.572 379.435 419.186C379.827 418.799 380.136 418.336 380.343 417.826C380.55 417.316 380.651 416.768 380.638 416.218Z" fill="white"/>
<path d="M391.873 414.645C391.873 416.768 390.328 418.053 387.786 418.053H385.115V421.201H384.104V411.223H387.83C390.328 411.223 391.873 412.508 391.873 414.645ZM390.819 414.645C390.819 413.057 389.764 412.132 387.757 412.132H385.115V417.129H387.757C389.764 417.129 390.819 416.219 390.819 414.645Z" fill="white"/>
<path d="M401.215 420.291V421.201H394.212V411.223H401.057V412.132H395.281V415.685H400.436V416.594H395.281V420.291H401.215Z" fill="white"/>
<path d="M412.031 411.223V421.201H411.165L404.753 413.114V421.201H403.699V411.223H404.566L410.991 419.324V411.223H412.031Z" fill="white"/>
<path d="M469.098 273.522C469.09 270.082 468.035 266.726 466.071 263.901C464.108 261.076 461.331 258.917 458.109 257.711V251.256H324.9V258.389C322.058 259.774 319.662 261.93 317.986 264.611C316.31 267.292 315.421 270.39 315.421 273.551C315.421 276.713 316.31 279.811 317.986 282.492C319.662 285.173 322.058 287.328 324.9 288.713V298.07H458.167V289.406C461.389 288.186 464.162 286.012 466.116 283.173C468.069 280.335 469.109 276.968 469.098 273.522Z" fill="#263238"/>
<path d="M462.47 273.696C462.47 273.696 462.47 274.1 462.47 274.88C462.388 276.042 462.15 277.188 461.762 278.288C461.135 280.082 460.152 281.732 458.874 283.139C457.125 285.054 454.934 286.512 452.492 287.385L452.607 287.226C452.607 289.118 452.694 291.197 452.737 293.421V293.608H452.55L330.734 293.796H330.358V293.421C330.358 291.284 330.358 288.973 330.286 286.648L330.503 286.98C328.337 285.971 326.423 284.491 324.9 282.648C323.322 280.718 322.276 278.408 321.868 275.948C321.351 272.748 321.958 269.467 323.586 266.663C325.214 263.934 327.624 261.756 330.503 260.411L330.286 260.757C330.286 259.14 330.286 257.537 330.286 255.949V255.588H330.676L452.449 256.18H452.636V256.368C452.636 257.812 452.636 259.068 452.636 260.18L452.521 260.021C454.991 260.914 457.203 262.402 458.961 264.353C461.023 266.622 462.272 269.513 462.513 272.569C462.513 273.349 462.513 273.739 462.513 273.739C462.452 272.213 462.165 270.704 461.661 269.263C461.012 267.508 460.032 265.896 458.773 264.512C457.019 262.63 454.833 261.203 452.405 260.353H452.304V260.238C452.304 259.126 452.304 257.942 452.304 256.425L452.477 256.599L330.676 256.295L331.051 255.934V260.974L330.835 261.075C328.093 262.353 325.798 264.426 324.25 267.024C322.701 269.672 322.114 272.773 322.59 275.804C322.987 278.131 323.982 280.316 325.478 282.143C326.918 283.909 328.739 285.326 330.806 286.287L331.023 286.388V286.619C331.023 288.944 331.023 291.269 331.023 293.406L330.647 293.031L452.463 293.204L452.261 293.406C452.261 291.197 452.261 289.074 452.189 287.211V287.096H452.304C454.71 286.262 456.875 284.854 458.614 282.995C459.872 281.616 460.853 280.008 461.502 278.259C462.055 276.796 462.381 275.257 462.47 273.696Z" fill="white"/>
<path d="M457.849 251.385C457.993 251.544 456.853 252.829 455.322 254.273C453.791 255.717 452.434 256.699 452.29 256.54C452.145 256.381 453.286 255.096 454.817 253.652C455.671 252.707 456.701 251.937 457.849 251.385Z" fill="white"/>
<path d="M458.427 297.463C457.225 297.18 456.111 296.61 455.178 295.802C453.517 294.633 452.405 293.434 452.535 293.275C453.655 293.75 454.693 294.398 455.611 295.196C457.214 296.264 458.528 297.203 458.427 297.463Z" fill="white"/>
<path d="M330.676 293.291C330.806 293.464 329.55 294.735 327.889 296.049C326.946 296.969 325.839 297.703 324.626 298.215C324.496 298.056 325.752 296.771 327.413 295.457C328.356 294.537 329.462 293.803 330.676 293.291Z" fill="white"/>
<path d="M330.676 256.209C329.489 255.684 328.415 254.934 327.514 254C325.896 252.556 324.626 251.386 324.828 251.213C326.015 251.744 327.089 252.499 327.99 253.437C329.607 254.823 330.806 256.065 330.676 256.209Z" fill="white"/>
<path d="M419.8 467.061C419.8 467.061 419.612 467.364 419.179 467.884C418.746 468.403 418.052 469.198 417.273 470.136C415.598 472.071 413.143 474.858 410.053 478.252C403.916 485.038 395.237 494.265 385.302 504.114C375.368 513.962 366.083 522.553 359.311 528.662C355.888 531.694 353.087 534.134 351.123 535.78L348.856 537.672C348.336 538.105 348.062 538.322 348.033 538.293C348.259 538.029 348.505 537.783 348.769 537.557L350.935 535.564L358.95 528.257C365.693 522.077 374.92 513.427 384.855 503.594C394.79 493.76 403.497 484.605 409.735 477.905L417.114 469.949L419.121 467.797C419.325 467.532 419.552 467.286 419.8 467.061Z" fill="#263238"/>
<path d="M409.157 467.062C409.302 467.207 401.446 475.568 391.613 485.748C381.779 495.928 373.678 504.072 373.534 503.957C373.389 503.841 381.23 495.437 391.078 485.185C400.927 474.932 408.999 466.918 409.157 467.062Z" fill="#263238"/>
<path d="M119.563 591.838C119.273 590.809 119.229 589.725 119.434 588.675C119.64 587.625 120.09 586.639 120.748 585.795C121.406 584.952 122.254 584.275 123.222 583.82C124.19 583.364 125.252 583.143 126.321 583.174C125.877 581.319 126.139 579.366 127.058 577.694C127.977 576.022 129.486 574.753 131.29 574.135C133.094 573.516 135.064 573.592 136.815 574.347C138.567 575.103 139.974 576.484 140.761 578.221C142.166 577.105 143.829 576.359 145.597 576.05C147.365 575.742 149.182 575.881 150.882 576.456C152.582 577.03 154.111 578.021 155.33 579.339C156.548 580.656 157.418 582.258 157.858 583.997C159.091 582.54 160.693 581.44 162.497 580.813C164.301 580.187 166.24 580.056 168.111 580.436C169.982 580.815 171.717 581.69 173.135 582.969C174.552 584.249 175.6 585.886 176.168 587.708C177.338 581.658 185.424 578.221 190.608 581.571C191.116 578.828 192.506 576.326 194.567 574.444C196.627 572.563 199.246 571.407 202.024 571.15C204.803 570.893 207.589 571.551 209.959 573.023C212.329 574.495 214.154 576.7 215.156 579.304C217.785 578.444 220.632 578.528 223.205 579.543C225.778 580.558 227.916 582.44 229.249 584.864C231.37 583.158 234.041 582.287 236.76 582.415C239.478 582.542 242.056 583.66 244.007 585.557C245.855 580.113 250.52 575.29 256.252 574.828C261.985 574.366 267.934 579.68 266.822 585.326C267.774 584.285 268.977 583.506 270.317 583.064C271.656 582.621 273.086 582.531 274.471 582.8C275.855 583.07 277.147 583.691 278.223 584.603C279.298 585.516 280.121 586.69 280.613 588.012C282.172 586.091 285.479 586.351 287.183 588.142C287.988 589.093 288.542 590.232 288.794 591.452C289.046 592.673 288.989 593.938 288.627 595.131C287.868 597.497 286.716 599.718 285.219 601.701" fill="#455A64"/>
<path d="M284.815 620.342H125.368L116.213 590.783H292.8L284.815 620.342Z" fill="#263238"/>
<path d="M481.415 590.769C481.183 589.96 481.145 589.108 481.304 588.281C481.463 587.455 481.816 586.678 482.332 586.014C482.849 585.349 483.515 584.816 484.277 584.458C485.038 584.1 485.873 583.927 486.715 583.953C486.413 582.519 486.646 581.024 487.369 579.75C488.093 578.475 489.257 577.51 490.643 577.034C492.029 576.558 493.541 576.606 494.895 577.167C496.248 577.729 497.35 578.766 497.992 580.083C499.094 579.208 500.398 578.623 501.784 578.381C503.17 578.138 504.595 578.247 505.928 578.696C507.262 579.145 508.462 579.921 509.419 580.953C510.376 581.985 511.059 583.239 511.407 584.603C512.372 583.465 513.625 582.607 515.034 582.117C516.444 581.628 517.959 581.525 519.421 581.82C520.884 582.115 522.241 582.797 523.351 583.794C524.46 584.791 525.283 586.068 525.731 587.491C526.036 586.347 526.597 585.288 527.371 584.394C528.146 583.5 529.115 582.794 530.204 582.33C531.293 581.867 532.473 581.657 533.654 581.718C534.836 581.779 535.988 582.109 537.024 582.682C537.464 580.564 538.573 578.642 540.188 577.201C541.802 575.76 543.836 574.874 545.991 574.676C548.146 574.477 550.308 574.975 552.158 576.096C554.009 577.218 555.451 578.904 556.272 580.906C558.328 580.232 560.554 580.296 562.568 581.087C564.581 581.878 566.256 583.346 567.304 585.238C568.965 583.907 571.055 583.227 573.181 583.325C575.308 583.423 577.325 584.293 578.856 585.772C580.3 581.513 583.968 577.729 588.459 577.368C592.95 577.007 597.614 581.18 596.733 585.599C597.48 584.786 598.423 584.178 599.472 583.832C600.521 583.487 601.641 583.416 602.725 583.626C603.81 583.835 604.822 584.319 605.667 585.031C606.511 585.743 607.159 586.66 607.549 587.693C607.891 587.356 608.298 587.091 608.745 586.914C609.192 586.736 609.67 586.651 610.15 586.662C610.631 586.672 611.105 586.779 611.543 586.976C611.982 587.173 612.376 587.456 612.704 587.808C613.326 588.558 613.752 589.451 613.944 590.406C614.135 591.362 614.086 592.349 613.801 593.281C613.203 595.136 612.3 596.878 611.13 598.436" fill="#455A64"/>
<path d="M606.061 620.474H490.31L481.155 590.9H614.047L606.061 620.474Z" fill="#263238"/>
<path d="M696.138 687.157C696.138 687.359 546.077 687.532 361.014 687.532C175.951 687.532 25.862 687.359 25.862 687.157C25.862 686.955 175.879 686.781 361.014 686.781C546.15 686.781 696.138 686.955 696.138 687.157Z" fill="#263238"/>
<path d="M350.571 270.668V268.292H355.143V281H352.479V270.668H350.571ZM362.381 274.538L367.763 281H364.685L359.987 275.186V281H357.449V268.292H359.987V273.998L364.703 268.292H367.763L362.381 274.538ZM378.025 274.538L383.407 281H380.329L375.631 275.186V281H373.093V268.292H375.631V273.998L380.347 268.292H383.407L378.025 274.538ZM387.356 268.292V281H384.818V268.292H387.356ZM396.276 281L393.306 276.05H392.19V281H389.652V268.292H394.494C395.97 268.292 397.092 268.652 397.86 269.372C398.64 270.092 399.03 271.04 399.03 272.216C399.03 273.176 398.76 273.98 398.22 274.628C397.692 275.276 396.924 275.708 395.916 275.924L399.084 281H396.276ZM392.19 274.304H394.278C395.73 274.304 396.456 273.662 396.456 272.378C396.456 271.766 396.276 271.292 395.916 270.956C395.568 270.608 395.022 270.434 394.278 270.434H392.19V274.304ZM408.484 278.444H403.39L402.49 281H399.808L404.488 268.436H407.386L412.048 281H409.366L408.484 278.444ZM407.8 276.518L405.928 271.154L404.056 276.518H407.8ZM424.182 281H421.644L415.956 272.36V281H413.418V268.292H415.956L421.644 277.004V268.292H424.182V281ZM434.218 278.444H429.124L428.224 281H425.542L430.222 268.436H433.12L437.782 281H435.1L434.218 278.444ZM433.534 276.518L431.662 271.154L429.79 276.518H433.534Z" fill="#F5F5F5"/>
</svg>
