<svg width="200" height="200" viewBox="0 0 200 200" fill="none" xmlns="http://www.w3.org/2000/svg">
<path d="M200 152.959H0V153.061H200V152.959Z" fill="#EBEBEB"/>
<path d="M29.468 156.768H20.984V156.869H29.468V156.768Z" fill="#EBEBEB"/>
<path d="M102.444 155.684H68.4561V155.785H102.444V155.684Z" fill="#EBEBEB"/>
<path d="M42.312 160.484H27.068V160.586H42.312V160.484Z" fill="#EBEBEB"/>
<path d="M179.96 159.812H162.684V159.914H179.96V159.812Z" fill="#EBEBEB"/>
<path d="M161.376 159.812H156.588V159.914H161.376V159.812Z" fill="#EBEBEB"/>
<path d="M148.356 158.123H139.156V158.225H148.356V158.123Z" fill="#EBEBEB"/>
<path d="M134.532 158.123H115.156V158.225H134.532V158.123Z" fill="#EBEBEB"/>
<path d="M94.8001 135.12H17.5641C16.959 135.119 16.3791 134.878 15.9516 134.45C15.5241 134.021 15.2841 133.441 15.2841 132.836V24.264C15.2893 23.6624 15.5317 23.0872 15.9586 22.6633C16.3855 22.2394 16.9624 22.001 17.5641 22H94.8001C95.4058 22 95.9868 22.2406 96.4151 22.669C96.8434 23.0973 97.0841 23.6782 97.0841 24.284V132.836C97.0841 133.442 96.8434 134.023 96.4151 134.451C95.9868 134.879 95.4058 135.12 94.8001 135.12ZM17.5641 22.08C16.9855 22.0811 16.431 22.3116 16.0223 22.7211C15.6136 23.1306 15.3841 23.6855 15.3841 24.264V132.836C15.3841 133.415 15.6136 133.969 16.0223 134.379C16.431 134.788 16.9855 135.019 17.5641 135.02H94.8001C95.379 135.019 95.9339 134.789 96.3432 134.379C96.7526 133.97 96.983 133.415 96.9841 132.836V24.264C96.983 23.6851 96.7526 23.1302 96.3432 22.7208C95.9339 22.3115 95.379 22.0811 94.8001 22.08H17.5641Z" fill="#EBEBEB"/>
<path d="M181.324 135.12H104.084C103.479 135.119 102.898 134.878 102.47 134.45C102.042 134.022 101.801 133.441 101.8 132.836V24.264C101.806 23.662 102.05 23.0868 102.477 22.663C102.905 22.2392 103.482 22.001 104.084 22H181.324C181.925 22.0021 182.501 22.2409 182.927 22.6647C183.353 23.0885 183.595 23.6631 183.6 24.264V132.836C183.6 133.44 183.361 134.02 182.934 134.448C182.507 134.876 181.928 135.118 181.324 135.12ZM104.084 22.08C103.505 22.0811 102.95 22.3115 102.541 22.7208C102.132 23.1302 101.901 23.6851 101.9 24.264V132.836C101.901 133.415 102.132 133.97 102.541 134.379C102.95 134.789 103.505 135.019 104.084 135.02H181.324C181.903 135.019 182.458 134.789 182.867 134.379C183.277 133.97 183.507 133.415 183.508 132.836V24.264C183.507 23.6851 183.277 23.1302 182.867 22.7208C182.458 22.3115 181.903 22.0811 181.324 22.08H104.084Z" fill="#EBEBEB"/>
<path d="M21.448 152.959H34.952L34.952 96.567H21.448L21.448 152.959Z" fill="#E6E6E6"/>
<path d="M23.692 152.959H21.444V147.883H26.048L23.692 152.959Z" fill="#F0F0F0"/>
<path d="M110.876 152.959H124.38V96.567H110.876V152.959Z" fill="#E6E6E6"/>
<path d="M21.4481 151.012H112.836V96.5677L21.4481 96.5677V151.012Z" fill="#F0F0F0"/>
<path d="M23.192 113.912L111.092 113.912V98.9801L23.192 98.9801V113.912Z" fill="#E6E6E6"/>
<path d="M23.192 101.018L111.092 101.018V98.9855L23.192 98.9855V101.018Z" fill="#E0E0E0"/>
<path d="M110.588 152.959H112.836V147.883H108.228L110.588 152.959Z" fill="#F0F0F0"/>
<path d="M23.192 131.256H111.092V116.324L23.192 116.324V131.256Z" fill="#E6E6E6"/>
<path d="M23.192 118.359L111.092 118.359V116.327L23.192 116.327V118.359Z" fill="#E0E0E0"/>
<path d="M23.192 148.596H111.092V133.664H23.192V148.596Z" fill="#E6E6E6"/>
<path d="M23.192 135.699H111.092V133.667H23.192V135.699Z" fill="#E0E0E0"/>
<path d="M143.208 152.961H174.52L177.3 54.6094H145.988L143.208 152.961Z" fill="#E6E6E6"/>
<path d="M142.252 152.961H173.564L176.344 54.6094H145.032L142.252 152.961Z" fill="#F0F0F0"/>
<path d="M171.688 150.164L174.308 57.4043H146.908L144.288 150.164H171.688Z" fill="#FAFAFA"/>
<path d="M32.464 81.2598L122.776 81.2598V30.8918L32.464 30.8918V81.2598Z" fill="#F0F0F0"/>
<path d="M29.216 81.2598L121.26 81.2598V30.8918L29.216 30.8918V81.2598Z" fill="#F5F5F5"/>
<path d="M116.7 77.0682V35.0762L33.764 35.0762V77.0682H116.7Z" fill="white"/>
<path d="M33.556 94.3119C35.2747 94.3119 36.668 92.9186 36.668 91.1999C36.668 89.4812 35.2747 88.0879 33.556 88.0879C31.8373 88.0879 30.444 89.4812 30.444 91.1999C30.444 92.9186 31.8373 94.3119 33.556 94.3119Z" fill="#F0F0F0"/>
<path d="M41.6051 93.3443C41.9999 91.6716 40.9639 89.9955 39.2911 89.6007C37.6184 89.2059 35.9423 90.2418 35.5475 91.9146C35.1527 93.5873 36.1887 95.2634 37.8614 95.6582C39.5342 96.053 41.2103 95.017 41.6051 93.3443Z" fill="#E6E6E6"/>
<path d="M45.9593 91.19C46.3541 89.5172 45.3181 87.8412 43.6454 87.4463C41.9726 87.0515 40.2966 88.0875 39.9017 89.7603C39.5069 91.433 40.5429 93.1091 42.2157 93.5039C43.8884 93.8987 45.5645 92.8627 45.9593 91.19Z" fill="#F0F0F0"/>
<path d="M48.216 92.3594C48.216 92.3594 47.944 96.5674 37.416 96.5674C26.888 96.5674 26.616 92.3594 26.616 92.3594H48.216Z" fill="#E6E6E6"/>
<path d="M100 171.025C142.833 171.025 177.556 168.997 177.556 166.497C177.556 163.996 142.833 161.969 100 161.969C57.167 161.969 22.444 163.996 22.444 166.497C22.444 168.997 57.167 171.025 100 171.025Z" fill="#F5F5F5"/>
<path d="M150.904 166.496H109.176C108.486 166.499 107.802 166.362 107.167 166.093C106.531 165.824 105.957 165.429 105.479 164.932C105.001 164.434 104.629 163.845 104.386 163.199C104.143 162.553 104.033 161.865 104.064 161.176L108.72 41.0075C108.791 39.5844 109.402 38.242 110.428 37.2535C111.455 36.2651 112.819 35.7051 114.244 35.6875H155.972C156.662 35.6847 157.345 35.822 157.98 36.091C158.615 36.36 159.189 36.7552 159.667 37.2526C160.145 37.7501 160.517 38.3393 160.761 38.9848C161.004 39.6302 161.114 40.3184 161.084 41.0075L156.428 161.176C156.357 162.599 155.746 163.941 154.72 164.93C153.693 165.918 152.329 166.478 150.904 166.496Z" fill="#787878"/>
<path d="M104.496 48.1067H104.096L104.376 40.9667C104.46 39.1822 105.223 37.4973 106.51 36.2581C107.797 35.0188 109.509 34.3192 111.296 34.3027V34.7027C109.613 34.7192 108 35.3789 106.788 36.5466C105.575 37.7143 104.856 39.3014 104.776 40.9827L104.496 48.1067Z" fill="#F68410"/>
<path d="M117.532 34.2871H114.132V34.6871H117.532V34.2871Z" fill="#F68410"/>
<path d="M147.956 166.496H106.228C105.538 166.499 104.854 166.362 104.219 166.093C103.583 165.824 103.009 165.429 102.531 164.932C102.053 164.434 101.681 163.845 101.438 163.199C101.195 162.553 101.085 161.865 101.116 161.176L105.772 41.0075C105.843 39.5844 106.454 38.242 107.48 37.2535C108.507 36.2651 109.871 35.7051 111.296 35.6875H153.024C153.714 35.6847 154.397 35.822 155.032 36.091C155.667 36.36 156.241 36.7552 156.719 37.2526C157.197 37.7501 157.569 38.3393 157.813 38.9848C158.056 39.6302 158.166 40.3184 158.136 41.0075L153.48 161.176C153.409 162.599 152.798 163.941 151.772 164.93C150.745 165.918 149.381 166.478 147.956 166.496Z" fill="#BEBEBE"/>
<path opacity="0.8" d="M149.284 152.671H105.972C105.586 152.673 105.204 152.597 104.848 152.448C104.493 152.298 104.171 152.077 103.904 151.799C103.636 151.521 103.428 151.191 103.292 150.83C103.156 150.469 103.095 150.084 103.112 149.699L107.152 45.4428C107.191 44.646 107.532 43.8942 108.107 43.341C108.682 42.7878 109.446 42.4751 110.244 42.4668H153.552C153.938 42.4648 154.32 42.5413 154.676 42.6916C155.032 42.842 155.353 43.063 155.62 43.3414C155.888 43.6197 156.096 43.9495 156.232 44.3108C156.368 44.672 156.429 45.0572 156.412 45.4428L152.372 149.699C152.333 150.495 151.992 151.245 151.418 151.798C150.844 152.35 150.081 152.663 149.284 152.671Z" fill="white"/>
<path opacity="0.4" d="M130.896 152.671H120.096L138.312 42.4668H149.112L130.896 152.671Z" fill="white"/>
<path opacity="0.4" d="M118.196 152.671H112.796L131.012 42.4668H136.412L118.196 152.671Z" fill="white"/>
<path d="M137.844 120.447H116.548C115.564 120.447 114.784 119.371 114.74 117.955L114.136 98.1826C114.088 96.5546 115.024 95.1426 116.156 95.1426H140.156C141.288 95.1426 142.116 96.5546 141.944 98.1826L139.84 117.955C139.688 119.371 138.824 120.447 137.844 120.447Z" fill="#F68410"/>
<path d="M137.844 121.199H116.548C115.144 121.199 114.048 119.811 113.992 117.979L113.388 98.2065C113.33 97.0902 113.715 95.996 114.46 95.1625C114.676 94.9269 114.938 94.7375 115.23 94.6055C115.521 94.4735 115.836 94.4018 116.156 94.3945H140.156C140.475 94.4022 140.788 94.4774 141.076 94.6154C141.363 94.7533 141.618 94.9507 141.824 95.1945C142.171 95.6223 142.427 96.1166 142.575 96.6471C142.724 97.1775 142.762 97.7327 142.688 98.2785L140.584 118.051C140.4 119.835 139.2 121.199 137.844 121.199ZM116.156 95.8905C116.037 95.8998 115.921 95.9325 115.815 95.9868C115.708 96.041 115.613 96.1157 115.536 96.2065C115.074 96.7484 114.841 97.448 114.884 98.1585L115.488 117.931C115.516 118.907 115.992 119.699 116.548 119.699H137.844C138.352 119.699 138.98 118.967 139.096 117.875L141.2 98.1025C141.25 97.7661 141.233 97.4231 141.149 97.0934C141.065 96.7638 140.917 96.4541 140.712 96.1825C140.646 96.0961 140.563 96.0251 140.466 95.9746C140.37 95.9242 140.264 95.8954 140.156 95.8905H116.156Z" fill="#F68410"/>
<path d="M139.84 118.703H139.76C139.662 118.693 139.568 118.663 139.481 118.616C139.395 118.569 139.319 118.505 139.257 118.429C139.196 118.352 139.15 118.265 139.122 118.17C139.094 118.076 139.085 117.977 139.096 117.879L141.408 96.1474C141.768 92.7514 143.908 90.1914 146.384 90.1914H148C148.198 90.1914 148.389 90.2702 148.529 90.4105C148.669 90.5508 148.748 90.741 148.748 90.9394C148.748 91.1378 148.669 91.328 148.529 91.4683C148.389 91.6086 148.198 91.6874 148 91.6874H146.4C144.72 91.6874 143.2 93.7154 142.912 96.3074L140.6 118.039C140.58 118.225 140.491 118.397 140.35 118.52C140.209 118.643 140.027 118.708 139.84 118.703Z" fill="#F68410"/>
<path d="M120.928 127.803C120.512 127.796 120.101 127.704 119.722 127.532C119.343 127.36 119.003 127.112 118.724 126.803C117.748 125.787 117.204 124.127 117.268 122.363C117.384 119.375 119.196 116.947 121.312 116.947C121.728 116.953 122.139 117.045 122.518 117.217C122.897 117.39 123.237 117.638 123.516 117.947C124.492 118.963 125.036 120.623 124.972 122.387C124.856 125.375 123.044 127.803 120.928 127.803ZM121.328 117.599C119.56 117.599 118.036 119.747 117.936 122.399C117.876 123.999 118.336 125.471 119.212 126.363C119.431 126.608 119.697 126.805 119.995 126.943C120.293 127.08 120.616 127.155 120.944 127.163C122.712 127.163 124.236 125.015 124.336 122.363C124.396 120.763 123.936 119.291 123.06 118.399C122.839 118.153 122.57 117.954 122.269 117.817C121.969 117.679 121.643 117.605 121.312 117.599H121.328Z" fill="#F68410"/>
<path d="M132.564 127.803C132.148 127.796 131.739 127.704 131.36 127.532C130.982 127.36 130.643 127.112 130.364 126.803C129.384 125.787 128.84 124.127 128.908 122.363C129.02 119.375 130.836 116.947 132.952 116.947C133.368 116.954 133.778 117.046 134.156 117.218C134.535 117.39 134.874 117.638 135.152 117.947C136.132 118.963 136.676 120.623 136.608 122.387C136.496 125.375 134.68 127.803 132.564 127.803ZM132.964 117.599C131.192 117.599 129.672 119.747 129.572 122.399C129.512 123.999 129.972 125.471 130.844 126.363C131.063 126.608 131.329 126.805 131.627 126.943C131.925 127.08 132.248 127.155 132.576 127.163C134.348 127.163 135.868 125.015 135.968 122.363C136.028 120.763 135.568 119.291 134.696 118.399C134.476 118.153 134.207 117.955 133.907 117.817C133.607 117.68 133.282 117.605 132.952 117.599H132.964Z" fill="#F68410"/>
<path d="M137.428 75.7001C137.932 68.7331 134.449 62.8034 129.647 62.4559C124.846 62.1084 120.545 67.4746 120.041 74.4417C119.537 81.4087 123.02 87.3384 127.821 87.6859C132.622 88.0334 136.923 82.6672 137.428 75.7001Z" fill="#009B73"/>
<path d="M128.26 88.4592C127.238 88.442 126.231 88.2147 125.3 87.7915C124.37 87.3683 123.536 86.7582 122.852 85.9992C120.452 83.4952 119.1 79.3992 119.252 75.0512C119.532 67.6872 123.996 61.6992 129.204 61.6992C130.226 61.7152 131.233 61.9416 132.164 62.3641C133.094 62.7867 133.927 63.3964 134.612 64.1552C137.012 66.6632 138.368 70.7552 138.212 75.1072C137.932 82.4672 133.468 88.4592 128.26 88.4592ZM129.2 63.1992C124.8 63.1992 120.992 68.5432 120.744 75.1112C120.592 79.0632 121.78 82.7472 123.916 84.9672C124.462 85.5787 125.128 86.0716 125.873 86.4156C126.617 86.7596 127.424 86.9473 128.244 86.9672C132.644 86.9672 136.452 81.6232 136.7 75.0552C136.852 71.1032 135.668 67.4192 133.532 65.1992C132.985 64.5873 132.318 64.0941 131.573 63.7501C130.828 63.4061 130.02 63.2186 129.2 63.1992Z" fill="white"/>
<path d="M122.8 74.7983C122.8 74.7983 126.12 77.9983 127.464 82.1103C128.624 78.9103 130.356 74.4263 134.48 69.4062C129.492 72.7183 127.592 76.8743 127.592 76.8743C126.202 75.7777 124.551 75.0621 122.8 74.7983Z" fill="white"/>
<path d="M127.244 162.77C126.891 162.767 126.543 162.691 126.221 162.547C125.898 162.404 125.609 162.195 125.372 161.934C124.993 161.509 124.702 161.013 124.517 160.475C124.332 159.936 124.257 159.366 124.296 158.798C124.384 156.614 125.836 154.838 127.536 154.838C127.889 154.842 128.237 154.919 128.559 155.063C128.881 155.208 129.17 155.417 129.408 155.678C129.785 156.101 130.074 156.594 130.258 157.13C130.442 157.666 130.518 158.233 130.48 158.798C130.4 160.994 128.944 162.77 127.244 162.77ZM127.536 155.262C126.06 155.262 124.796 156.862 124.736 158.814C124.699 159.325 124.764 159.838 124.929 160.322C125.093 160.807 125.352 161.255 125.692 161.638C125.89 161.858 126.132 162.034 126.402 162.156C126.672 162.278 126.964 162.342 127.26 162.346C128.736 162.346 130 160.746 130.06 158.798C130.097 158.287 130.031 157.773 129.867 157.287C129.703 156.802 129.444 156.354 129.104 155.97C128.905 155.75 128.664 155.574 128.394 155.452C128.124 155.33 127.832 155.265 127.536 155.262Z" fill="white"/>
<path d="M131.976 40.6475C131.812 40.6433 131.651 40.6057 131.503 40.5369C131.354 40.4681 131.221 40.3696 131.112 40.2475C130.944 40.0596 130.815 39.84 130.734 39.6017C130.652 39.3633 130.619 39.1109 130.636 38.8595C130.672 37.8915 131.328 37.1035 132.096 37.1035C132.26 37.1077 132.421 37.1454 132.569 37.2142C132.718 37.283 132.851 37.3814 132.96 37.5035C133.129 37.691 133.258 37.9104 133.341 38.1488C133.423 38.3872 133.457 38.6398 133.44 38.8915C133.404 39.8595 132.744 40.6475 131.976 40.6475ZM132.096 37.5435C131.552 37.5435 131.084 38.1475 131.056 38.8915C131.03 39.2835 131.159 39.67 131.416 39.9675C131.487 40.0465 131.573 40.11 131.669 40.1541C131.766 40.1982 131.87 40.2218 131.976 40.2235C132.52 40.2235 132.988 39.6195 133.016 38.8755C133.044 38.482 132.914 38.0936 132.656 37.7955C132.585 37.7174 132.499 37.6548 132.402 37.6114C132.306 37.5681 132.202 37.545 132.096 37.5435Z" fill="white"/>
<path d="M75.48 49.7004C70.9 49.0884 68.424 51.8644 69.728 56.9004C70.956 61.6444 68.58 61.0124 68.128 65.5044C67.676 69.9964 71.38 70.1804 72.584 73.8484C73.788 77.5164 80.44 81.6844 83.04 79.8044C85.64 77.9244 90.8 78.3564 91.272 72.1484C91.744 65.9404 86.832 65.6044 88.516 62.2124C90.708 57.8124 85.852 58.8844 85.852 53.2764C85.864 48.7604 79.316 43.8684 75.48 49.7004Z" fill="#263238"/>
<path d="M69.7159 73.6009C69.6159 75.5169 69.4399 77.3689 69.1599 79.2529C68.915 81.2006 68.4878 83.121 67.8839 84.9889C67.6966 85.5341 67.4583 86.0605 67.1719 86.5609C66.976 86.901 66.7352 87.2131 66.4559 87.4889L66.3159 87.6169L66.2399 87.6769L66.1959 87.7129L66.0279 87.8289L65.6959 88.0609C64.8501 88.6036 63.9604 89.0746 63.0359 89.4689C61.2843 90.2377 59.4643 90.8404 57.5999 91.2689L56.9559 89.4969C58.5359 88.6209 60.1559 87.7249 61.6359 86.7969C62.3588 86.3551 63.0535 85.8688 63.7159 85.3409L63.9319 85.1529L64.0439 85.0609V85.0409C64.0439 85.0409 64.0879 84.9649 64.1439 84.8489C64.2862 84.5313 64.4052 84.2037 64.4999 83.8689C64.727 83.0548 64.906 82.228 65.0359 81.3929C65.1879 80.5289 65.3119 79.6449 65.4159 78.7529C65.6199 76.9769 65.7959 75.1529 65.9319 73.3809L69.7159 73.6009Z" fill="#FFB573"/>
<path d="M58.1319 89.5358L55.0759 88.5918L55.6479 92.2878C55.6479 92.2878 57.6479 92.0398 58.6119 90.9238L58.1319 89.5358Z" fill="#FFB573"/>
<path d="M52.58 90.9718L52.748 91.4558C52.8448 91.7303 53.0273 91.9665 53.2686 92.1293C53.5099 92.2921 53.7972 92.3729 54.088 92.3598L55.648 92.2878L55.076 88.5918L53.36 89.2638C53.0347 89.3928 52.7719 89.6426 52.6266 89.9609C52.4812 90.2793 52.4645 90.6415 52.58 90.9718Z" fill="#FFB573"/>
<path d="M73.3279 70.0282C73.3279 71.1842 72.7679 73.4602 72.2919 75.1722C71.9399 76.4042 71.6439 77.3402 71.6439 77.3402L70.9439 77.1642L65.1639 75.7002C65.0719 72.7322 65.1879 69.4682 68.1399 67.5162C69.9999 66.2922 73.3119 67.9722 73.3279 70.0282Z" fill="#F68410"/>
<g opacity="0.5">
<path opacity="0.5" d="M73.3279 70.0282C73.3279 71.1842 72.7679 73.4602 72.2919 75.1722C71.9399 76.4042 71.6439 77.3402 71.6439 77.3402L70.9439 77.1642L65.1639 75.7002C65.0719 72.7322 65.1879 69.4682 68.1399 67.5162C69.9999 66.2922 73.3119 67.9722 73.3279 70.0282Z" fill="black"/>
</g>
<path opacity="0.3" d="M73.3199 70.2283C72.9439 69.8283 72.0879 69.7603 70.2239 70.3523C67.5519 71.1963 66.8039 74.1243 66.7679 76.1083L70.9439 77.1643L71.3039 77.2563L71.6439 77.3403C71.6439 77.3403 71.7919 76.8723 71.9999 76.1603C72.0839 75.8683 72.1879 75.5323 72.2879 75.1723C72.7439 73.5563 73.2719 71.4283 73.3199 70.2283Z" fill="black"/>
<path d="M61.464 162.909L57.936 161.673L60.152 154.033L63.676 155.273L61.464 162.909Z" fill="#FFB573"/>
<path d="M108.592 153.856L105.724 155.992L99.848 150.036L102.716 147.896L108.592 153.856Z" fill="#FFB573"/>
<path d="M104.548 155.125L107.648 152.561C107.7 152.516 107.767 152.49 107.836 152.49C107.905 152.49 107.972 152.516 108.024 152.561L110.404 154.721C110.462 154.778 110.508 154.845 110.538 154.921C110.568 154.996 110.582 155.077 110.579 155.157C110.575 155.238 110.555 155.318 110.519 155.39C110.482 155.462 110.431 155.526 110.368 155.577C109.272 156.453 108.696 156.821 107.336 157.945C106.496 158.637 104.744 160.293 103.584 161.249C102.424 162.205 101.416 161.113 101.816 160.609C103.592 158.361 104.004 156.881 104.216 155.665C104.26 155.452 104.377 155.261 104.548 155.125Z" fill="#263238"/>
<path d="M57.696 160.573L61.616 162.209C61.6854 162.24 61.7431 162.293 61.7805 162.359C61.8179 162.425 61.8332 162.502 61.824 162.577L61.38 166.033C61.3701 166.115 61.3412 166.193 61.2956 166.262C61.25 166.33 61.189 166.387 61.1175 166.428C61.046 166.469 60.9659 166.492 60.8837 166.497C60.8015 166.501 60.7194 166.486 60.644 166.453C59.256 165.889 58.604 165.609 56.884 164.889L51.6 162.689C50.168 162.089 50.476 160.517 51.124 160.633C54.024 161.157 55.892 160.985 57.036 160.553C57.2502 160.473 57.487 160.481 57.696 160.573Z" fill="#263238"/>
<path opacity="0.2" d="M60.152 154.037L59.012 157.973L62.444 159.525L63.68 155.273L60.152 154.037Z" fill="black"/>
<path opacity="0.2" d="M102.72 147.896L99.848 150.036L102.876 153.108L105.748 150.968L102.72 147.896Z" fill="black"/>
<path d="M84.176 88.7079L69.644 88.9159C67.644 77.6679 67.184 72.2959 67.184 69.7159C67.182 69.0723 67.4041 68.4481 67.8121 67.9504C68.2201 67.4526 68.7885 67.1124 69.42 66.9879C70.308 66.8159 71.42 66.6159 72.52 66.4639C72.9 66.4119 73.284 66.3639 73.66 66.3239C75.8535 66.1337 78.0578 66.1016 80.256 66.2279C80.584 66.2279 80.908 66.2559 81.232 66.2759C82.704 66.3719 84.088 66.5599 85.06 66.7119C85.2391 66.7404 85.4105 66.8052 85.5637 66.9023C85.7169 66.9994 85.8487 67.1267 85.9509 67.2765C86.0531 67.4263 86.1237 67.5954 86.1583 67.7735C86.1929 67.9515 86.1907 68.1347 86.152 68.3119C85.728 70.3119 85.38 72.0679 85.1 73.6399C84.656 76.1399 84.376 78.1599 84.212 79.9319C83.9658 82.8516 83.9537 85.7863 84.176 88.7079Z" fill="#F68410"/>
<g opacity="0.5">
<path opacity="0.5" d="M84.176 88.7079L69.644 88.9159C67.644 77.6679 67.184 72.2959 67.184 69.7159C67.182 69.0723 67.4041 68.4481 67.8121 67.9504C68.2201 67.4526 68.7885 67.1124 69.42 66.9879C70.308 66.8159 71.42 66.6159 72.52 66.4639C72.9 66.4119 73.284 66.3639 73.66 66.3239C75.8535 66.1337 78.0578 66.1016 80.256 66.2279C80.584 66.2279 80.908 66.2559 81.232 66.2759C82.704 66.3719 84.088 66.5599 85.06 66.7119C85.2391 66.7404 85.4105 66.8052 85.5637 66.9023C85.7169 66.9994 85.8487 67.1267 85.9509 67.2765C86.0531 67.4263 86.1237 67.5954 86.1583 67.7735C86.1929 67.9515 86.1907 68.1347 86.152 68.3119C85.728 70.3119 85.38 72.0679 85.1 73.6399C84.656 76.1399 84.376 78.1599 84.212 79.9319C83.9658 82.8516 83.9537 85.7863 84.176 88.7079Z" fill="black"/>
</g>
<path opacity="0.3" d="M84.212 79.9446C83.48 77.7526 83.52 73.2006 84.308 71.7246L85.108 73.6526C84.656 76.1526 84.376 78.1726 84.212 79.9446Z" fill="black"/>
<path d="M79.1721 61.7366C79.1041 63.5206 79.3161 65.3726 80.2601 66.2446C80.2601 66.2446 78.7001 68.2806 75.0281 70.2806C73.0841 68.4086 73.6601 66.3406 73.6601 66.3406C76.0201 65.7406 76.0601 64.1686 75.3681 61.5606L77.2401 60.8006C77.4121 60.6489 77.6251 60.5515 77.8523 60.5205C78.0796 60.4894 78.3109 60.5262 78.5173 60.6262C78.7237 60.7262 78.8959 60.8849 79.0124 61.0825C79.1289 61.28 79.1844 61.5076 79.1721 61.7366Z" fill="#FFB573"/>
<path opacity="0.2" d="M77.2439 60.8008C77.4051 60.6601 77.6018 60.5666 77.8127 60.5304C78.0235 60.4943 78.2402 60.5169 78.439 60.5958C78.6378 60.6748 78.811 60.807 78.9396 60.9779C79.0682 61.1488 79.1472 61.3519 79.1679 61.5648C78.3424 62.8382 77.1356 63.8182 75.7199 64.3648C75.779 63.4098 75.6596 62.4521 75.3679 61.5408L77.2439 60.8008Z" fill="black"/>
<path d="M82.5519 56.4965C81.2879 59.8165 80.8199 61.2445 78.5519 62.4485C75.1639 64.2565 71.3519 61.9765 71.6159 58.3445C71.8399 55.0765 73.8719 50.2005 77.6159 49.8885C78.4394 49.8147 79.2681 49.9529 80.0231 50.29C80.778 50.6271 81.4341 51.1519 81.9289 51.8143C82.4237 52.4767 82.7408 53.2547 82.8498 54.0743C82.9588 54.8939 82.8563 55.7277 82.5519 56.4965Z" fill="#FFB573"/>
<path d="M76.196 49.8727C73.84 53.1967 80.596 52.3807 80.26 54.7247C80.064 56.1487 78.032 58.8007 81.6 59.2967C85.168 59.7927 86.052 53.9687 84.216 51.7807C82.38 49.5927 78.512 48.1727 76.196 49.8727Z" fill="#263238"/>
<path d="M76.944 49.7723C76.456 50.9723 73.86 52.6163 72.912 52.3123C73.2 50.8763 75.62 49.5123 76.944 49.7723Z" fill="#263238"/>
<path d="M82.336 59.885C81.9781 60.4714 81.4031 60.8926 80.736 61.057C79.848 61.265 79.444 60.465 79.72 59.645C79.968 58.913 80.732 57.917 81.604 58.073C81.7948 58.1098 81.9733 58.1937 82.1233 58.3172C82.2733 58.4407 82.39 58.5997 82.4628 58.7799C82.5355 58.96 82.5621 59.1555 82.5399 59.3485C82.5178 59.5416 82.4477 59.726 82.336 59.885Z" fill="#FFB573"/>
<path d="M69.644 88.9168C69.644 88.9168 67.184 110.069 64.916 123.237C63.14 133.553 58.652 155.033 58.652 155.033L64.476 157.097C64.476 157.097 71.148 134.697 72.316 125.145C77.02 111.361 80.4 88.8008 80.4 88.8008L69.644 88.9168Z" fill="#009B73"/>
<path d="M57.704 156.484L64.448 158.86L65.348 156.696L58.036 153.9L57.704 156.484Z" fill="#263238"/>
<path opacity="0.3" d="M77.0079 95.2005L74.8319 99.3725C74.0319 102.516 74.2239 110.172 75.2319 115.008C77.0439 107.716 78.4919 100.044 79.3919 94.8965L77.0079 95.2005Z" fill="black"/>
<path d="M72.7999 88.9152C72.7999 88.9152 75.4039 112.587 80.2639 125.715C82.6999 132.311 100.784 151.851 100.784 151.851L104.864 148.587C104.864 148.587 93.3959 128.871 88.3839 123.719C86.3399 112.267 88.9079 95.1192 84.1599 88.6992L72.7999 88.9152Z" fill="#009B73"/>
<path d="M101.132 153.269L105.916 149.345L104.624 147.225L99.384 151.785L101.132 153.269Z" fill="#263238"/>
<path d="M84.4 87.8552L85.072 89.1432C85.124 89.2432 85.008 89.3512 84.84 89.3512L69.596 89.5712C69.464 89.5712 69.356 89.5072 69.344 89.4272L69.196 88.1272C69.196 88.0392 69.3 87.9592 69.44 87.9592L84.16 87.7472C84.206 87.743 84.2522 87.7508 84.2942 87.7697C84.3363 87.7886 84.3727 87.8181 84.4 87.8552Z" fill="#263238"/>
<path d="M82.428 89.5281H82.828C82.904 89.5281 82.964 89.4841 82.96 89.4361L82.748 87.7482C82.748 87.6962 82.676 87.6602 82.596 87.6602H82.196C82.12 87.6602 82.06 87.7042 82.068 87.7522L82.276 89.4401C82.28 89.4881 82.352 89.5281 82.428 89.5281Z" fill="#F68410"/>
<path d="M70.688 89.6964H71.088C71.168 89.6964 71.224 89.6524 71.22 89.6044L71.012 87.9164C71.012 87.8644 70.936 87.8244 70.856 87.8284H70.456C70.376 87.8284 70.316 87.8724 70.324 87.9204L70.532 89.6084C70.54 89.6564 70.612 89.6964 70.688 89.6964Z" fill="#F68410"/>
<path d="M76.5599 89.6007H76.9599C77.0399 89.6007 77.0999 89.5567 77.0919 89.5087L76.8839 87.8207C76.8839 87.7687 76.8079 87.7287 76.7319 87.7327H76.3319C76.2519 87.7327 76.1959 87.7767 76.1999 87.8247L76.4079 89.5127C76.3999 89.5727 76.4799 89.6007 76.5599 89.6007Z" fill="#F68410"/>
<path d="M76.7119 55.6844C76.6279 55.9604 76.4119 56.1364 76.2319 56.0844C76.0519 56.0324 75.9759 55.7604 76.0599 55.4844C76.1439 55.2084 76.3639 55.0284 76.5439 55.0844C76.7239 55.1404 76.7999 55.4084 76.7119 55.6844Z" fill="#263238"/>
<path d="M73.5999 54.7087C73.5119 54.9847 73.2959 55.1607 73.1159 55.1087C72.9359 55.0567 72.8599 54.7847 72.9479 54.5087C73.0359 54.2327 73.2479 54.0567 73.4279 54.1087C73.6079 54.1607 73.6839 54.4327 73.5999 54.7087Z" fill="#263238"/>
<path d="M73.5039 54.148L72.9039 53.748C72.9039 53.748 73.0799 54.372 73.5039 54.148Z" fill="#263238"/>
<path d="M74.3679 55.4355C73.9268 55.988 73.4112 56.4766 72.8359 56.8875C72.9453 57.0314 73.0846 57.1498 73.2441 57.2347C73.4035 57.3197 73.5795 57.3691 73.7599 57.3795L74.3679 55.4355Z" fill="#ED893E"/>
<path d="M74.6799 58.9086C74.6659 58.8984 74.6556 58.8839 74.6506 58.8673C74.6455 58.8507 74.646 58.8329 74.6519 58.8166C74.6593 58.7951 74.6746 58.7774 74.6947 58.7669C74.7148 58.7565 74.7382 58.7542 74.7599 58.7606C75.0998 58.8759 75.4622 58.9092 75.8174 58.8578C76.1727 58.8063 76.5107 58.6716 76.8039 58.4646C76.8126 58.4575 76.8226 58.4522 76.8333 58.4489C76.844 58.4457 76.8553 58.4446 76.8664 58.4457C76.8776 58.4469 76.8884 58.4501 76.8982 58.4554C76.9081 58.4607 76.9168 58.4679 76.9239 58.4766C76.931 58.4853 76.9363 58.4952 76.9396 58.506C76.9428 58.5167 76.9439 58.5279 76.9428 58.5391C76.9417 58.5502 76.9384 58.561 76.9331 58.5709C76.9278 58.5808 76.9206 58.5895 76.9119 58.5966C76.5974 58.8232 76.2332 58.9713 75.8498 59.0284C75.4663 59.0854 75.0748 59.0498 74.7079 58.9246L74.6799 58.9086Z" fill="#263238"/>
<path d="M77.908 54.9399C77.885 54.9206 77.8672 54.8958 77.856 54.8679C77.7907 54.6657 77.6784 54.482 77.5282 54.3317C77.3779 54.1815 77.1941 54.0691 76.9919 54.0039C76.9482 53.9935 76.9102 53.9662 76.8863 53.9281C76.8624 53.8899 76.8543 53.8439 76.864 53.7999C76.8744 53.7561 76.9017 53.7182 76.9398 53.6943C76.978 53.6703 77.024 53.6623 77.068 53.6719C77.3254 53.7506 77.5602 53.8896 77.753 54.0775C77.9457 54.2654 78.0908 54.4966 78.176 54.7519C78.1916 54.7944 78.1898 54.8413 78.1711 54.8825C78.1524 54.9236 78.1182 54.9558 78.076 54.9719C78.0475 54.981 78.0172 54.9828 77.9879 54.9772C77.9586 54.9716 77.9311 54.9588 77.908 54.9399Z" fill="#263238"/>
<path d="M72.672 52.9219C72.672 52.9219 72.672 52.9019 72.672 52.8939C72.668 52.8721 72.6683 52.8497 72.6729 52.828C72.6776 52.8063 72.6865 52.7858 72.6992 52.7675C72.7118 52.7493 72.7279 52.7338 72.7466 52.7218C72.7653 52.7099 72.7862 52.7017 72.808 52.6979C73.0718 52.6441 73.3448 52.6546 73.6037 52.7284C73.8627 52.8022 74.1001 52.9371 74.296 53.1219C74.312 53.1375 74.3246 53.1562 74.3333 53.1768C74.342 53.1974 74.3464 53.2195 74.3464 53.2419C74.3464 53.2642 74.342 53.2863 74.3333 53.307C74.3246 53.3276 74.312 53.3462 74.296 53.3619C74.2639 53.3931 74.2208 53.4106 74.176 53.4106C74.1312 53.4106 74.0881 53.3931 74.056 53.3619C73.8968 53.2152 73.7046 53.1092 73.4957 53.0528C73.2868 52.9964 73.0673 52.9913 72.856 53.0379C72.8165 53.0435 72.7764 53.0349 72.7427 53.0137C72.709 52.9924 72.6839 52.9599 72.672 52.9219Z" fill="#263238"/>
<path d="M58.872 68.7214C58.28 67.7654 57.768 65.8974 58.78 64.8414C59.792 63.7854 60.58 63.4854 60.328 61.6414C60.076 59.7974 62.892 59.8494 63.128 58.4414C64.532 59.6414 66.02 62.4414 65.224 63.7254C64.428 65.0094 64.856 65.9734 64.684 67.5294C64.512 69.0854 61.112 72.3454 58.872 68.7214Z" fill="#F68410"/>
<path opacity="0.5" d="M58.872 68.7214C58.28 67.7654 57.768 65.8974 58.78 64.8414C59.792 63.7854 60.58 63.4854 60.328 61.6414C60.076 59.7974 62.892 59.8494 63.128 58.4414C64.532 59.6414 66.02 62.4414 65.224 63.7254C64.428 65.0094 64.856 65.9734 64.684 67.5294C64.512 69.0854 61.112 72.3454 58.872 68.7214Z" fill="#62924B"/>
<path d="M63.244 61.4043C62.564 65.6763 61.312 70.6643 59.516 74.3723C59.9528 74.3367 60.3626 74.1467 60.672 73.8363C60.672 73.8363 63.516 66.1123 63.244 61.4043Z" fill="white"/>
<path d="M57.524 70.8213C56.624 70.1493 55.464 68.6013 56.012 67.2453C56.56 65.8893 57.188 65.3213 56.272 63.6973C55.356 62.0733 58 61.0813 57.7 59.6973C59.456 60.3133 61.868 62.3653 61.592 63.8373C61.316 65.3093 62.076 66.0653 62.488 67.5733C62.9 69.0813 60.944 73.3653 57.524 70.8213Z" fill="#F68410"/>
<path opacity="0.6" d="M57.524 70.8213C56.624 70.1493 55.464 68.6013 56.012 67.2453C56.56 65.8893 57.188 65.3213 56.272 63.6973C55.356 62.0733 58 61.0813 57.7 59.6973C59.456 60.3133 61.868 62.3653 61.592 63.8373C61.316 65.3093 62.076 66.0653 62.488 67.5733C62.9 69.0813 60.944 73.3653 57.524 70.8213Z" fill="#009B73"/>
<path d="M63.9519 72.108C64.8959 72.04 66.4279 71.468 66.6559 70.252C66.8839 69.036 66.6959 68.348 68.0879 67.608C69.48 66.868 68.0479 64.964 68.888 64.116C67.3599 63.756 64.7119 64.116 64.2319 65.292C63.7519 66.468 62.8759 66.652 61.8959 67.54C60.9159 68.428 60.3599 72.364 63.9519 72.108Z" fill="#F68410"/>
<path opacity="0.7" d="M63.9519 72.108C64.8959 72.04 66.4279 71.468 66.6559 70.252C66.8839 69.036 66.6959 68.348 68.0879 67.608C69.48 66.868 68.0479 64.964 68.888 64.116C67.3599 63.756 64.7119 64.116 64.2319 65.292C63.7519 66.468 62.8759 66.652 61.8959 67.54C60.9159 68.428 60.3599 72.364 63.9519 72.108Z" fill="#62924B"/>
<path d="M58.692 64.1562C59.408 67.8962 59.752 72.3482 59.092 75.8202C59.5185 75.7352 59.8988 75.496 60.16 75.1482C60.16 75.1482 60.58 68.0882 58.692 64.1562Z" fill="white"/>
<path d="M66.1679 66.2012C63.6639 68.9452 60.988 72.4532 59.464 75.6452C59.2548 75.3321 59.1627 74.9554 59.204 74.5812C59.204 74.5812 62.8639 68.5372 66.1679 66.2012Z" fill="white"/>
<path d="M54.872 69.9532C53.74 69.3332 51.504 71.0652 52.68 73.0772C53.856 75.0892 56.28 76.0212 57.4 74.9412C58.944 74.6652 59.616 72.1692 58.688 70.0332C57.76 67.8972 55.044 68.6732 54.872 69.9532Z" fill="#E93C3C"/>
<path d="M54.8719 69.9523C54.8719 69.9523 54.4719 68.6523 55.1319 68.2363C55.2214 68.3488 55.3042 68.4663 55.3799 68.5883C55.3799 68.5883 54.9319 68.7123 54.8719 69.9523Z" fill="#263238"/>
<path d="M67.668 66.5614C67.532 69.3094 64.708 71.3974 61.64 72.0694C61.4512 72.2632 61.3137 72.5011 61.24 72.7614C61.2142 72.8211 61.2097 72.8878 61.2271 72.9504C61.2446 73.013 61.283 73.0677 61.336 73.1054C61.5686 73.2981 61.8422 73.435 62.136 73.5054C63.7564 73.5447 65.3364 72.9963 66.584 71.9614C68.184 70.7374 69.644 68.3134 69.184 67.1894C68.724 66.0654 68.36 66.4414 68.184 65.5894C68.0862 65.2436 68.0443 64.8844 68.06 64.5254C68.06 64.5254 67.66 64.7134 67.56 64.9574C67.692 65.3014 67.712 65.6654 67.668 66.5614Z" fill="#FFDF35"/>
<path opacity="0.2" d="M69.1999 67.2004C69.0953 66.8987 68.9229 66.625 68.6959 66.4004C68.7279 67.3044 68.496 68.4004 67.496 70.0004C66.452 71.6724 63.652 73.1604 61.236 73.0124C61.2553 73.0511 61.2842 73.0841 61.32 73.1084C61.5526 73.3011 61.8262 73.438 62.12 73.5084C63.7405 73.5481 65.3205 72.9996 66.568 71.9644C68.1719 70.7524 69.6439 68.3284 69.1999 67.2004Z" fill="black"/>
<path d="M67.6759 65.5211C67.6172 65.315 67.5477 65.112 67.4679 64.9131C67.632 64.7008 67.8544 64.541 68.1079 64.4531V65.1131C68.1079 65.1131 67.8879 65.4931 67.6759 65.5211Z" fill="#263238"/>
<path d="M61.336 72.4883C61.2747 72.5557 61.2173 72.6265 61.164 72.7003C61.1367 72.7798 61.1352 72.8658 61.1596 72.9463C61.184 73.0267 61.2331 73.0974 61.3 73.1483C61.3248 73.1743 61.3546 73.1951 61.3876 73.2095C61.4205 73.2239 61.456 73.2317 61.492 73.2323C61.4138 73.1094 61.357 72.9741 61.324 72.8323C61.3211 72.7175 61.3251 72.6026 61.336 72.4883Z" fill="#263238"/>
<path d="M69.8679 67.8C69.1599 70.456 65.9639 71.908 62.8199 71.924C62.5902 72.0702 62.4016 72.2726 62.2719 72.512C62.231 72.5631 62.2087 72.6266 62.2087 72.692C62.2087 72.7575 62.231 72.8209 62.2719 72.872C62.4612 73.1184 62.7067 73.3159 62.9879 73.448C63.3079 73.532 65.1999 74.056 67.6599 72.872C69.4639 72 71.4119 69.94 71.1999 68.748C70.9879 67.556 70.5479 67.844 70.5559 66.98C70.5289 66.6222 70.5627 66.2625 70.6559 65.916C70.4373 65.9639 70.2364 66.072 70.0759 66.228C70.1519 66.568 70.0959 66.932 69.8679 67.8Z" fill="#FFDF35"/>
<path opacity="0.2" d="M71.2199 68.7495C71.1815 68.4301 71.0706 68.1237 70.8959 67.8535C70.7359 68.7455 70.2799 69.7815 68.9799 71.1215C67.6119 72.5375 64.5799 73.4135 62.2319 72.7615C62.2428 72.803 62.2634 72.8414 62.2919 72.8735C62.4827 73.1185 62.7278 73.3157 63.0079 73.4495C63.3279 73.5335 65.2199 74.0535 67.6799 72.8695C69.4839 72.0015 71.4319 69.9415 71.2199 68.7495Z" fill="black"/>
<path d="M70.092 66.7997C70.092 66.7997 70.056 66.3317 70.016 66.1637C70.2211 65.9921 70.4708 65.8825 70.736 65.8477L70.592 66.4917C70.592 66.4917 70.304 66.7997 70.092 66.7997Z" fill="#263238"/>
<path d="M62.4359 72.2715C62.4359 72.2715 62.2959 72.3755 62.2239 72.4435C62.1813 72.5153 62.1623 72.5987 62.1694 72.6819C62.1766 72.7651 62.2097 72.844 62.2639 72.9075C62.3599 73.0275 62.4359 73.0315 62.4359 73.0315C62.3843 72.8959 62.3559 72.7525 62.3519 72.6075C62.3759 72.4715 62.4359 72.2715 62.4359 72.2715Z" fill="#263238"/>
<path d="M71.7248 70.7794L52.2001 73.4609L55.2016 95.3158L74.7263 92.6343L71.7248 70.7794Z" fill="#F68410"/>
<path opacity="0.8" d="M71.7248 70.7794L52.2001 73.4609L55.2016 95.3158L74.7263 92.6343L71.7248 70.7794Z" fill="white"/>
<path opacity="0.2" d="M71.7249 70.779L65.963 71.5703L68.9645 93.4252L74.7264 92.6338L71.7249 70.779Z" fill="#F68410"/>
<path opacity="0.2" d="M74.732 92.6333L71.56 90.9293L68.848 71.1773L71.728 70.7812L74.732 92.6333Z" fill="#F68410"/>
<path opacity="0.3" d="M71.5599 90.9297L68.9679 93.4257L74.7319 92.6337L71.5599 90.9297Z" fill="#F68410"/>
<path d="M77.8799 89.5684L74.9039 88.4004L75.1959 92.1284C75.1959 92.1284 77.1959 92.0324 78.2559 90.9884L77.8799 89.5684Z" fill="#FFB573"/>
<path d="M87.2679 70.9883C88.0679 73.2283 88.7559 75.4523 89.3479 77.7563C89.6439 78.9043 89.9239 80.0603 90.1479 81.2603C90.2559 81.8563 90.3519 82.4603 90.4239 83.0923C90.5032 83.7558 90.5313 84.4244 90.5079 85.0923C90.4944 85.5256 90.4272 85.9555 90.3079 86.3723C90.1454 86.8852 89.8723 87.3563 89.5079 87.7523C88.9748 88.3215 88.3416 88.7879 87.6399 89.1283C86.4928 89.6862 85.2847 90.109 84.0399 90.3883C81.7114 90.9286 79.3367 91.2461 76.9479 91.3363L76.7159 89.4643C77.8039 89.2043 78.9199 88.9163 80.0039 88.6123C81.0879 88.3083 82.1679 87.9723 83.2039 87.5923C84.1925 87.2539 85.1452 86.8184 86.0479 86.2923C86.3762 86.1002 86.6697 85.8541 86.9159 85.5643C86.9799 85.4643 86.9799 85.4363 86.9679 85.4363C86.9782 85.2898 86.9782 85.1428 86.9679 84.9963C86.95 84.5134 86.8992 84.0323 86.8159 83.5563C86.7359 83.0363 86.6279 82.5043 86.5079 81.9563C86.2559 80.8883 85.9799 79.8003 85.6679 78.7123C85.0439 76.5523 84.3439 74.3563 83.6399 72.2243L87.2679 70.9883Z" fill="#FFB573"/>
<path d="M72.144 90.2405L72.376 91.1045C72.45 91.379 72.6107 91.6223 72.8341 91.7982C73.0575 91.974 73.3318 92.073 73.616 92.0805L75.216 92.1245L74.924 88.3965L73.292 88.5845C73.1014 88.6036 72.9172 88.6638 72.7521 88.761C72.587 88.8582 72.445 88.9901 72.3359 89.1476C72.2267 89.305 72.153 89.4843 72.1199 89.673C72.0868 89.8616 72.095 90.0553 72.144 90.2405Z" fill="#FFB573"/>
<path d="M85.5719 66.8205C87.2439 67.5005 88.6119 72.9965 88.6119 72.9965L83.9919 76.5965C83.9919 76.5965 80.7199 71.4725 81.3879 69.2485C81.9559 67.3725 83.4439 65.9605 85.5719 66.8205Z" fill="#F68410"/>
<g opacity="0.5">
<path opacity="0.5" d="M85.5719 66.8205C87.2439 67.5005 88.6119 72.9965 88.6119 72.9965L83.9919 76.5965C83.9919 76.5965 80.7199 71.4725 81.3879 69.2485C81.9559 67.3725 83.4439 65.9605 85.5719 66.8205Z" fill="black"/>
</g>
<path d="M103.416 156.676H103.356C103.272 156.671 103.192 156.645 103.121 156.599C103.051 156.553 102.994 156.49 102.956 156.416C102.927 156.374 102.909 156.324 102.905 156.273C102.9 156.222 102.91 156.17 102.932 156.124C103.136 155.724 104.42 155.564 104.564 155.548C104.581 155.545 104.598 155.548 104.613 155.556C104.628 155.564 104.64 155.576 104.648 155.592C104.657 155.605 104.662 155.621 104.662 155.638C104.662 155.654 104.657 155.67 104.648 155.684C104.376 156.048 103.856 156.644 103.416 156.676ZM104.388 155.744C103.876 155.82 103.188 155.984 103.092 156.2C103.08 156.219 103.073 156.241 103.073 156.264C103.073 156.286 103.08 156.309 103.092 156.328C103.115 156.378 103.152 156.421 103.197 156.452C103.243 156.483 103.297 156.501 103.352 156.504C103.6 156.516 104 156.236 104.4 155.744H104.388Z" fill="#263238"/>
<path d="M104.504 155.729C104.068 155.757 103.204 155.577 103.02 155.241C102.989 155.181 102.979 155.112 102.992 155.046C103.005 154.98 103.04 154.92 103.092 154.877C103.136 154.83 103.19 154.793 103.251 154.768C103.311 154.744 103.375 154.733 103.44 154.737C103.96 154.737 104.62 155.537 104.64 155.581C104.648 155.593 104.652 155.607 104.652 155.621C104.652 155.635 104.648 155.649 104.64 155.661C104.636 155.676 104.628 155.689 104.617 155.699C104.605 155.709 104.591 155.715 104.576 155.717L104.504 155.729ZM103.4 154.905C103.33 154.911 103.265 154.942 103.216 154.993C103.14 155.073 103.152 155.125 103.172 155.161C103.288 155.381 103.972 155.561 104.408 155.561C104.172 155.309 103.744 154.913 103.436 154.901L103.4 154.905Z" fill="#263238"/>
<path d="M55.688 160.492C55.4145 160.401 55.1747 160.229 55 160C54.9589 159.931 54.934 159.854 54.927 159.775C54.9201 159.695 54.9314 159.615 54.96 159.54C54.9732 159.497 54.9976 159.459 55.0306 159.429C55.0637 159.398 55.1042 159.377 55.148 159.368C55.604 159.28 56.684 160.44 56.896 160.676C56.9058 160.69 56.911 160.707 56.911 160.724C56.911 160.741 56.9058 160.758 56.896 160.772C56.8871 160.788 56.8735 160.801 56.857 160.809C56.8405 160.817 56.822 160.819 56.804 160.816C56.4222 160.745 56.0484 160.636 55.688 160.492ZM55.348 159.556C55.296 159.53 55.2379 159.519 55.18 159.524C55.18 159.524 55.136 159.524 55.12 159.584C55.0996 159.636 55.0915 159.692 55.0963 159.747C55.1012 159.803 55.1189 159.857 55.148 159.904C55.304 160.172 55.836 160.424 56.592 160.588C56.232 160.183 55.8126 159.835 55.348 159.556Z" fill="#263238"/>
<path d="M56.8 160.8C56.7892 160.796 56.7796 160.789 56.772 160.78C56.404 160.416 55.812 159.328 56.016 158.98C56.064 158.904 56.16 158.824 56.372 158.884C57.172 159.116 56.928 160.668 56.916 160.736C56.9139 160.752 56.907 160.766 56.8962 160.778C56.8855 160.789 56.8714 160.797 56.856 160.8C56.8472 160.804 56.8377 160.806 56.828 160.806C56.8184 160.806 56.8088 160.804 56.8 160.8ZM56.4 159.064H56.344C56.26 159.04 56.204 159.044 56.184 159.064C56.064 159.268 56.444 160.088 56.792 160.524C56.8 160.14 56.848 159.26 56.4 159.064Z" fill="#263238"/>
<path d="M76.6199 55.1246L76.0159 54.7246C76.0159 54.7246 76.1959 55.3486 76.6199 55.1246Z" fill="#263238"/>
</svg>
